<?xml version="1.0" encoding="UTF-8"?><svg id="Layer_2" xmlns="http://www.w3.org/2000/svg" xmlns:xlink="http://www.w3.org/1999/xlink" viewBox="0 0 138.95 136.79"><defs><style>.cls-1{fill:url(#linear-gradient);}.cls-2{fill:#f8ea00;}.cls-3{fill:#eee;}.cls-4{fill:#ff3200;}.cls-5{fill:#ff8f1e;}.cls-6{fill:#c10b00;}.cls-7{fill:#c8c8c8;}.cls-8{fill:url(#linear-gradient-3);}.cls-9{fill:url(#linear-gradient-4);}.cls-10{fill:url(#linear-gradient-2);}.cls-11{fill:url(#linear-gradient-5);}</style><linearGradient id="linear-gradient" x1="29.53" y1="101.74" x2="29.53" y2="79.19" gradientUnits="userSpaceOnUse"><stop offset=".16" stop-color="#ff3200"/><stop offset=".22" stop-color="#fe3b00"/><stop offset=".32" stop-color="#fd5400"/><stop offset=".45" stop-color="#fc7e00"/><stop offset=".59" stop-color="#f9b700"/><stop offset=".71" stop-color="#f8ea00"/></linearGradient><linearGradient id="linear-gradient-2" x1="49.11" y1="100.14" x2="49.11" y2="77.76" gradientUnits="userSpaceOnUse"><stop offset=".16" stop-color="#ff3200"/><stop offset=".22" stop-color="#fe3c00"/><stop offset=".32" stop-color="#fd5a00"/><stop offset=".46" stop-color="#fb8900"/><stop offset=".63" stop-color="#f9ca00"/><stop offset=".7" stop-color="#f8ea00"/></linearGradient><linearGradient id="linear-gradient-3" x1="69.14" y1="98.6" x2="69.14" y2="75.15" gradientUnits="userSpaceOnUse"><stop offset=".18" stop-color="#ff3200"/><stop offset=".23" stop-color="#fe3c00"/><stop offset=".33" stop-color="#fd5700"/><stop offset=".46" stop-color="#fb8300"/><stop offset=".61" stop-color="#f9c000"/><stop offset=".71" stop-color="#f8ea00"/></linearGradient><linearGradient id="linear-gradient-4" x1="91.34" y1="95.45" x2="91.34" y2="72.75" gradientUnits="userSpaceOnUse"><stop offset=".16" stop-color="#ff3200"/><stop offset=".23" stop-color="#fe3c00"/><stop offset=".33" stop-color="#fd5800"/><stop offset=".48" stop-color="#fb8600"/><stop offset=".64" stop-color="#f9c500"/><stop offset=".73" stop-color="#f8ea00"/></linearGradient><linearGradient id="linear-gradient-5" x1="110.18" y1="93.76" x2="110.18" y2="71.45" gradientUnits="userSpaceOnUse"><stop offset=".16" stop-color="#ff3200"/><stop offset=".22" stop-color="#fe3b00"/><stop offset=".33" stop-color="#fd5600"/><stop offset=".46" stop-color="#fb8100"/><stop offset=".62" stop-color="#f9bc00"/><stop offset=".73" stop-color="#f8ea00"/></linearGradient></defs><g id="art"><path class="cls-2" d="m138.95,68.5l-.11-10.23-1.55.02c-1.64.02-3.33.05-5.05.1.76-1.12,1.51-2.23,2.27-3.34l.79-1.16-.9-.75c.17-.25.34-.5.51-.75l.79-1.16-1.08-.9c-.66-.55-1.47-1.05-2.4-1.47-.8-.38-1.77-.7-2.89-.96-1.16-.27-2.52-.37-4.04-.31-2,.09-3.89.57-5.63,1.43-1.71.85-3.21,1.99-4.46,3.39-.31.35-.61.72-.89,1.1-.66-1.08-1.45-2.05-2.36-2.9-1.3-1.19-2.83-2.1-4.54-2.72,5.45-3.7,12.95-7.96,20.55-12.18l3.5-1.94-3.88.99c-5.7,1.46-11.48,3.25-16.58,4.82-8.88,2.75-16.83,5.2-21.06,4.94,2.72-4.25,6.84-9.24,12.11-15.18l-.71-.74c-4.39,3.57-9.51,7.62-14.1,10.75,1.09-3.14,3.88-7.75,8.37-13.79l1.97-2.65-2.69,1.93c-8.55,6.14-15.13,10.04-19.15,9.1,1.51-5.23,4.04-11.84,6.66-18.48l1.35-3.41-2.23,2.9c-2.9,3.77-5.68,7.82-8.13,11.39-.67.97-1.32,1.93-1.97,2.86-2-5.09-2.83-14.04-3.75-26.25l-.22-2.97-.79,2.87c-1.3,4.73-2.32,8.98-3.22,12.72-2.24,9.31-3.72,15.46-6.49,16.06-.11.02-.22.03-.34.03-.33-2.23-.59-4.86-.78-7.92l-.2-3.24-.81,3.14c-.61,2.35-1.21,4.49-1.82,6.39-2.53-1.97-5.95-5.8-10.69-11.92l-1.5-1.93.59,2.37c2.65,10.68,2.81,16.97.5,19.22-4.07-2.72-9.47-8.61-16.63-16.68l-2.18-2.46,1.32,3.01c1.75,3.98,3.42,7.48,4.89,10.58.74,1.55,1.42,2.99,2.04,4.32-4.91-2.24-11.07-5.93-17.98-10.08-3.27-1.96-6.65-3.99-10.25-6.09l-2.85-1.65,2.2,2.45c11.27,12.52,16.63,19.88,18.85,24.17-1.29-.38-2.68-.81-4.2-1.29l-2.53-.81,2.04,1.7c2.22,1.84,4.14,3.63,5.8,5.38-.01.03-.03.05-.04.08-1.22,1.88-7.06.02-11.33-1.33l-2.68-.84.94,1.27c.62.84,1.35,1.72,2.13,2.65.94,1.13,1.93,2.31,2.86,3.58-.27,0-.54,0-.81,0-3.29.12-6.55.2-9.69.24l-1.55.02.03,2.65-1.43.02.32,27.96,1.55-.02c1.87-.02,3.79-.07,5.72-.12-1.82,1.96-3.92,4.01-6.36,6.19l-2.08,1.85,2.61-.99c4.74-1.79,8.78-3.14,12.18-4.07-.01.32-.03.64-.06.99-.06,1.12-.2,2.15-.35,3.2-.26,1.84-.5,3.57-.18,5.49-.16,1.37-.24,2.72,0,4.18.06.34.14.65.23.95-1.6,2.54-3.29,5.19-5.08,7.99l-3.93,6.16,5.74-4.62c2.44-1.97,4.72-3.81,6.84-5.49,1.8.82,4.06,1.07,6.48,1.07.58,0,1.18-.02,1.78-.05-.95,2.81-2.03,5.86-3.2,9.17l-1.03,2.89,1.59-1.55c2.39-2.34,4.58-4.55,6.51-6.51,1.79-1.82,3.43-3.47,4.91-4.91-1.13,4.87-2.97,10.95-4.97,17.19l.95.4c5.15-9.78,9.07-15.71,12.32-18.46.68.11,1.42.17,2.25.17.65,0,1.36-.04,2.12-.11.05,0,.09-.01.14-.02,1.81,5,3.23,13.64,4.77,25.41l.49,3.75,1.14-8.08c.65-4.62,1.24-8.88,1.87-12.68,1.21,2.71,2.43,5.86,3.71,9.38l.78,2.15.57-5.9c.66-7.04,1.2-12.74,2.25-15.78,1.14-.23,2.68-.71,4.02-1.65,3.46,2.41,8.84,10.14,14.31,18.41l.9-.5c-2.56-5.53-4.27-9.99-5.17-13.45,2.03,2.46,4.26,5.34,6.71,8.7l1.97,2.7-1.07-3.16c-.7-2.09-1.44-4.34-2.14-6.61l1.33,1.82-.57-2.46c-.67-2.91-1.08-5.39-1.24-7.47,1.61.58,3.43.75,5.06.75,1.37,0,2.6-.12,3.44-.2l.23-.02c.08,0,.16-.02.24-.03,3.24,1.4,6.78,3.15,10.36,5.01l3.09,1.59-2.49-2.42c-1.92-1.87-3.64-3.63-5.19-5.31.71-.23,1.4-.5,2.06-.81,1.65,1.25,3.37,2.57,5.17,3.96,4.12,3.16,8.78,6.75,13.78,10.43l2.22,1.64-3.67-5.75c-2.29-3.59-4.38-6.86-6.24-9.87.29,0,.58,0,.89-.02,7.91-.34,9.57-4.25,9.57-7.48,0-.74-.11-1.42-.27-2.06.19-.69.27-1.4.27-2.07,0-.83-.13-1.6-.32-2.3,1.37-.48,3.09-1.86,3.09-5.76,0-.77-.06-1.47-.16-2.12.46.04.93.07,1.41.07.22,0,.44,0,.66-.01,1.34-.06,2.67-.29,3.94-.69,1.27-.4,2.46-.95,3.53-1.64,1.08-.69,2.07-1.51,2.95-2.45.87-.94,1.62-1.99,2.24-3.12l.19-.36-.02-1.96c.07-.12.15-.23.22-.35l.19-.36Z"/><path class="cls-6" d="m117.98,75.92c-36.54-15.33-42.96-16.8-17.38-45.64-32.2,26.21-31.43,17.79-19.15-13.31-14.09,18.3-23.74,41.36-25.81,8.26-5.83,22.56-9.8,19.95-29.51-2.26,10.32,23.46,18.01,30.63-7.69,22.39,23.7,19.71,14.17,32.79-9.13,69.35,28.08-22.59,34.62-29.03,22.32,9.43,14.62-27.75,19.89-25.28,28.85-.57,2.34-24.2,1.92-32,21.21-2.79-13.2-28.55-2.51-25.88,19.25-14.64-25.63-24.92-16.79-31.59,17.03-30.22Z"/><path class="cls-4" d="m116.95,113.41c-24.16-37.96-29.34-43.53,17.56-52.44-51.38,2.16-44.26-4.88-8.66-24.62-27.66,7.08-54.58,21.35-31.52-9.7-22.79,16.36-24.71,11.4-27.19-21.58-7.67,27.88-5.57,39.39-24.5,14.98,8.27,33.38-8.92,19.16-37.87,2.32,33.26,36.93,16.43,30.55,6.68,27.5,5.51,7.45,20.26,18.21-7.09,42.53,34.13-12.89,30.15-2.45,20.2,25.64,20.63-20.14,23.47-29.05,28.98,13.04,4.82-34.06,5.67-49.43,30.52-15.41-14.64-43.52.82-25.89,32.9-2.26Z"/><path class="cls-5" d="m105.76,101.14c-6.21-23.92-15.87-32.99,5.26-40.24-19.22,4.57-30.84-3.4-6.04-17.16-19.28,4.93-31.71,10.55-21.97-6.76-9.19,6.08-16.03,15.38-17.26-8.25-3.7,17.05-3.96,22.71-18.75,3.66,5.77,23.26-6.22,13.35-26.39,1.62,23.18,25.74,3.07,20.29-2.09,20.29,5.47,7.96,18.99,16.85-9.71,35.2,17.32-7.94,25.36,4.85,20.16,21.7,11.25-8.1,21.77-30.77,25.61-1.44,3.36-23.73,10.79-24.86,28.11-1.16-5.52-23.82,7.72-15.65,23.06-7.46Z"/><path class="cls-2" d="m83.28,83.83c-10.99-15.07-12.86-19.08,7.69-22.98-15.84-.2-11.24-3.7-1.75-10.23-6.33.34-19.6,2.36-15.84-5.88-10.48,8.98-8.85-2.84-9.58-11.78-3.06,8.45-3.78,21.95-13.08,9.96,2.36,10.12-3.91,8.4-16.6,1.02,4.36,7.96,6.82,9.78-8.03,15.21,17.77-2.01,12.69,10.41,4.13,18.56,15.49-6.66,16.79-4.81,13.81,4.25,5.86-2.71,9.6-2.36,11.45,9.62,2.11-14.93,6.07-13.05,13.37-6.75-6.42-19.07.36-11.35,14.42-.99Z"/><path d="m136.73,68.58l-.11-9.92-1.5.02c-1.59.02-3.23.05-4.89.1.73-1.08,1.47-2.17,2.2-3.24l.77-1.13-.88-.73c.16-.24.33-.49.49-.73l.77-1.13-1.05-.87c-.64-.53-1.43-1.01-2.33-1.42-.77-.36-1.71-.68-2.8-.93-1.13-.26-2.45-.37-3.92-.3-1.93.08-3.77.55-5.45,1.39-1.66.83-3.12,1.93-4.32,3.28-.3.34-.59.69-.86,1.06-.64-1.05-1.4-1.99-2.29-2.81-1.31-1.19-2.85-2.11-4.58-2.71-1.74-.61-3.61-.83-5.55-.66-1.92.17-3.77.71-5.47,1.61-1.68.89-3.17,2.04-4.42,3.42-.92,1.02-1.7,2.16-2.33,3.39-.4-.41-.82-.79-1.29-1.13-1.41-1.01-3.13-1.71-5.12-2.06-1.92-.34-4.1-.38-6.49-.12l-8.04.88.03,2.38-1.8.2-.05-4.38-1.64.18c-2.67.29-5.35.57-8.02.85l-1.36.14.03,2.39c-.17.02-.34.04-.52.05l-1.29.13-.04-3.39-1.63.16c-2.67.27-5.34.53-8.01.77l-1.38.13.02,2.08-1.31.12v.89c-1.66.15-3.32.3-4.99.43l-1.4.11.03,2.3c-.06,0-.12.01-.18.02l-1.38.11-.03-2.3-1.59.12c-2.56.19-5.12.35-7.68.5l-1.15.07s-.02-.01-.03-.02c-.87-.61-1.91-1.06-3.11-1.34-1.13-.26-2.38-.36-3.71-.31-3.2.12-6.36.2-9.4.23l-1.5.02.03,2.57-1.39.02.31,27.11,1.5-.02c3.19-.04,6.51-.13,9.87-.26.84-.03,1.63-.14,2.39-.29-.01.46-.02.92-.03,1.38,0,.9-.01,1.84-.1,2.88,0,0,0,.02,0,.03,0,0,0,.02,0,.03-.06,1.13-.2,2.15-.34,3.14-.25,1.76-.48,3.42-.18,5.23,0,.01,0,.02,0,.03-.16,1.31-.24,2.6,0,3.97.87,4.76,5.08,5.73,11.59,5.42.14,0,.29-.01.43-.02,6.24-.36,9.87-1.72,11.95-3.49,1.58,1.58,4.23,2.24,7.98,1.85,3.81-.4,6.29-1.38,7.9-2.67,2,1.62,5.03,1.27,6.3,1.12,1.2-.14,4.3-.72,6.05-2.91,1.76,1.76,4.88,1.6,6.08,1.45,2.94-.35,5.07-1.3,6.42-2.8,2.96,1.7,7.46,1.22,9.41,1.04,3.96-.42,8.84-1.32,11.4-4.85.89,2,3.15,3.58,8.25,3.31,7.27-.31,8.8-3.77,8.8-6.75,0-.72-.11-1.38-.27-2,.19-.66.27-1.34.27-2,0-.94-.18-1.79-.45-2.57,1.21-.26,3.13-1.27,3.13-5.25,0-.78-.06-1.48-.17-2.12.62.08,1.24.13,1.88.13.21,0,.43,0,.64-.01,1.31-.06,2.59-.28,3.82-.67,1.23-.39,2.38-.92,3.43-1.59,1.05-.67,2.01-1.47,2.85-2.38.84-.91,1.58-1.92,2.17-3.02l.19-.34-.02-1.9c.07-.12.15-.22.22-.34l.19-.34Z"/><path class="cls-3" d="m43.33,73.13c-.06-5.1-.12-10.21-.17-15.31-2.58.24-5.16.46-7.74.67.06,5,.11,9.99.17,14.99,0-.07,0-.14,0-.21,2.44-.03,5.02-.09,7.74-.18,0,.02,0,.03,0,.05,0,.4,0,.78-.03,1.16.03-.37.04-.76.03-1.16Z"/><path class="cls-3" d="m43.18,75.38c-.11.7-.28,1.36-.51,1.97.23-.61.4-1.27.51-1.97Z"/><path class="cls-3" d="m24.04,71.18s.02.04.03.06c-.31-.68-.65-1.24-1.01-1.68-.44-.5-.93-.91-1.46-1.22.33-.31.63-.68.89-1.13.21-.37.41-.84.6-1.39.19-.55.28-1.21.27-1.99-.01-1.08-.22-2.02-.63-2.8-.41-.78-.97-1.43-1.69-1.93-.72-.51-1.58-.87-2.58-1.1-1-.23-2.11-.32-3.31-.28-3.15.12-6.29.2-9.44.23.05,3.97.09,7.94.14,11.92.6.09,6.91,1,18.19,1.31Zm-8.12-6.15c.01,1.11-.58,1.69-1.79,1.73-.29.01-.58.02-.87.03-.01-1.11-.03-2.22-.04-3.32.29,0,.58-.02.87-.03,1.2-.04,1.81.48,1.83,1.59Z"/><path class="cls-1" d="m36.25,89c-.48-.03-.71-.25-.71-.63s.2-.56.71-.8c2.21-.91,3.09-1.91,3.09-4.32,0-3.32-2.79-4.42-11.52-3.96-6.29.28-7.79,1.09-8.53,3.43-.61,2.22-.27,4.32-.51,7.28-.17,3.2-.95,5.52-.54,7.93.51,2.76,2.41,4.08,9.62,3.76.14,0,.29-.01.43-.02,9.46-.51,12.66-3.12,12.66-7.71,0-3.06-1.33-4.7-4.69-4.96Zm-7.51,4.38c-1.94.1-2.65-.22-2.65-1.31s.58-1.62,2.55-1.71c2.24-.12,3.23.4,3.23,1.35,0,1.02-.92,1.56-3.13,1.67Zm-.34-6c-1.77.09-2.21-.31-2.21-1.16,0-1.26.71-1.62,2.48-1.71,2.35-.12,3.2.3,3.2,1.22s-1.05,1.53-3.47,1.65Z"/><path class="cls-10" d="m53.59,86.55c-.75.08-1.19.2-1.87.27-.82.09-1.46-.25-1.53-1.47-.07-1.45,1.33-2.86,1.26-4.79-.07-2.24-1.33-3.05-4.52-2.73-2.96.29-4.49,1.34-5.17,3.58-.75,2.62-.34,5.1-.54,7.36,0,.01,0,.03,0,.04,1.15,1.13,1.74,2.78,1.74,4.97,0,1.57-.25,3.3-1.32,4.87,1.06,1.13,3.04,1.74,6.59,1.39,6.43-.67,8.81-2.63,8.81-7.59s-1.36-6.13-3.43-5.9Z"/><path class="cls-8" d="m79.41,84.08c-.24-6.74-2.28-9.77-10.91-8.73-8.38,1.01-10.57,4.33-10.92,10.73.95,1.28,1.43,3.32,1.43,6.13,0,1.92-.27,3.91-1.44,5.6.97.71,2.52.94,4.84.67,3.74-.44,5.3-2.13,5.3-4.44,0-2.69-1.36-2.96-1.36-4.29,0-.75.34-1.3,2.14-1.52,1.77-.21,2.11.26,2.11,1,0,1.33-1.39,1.94-1.39,4.62,0,2.31,1.6,3.61,5.34,3.17,4.15-.49,5.85-2.01,6.12-4.76.24-2.98-1.19-4.45-1.26-8.18Zm-10.91.58c-2.38.29-3.06.06-3.06-.99,0-1.23,1.02-1.69,3.06-1.93,2.01-.24,3.03-.02,3.03,1.2,0,1.05-.68,1.44-3.03,1.72Z"/><path class="cls-9" d="m93.14,80.31c-1.6.02-2.45-.24-2.45-1.02,0-.68.54-1.11,1.56-1.21,2.48-.24,3.94.96,6.09.78,1.36-.11,2.38-1.11,2.38-2.81,0-2.36-2.01-3.87-9.86-3.1-7.75.79-9.76,3.64-9.76,6.96,0,4.19,2.82,4.7,8.19,4.69,1.5-.05,2.11.23,2.11.98s-.61,1.15-1.39,1.23c-2.48.25-3.74-1.21-6.36-.92-.72.08-1.33.38-1.84.81.08.31.16.62.25.94.37,1.33.75,2.7.6,4.61-.08.82-.29,1.54-.57,2.21,1.55.91,4.17,1.23,8.29.81,8.33-.82,11.19-3.69,11.19-8.84,0-4.99-3.09-6.04-8.43-6.12Z"/><path class="cls-11" d="m110.04,71.5c-4.16.21-6.59.78-7.94,1.99.39.65.62,1.44.62,2.42,0,1.71-.72,3.15-1.89,4.03.01.03.02.07.03.1.43.32.83.7,1.18,1.14.12.02.25.03.38.02.61-.04,1.19-.32,1.97-.37.78-.05,1.29.19,1.29,1.62,0,1.97-2.41,4.27-2.41,7.19,0,3.23,2.48,4.3,6.77,4.09,4.32-.2,6.8-1.48,6.8-4.72,0-2.93-2.41-5.01-2.41-6.98,0-1.43.51-1.72,1.29-1.74.78-.02,1.36.21,1.97.2,1.19-.02,1.84-1.11,1.84-3.32,0-4.6-1.84-6-9.48-5.68Z"/><path class="cls-3" d="m24.06,60.34c.51.99.78,2.16.8,3.47.01.94-.11,1.77-.35,2.48-.22.66-.46,1.2-.72,1.65-.02.04-.05.08-.07.13.16.16.32.32.47.5.47.56.88,1.22,1.25,2.04.34.74.53,1.62.59,2.61,1.58.03,3.25.05,5.01.06-.05-4.82-.11-9.63-.16-14.45-2.49.18-4.98.34-7.47.48.24.32.47.65.66,1.02Z"/><path class="cls-3" d="m44.64,56.16l.16,13.86c2.1-.08,4.25-.18,6.5-.3-.06-5.22-.12-10.45-.18-15.67-2.68.27-5.35.53-8.03.77,0,.5.01.99.02,1.48l1.53-.14Z"/><path class="cls-3" d="m57.82,69.64l1.64-.17v.71c1.54-.12,3.09-.24,4.69-.38,0,0-.12-10.17-.18-16.1-2.68.29-5.35.57-8.03.85.08,6.73.15,13.3.17,15.26.57-.06,1.14-.12,1.7-.18Z"/><path class="cls-3" d="m88.87,59.86c-.66-1.44-1.6-2.6-2.83-3.49-1.23-.88-2.73-1.49-4.51-1.81-1.78-.32-3.8-.35-6.06-.11-2.23.24-4.46.48-6.69.73.06,5.67.13,11.39.16,14.26l3.35-.36.02,1.92c1.43-.15,2.88-.32,4.35-.49-.04-3.1-.07-6.21-.11-9.31,1.81-.2,3.21.08,4.21.81,1,.74,1.51,1.99,1.53,3.74.02,1.76-.46,3.12-1.44,4.08-.08.08-.18.14-.26.21,2.87-.36,5.84-.77,8.85-1.2.3-1.19.46-2.48.44-3.87-.02-1.97-.36-3.68-1.02-5.12Z"/><path class="cls-3" d="m112.3,56.17c-.68-1.5-1.6-2.78-2.76-3.84-1.16-1.06-2.51-1.86-4.06-2.4-1.55-.54-3.19-.73-4.93-.58-1.73.15-3.37.63-4.91,1.44-1.53.81-2.87,1.84-4,3.1-.98,1.09-1.77,2.32-2.38,3.67.36.52.7,1.07.97,1.67.74,1.63,1.13,3.55,1.15,5.73,0,.55-.01,1.08-.05,1.61,1.86-.28,3.74-.56,5.65-.87-.38-.38-.69-.81-.93-1.31-.27-.59-.41-1.23-.42-1.93,0-.7.12-1.37.38-2,.26-.64.61-1.21,1.07-1.71.45-.5.98-.91,1.6-1.23.61-.32,1.27-.51,1.97-.57.7-.06,1.36.02,1.98.23.62.21,1.16.53,1.62.95.46.42.83.93,1.1,1.52.27.59.41,1.24.42,1.94,0,.7-.12,1.37-.37,2-.11.28-.25.54-.4.79,2.7-.48,5.45-.97,8.25-1.51.08-.6.13-1.21.12-1.83-.02-1.73-.37-3.35-1.05-4.85Z"/><path class="cls-7" d="m135.13,60.18c-3.15.74-6.22,1.42-9.27,2.08.01,1.07.02,2.14.04,3.21.72-.03,1.45-.05,2.17-.08-.48.62-1.05,1.11-1.72,1.49-.67.37-1.42.58-2.24.61-.7.03-1.36-.07-1.97-.29-.62-.22-1.16-.55-1.62-.97-.46-.42-.83-.94-1.1-1.55-.14-.32-.24-.65-.31-1-1.58.32-3.14.63-4.69.93-.16.66-.36,1.31-.62,1.95-.3.73-.65,1.42-1.05,2.08.15.29.31.56.47.83,4.59.19,7.37,1.54,8.1,5.4.93.17,1.88.24,2.87.2,1.18-.05,2.32-.25,3.43-.6,1.1-.35,2.13-.82,3.08-1.43.95-.6,1.8-1.31,2.56-2.13.76-.82,1.41-1.73,1.96-2.72-.03-2.68-.06-5.35-.09-8.03Z"/><path class="cls-7" d="m100.77,72.08c1.91-1.74,5.03-2.38,9.27-2.59.11,0,.21,0,.32-.01.84-1.05,1.53-2.21,2.05-3.49.41-1.02.68-2.07.82-3.15-2.8.54-5.54,1.04-8.25,1.51-.19.32-.41.63-.66.9-.45.5-.98.9-1.6,1.22-.61.32-1.27.51-1.97.57-.7.06-1.36-.01-1.97-.22-.62-.21-1.16-.52-1.62-.94-.06-.06-.11-.13-.17-.19-1.91.31-3.79.59-5.65.87-.1,1.36-.38,2.62-.79,3.8.15.19.32.38.48.57,2.51-.27,7.12-.61,9.74,1.15Z"/><path class="cls-7" d="m79.78,76.76c1.23-2.78,4.16-4.63,8.75-5.48.16-.32.32-.65.45-.99.18-.46.33-.95.46-1.45-3.02.43-5.98.84-8.85,1.2-.96.82-2.25,1.34-3.91,1.52,0-.35,0-.7-.01-1.05-1.47.17-2.91.33-4.35.49l.02,2.16c3.85.14,6.13,1.44,7.44,3.6Z"/><path class="cls-7" d="m68.5,73.35c.83-.1,1.61-.16,2.35-.19,0-.8-.02-1.61-.03-2.41-2.22.24-4.43.48-6.65.72,0-.56-.01-1.11-.02-1.67-1.6.14-3.15.26-4.68.38l.07,6.38c1.95-1.61,4.81-2.71,8.97-3.22Z"/><path class="cls-7" d="m44.52,76.29c1-.31,1.89-.41,2.4-.46,3.1-.31,5.1.41,5.99,2.15,1.71-.17,3.43-.35,5.14-.53-.02-2.11-.05-4.21-.07-6.32-2.22.23-4.43.46-6.65.69,0-.7-.02-1.4-.02-2.1-2.25.13-4.41.22-6.5.3l.03,3.08c.01,1.14-.1,2.2-.31,3.19Z"/><path class="cls-7" d="m25.39,77.44c.75-.06,1.56-.12,2.43-.16,5.06-.23,10.36-.34,12.51,2.48.63-1.26,1.5-2.1,2.42-2.67.4-1.16.59-2.48.58-3.96,0-.02,0-.03,0-.05-2.72.09-5.31.15-7.74.18,0,.07,0,.14,0,.21,0,.84-.16,1.5-.5,1.97-.34.47-.93.74-1.75.81-.82.06-1.41-.12-1.76-.54-.35-.42-.54-1.05-.55-1.89,0-.18,0-.36,0-.54-1.76,0-3.42-.03-5.01-.06.01.18.03.35.03.53.02,1.32-.21,2.56-.66,3.68Z"/><path class="cls-7" d="m23.65,77.64c.12-.22.23-.45.33-.68.4-.96.59-2.02.58-3.18-.01-1.01-.17-1.86-.48-2.54,0-.02-.02-.04-.03-.06-11.29-.31-17.59-1.22-18.19-1.31.05,4.07.09,8.13.14,12.2,3.28-.04,6.56-.13,9.83-.26.61-.02,1.19-.09,1.75-.19.99-2.49,2.89-3.51,6.08-3.98Zm-9.41-1.45c-.29.01-.58.02-.87.03-.02-1.4-.03-2.79-.05-4.19.29,0,.58-.02.87-.03,1.83-.07,2.76.59,2.77,1.99.02,1.4-.89,2.14-2.72,2.2Z"/><path class="cls-3" d="m131.57,52.1c-.54-.45-1.2-.85-2-1.22-.68-.32-1.51-.59-2.5-.83-.99-.23-2.16-.32-3.51-.26-1.74.07-3.35.49-4.85,1.23-1.5.75-2.79,1.73-3.87,2.94-.43.48-.82,1.01-1.17,1.55,0,0,0,.02.01.02.76,1.68,1.16,3.52,1.18,5.45.01,1.23-.14,2.44-.43,3.61,1.55-.3,3.11-.61,4.69-.93-.07-.32-.1-.66-.11-1.01,0-.72.1-1.4.34-2.04.23-.64.56-1.19.98-1.66.42-.47.91-.84,1.49-1.12.58-.28,1.21-.44,1.91-.47.63-.03,1.27.05,1.92.23.65.18,1.2.46,1.64.83,1.43-2.12,2.87-4.24,4.3-6.34Z"/><path class="cls-3" d="m122.14,67.2c-.31-.11-.6-.25-.87-.41.27.16.56.3.87.41.31.11.63.19.96.24-.33-.05-.65-.13-.96-.24Z"/><path class="cls-3" d="m125.84,60.41c0,.62.01,1.23.02,1.85,3.05-.66,6.12-1.34,9.27-2.08-3.1.04-6.19.12-9.29.23Z"/><path class="cls-3" d="m119.42,64.68c-.12-.28-.21-.57-.28-.88.07.3.16.6.28.88Z"/></g></svg>