<?xml version="1.0" encoding="UTF-8" standalone="no"?>
<!DOCTYPE svg PUBLIC "-//W3C//DTD SVG 1.1//EN" "http://www.w3.org/Graphics/SVG/1.1/DTD/svg11.dtd">
<svg xmlns="http://www.w3.org/2000/svg" version="1.1" viewBox="0 0 1024 1024" width="1024.0pt" height="1024.0pt">
<path d="M 523.00 228.00 C 542.94 227.91 563.20 231.43 582.51 236.23 C 647.72 252.72 706.29 293.08 744.80 348.23 C 773.37 388.64 790.91 436.58 795.47 485.84 C 795.90 492.89 796.06 499.94 796.00 507.00 C 795.93 518.90 796.33 531.13 794.99 542.96 C 791.20 577.00 781.38 610.32 765.80 640.84 C 744.83 682.35 713.36 718.62 675.19 745.20 C 636.77 772.23 591.44 789.38 544.79 794.76 C 530.74 796.57 516.16 795.84 502.00 796.00 C 487.53 796.14 473.20 794.40 459.01 791.67 C 407.82 782.04 359.52 758.05 320.98 723.02 C 301.37 705.31 284.40 684.98 270.41 662.56 C 246.89 624.82 232.37 581.59 228.47 537.29 C 227.76 520.25 227.72 502.88 228.53 485.84 C 231.93 449.41 242.33 413.67 259.20 381.19 C 280.94 338.99 313.55 302.36 352.99 275.93 C 392.36 249.27 438.52 232.92 485.84 228.53 C 498.26 227.73 510.56 228.07 523.00 228.00 Z" fill="#000000" />
<path d="M 509.00 261.78 C 517.64 262.01 528.20 261.02 536.22 264.64 C 528.47 264.82 520.74 264.51 513.00 264.51 C 506.73 264.47 500.63 264.87 494.41 263.72 C 498.40 261.16 504.42 261.96 509.00 261.78 Z" fill="#e1892b" />
<path d="M 474.99 263.69 C 478.22 264.44 481.57 267.37 481.55 270.92 C 481.93 276.56 481.73 282.26 481.42 287.91 C 468.47 289.59 455.96 292.80 443.46 296.50 C 427.40 301.70 412.31 309.07 397.80 317.63 C 399.36 315.37 401.31 313.50 403.26 311.58 C 400.88 312.18 398.69 313.14 396.49 314.22 C 393.47 315.73 390.32 315.50 387.40 317.30 C 384.44 319.11 381.64 320.94 379.67 323.87 C 378.33 325.83 376.73 327.41 374.84 328.84 C 368.96 333.29 363.72 338.56 359.58 344.68 C 362.13 342.81 364.71 341.19 367.53 339.77 C 361.92 345.43 355.93 350.71 350.15 356.21 C 347.79 353.31 345.80 350.49 342.63 348.40 C 339.45 346.33 335.91 344.79 332.59 342.95 C 339.82 333.64 349.19 325.80 357.97 317.97 C 364.70 311.86 372.11 306.73 379.58 301.58 C 388.06 296.09 396.49 290.07 405.61 285.69 C 408.72 284.97 411.77 284.12 414.66 282.72 C 420.23 280.02 425.97 278.53 430.93 274.61 C 441.19 270.61 452.01 267.65 462.81 265.51 C 466.74 264.77 470.99 263.36 474.99 263.69 Z" fill="#f17f1a" />
<path d="M 494.41 263.72 C 500.63 264.87 506.73 264.47 513.00 264.51 C 520.74 264.51 528.47 264.82 536.22 264.64 C 537.58 265.94 538.86 267.03 539.03 269.05 C 539.51 274.81 539.32 280.73 538.87 286.49 C 533.22 286.57 527.69 285.50 522.04 285.59 C 511.40 285.54 500.56 285.13 489.98 286.29 C 489.41 280.57 489.32 274.73 489.77 269.00 C 489.98 266.46 492.36 264.83 494.41 263.72 Z" fill="#ecf4f6" />
<path d="M 556.97 263.99 C 585.83 269.24 613.43 280.19 638.28 295.73 C 646.60 301.32 654.97 306.94 662.79 313.22 C 673.64 322.23 684.96 331.87 693.80 342.89 C 690.08 344.15 685.91 345.43 682.63 347.62 C 679.69 349.60 677.23 352.63 674.86 355.25 C 669.14 350.27 663.75 344.95 657.93 340.09 C 639.38 323.57 617.52 310.91 594.69 301.30 C 579.28 294.95 563.43 291.59 547.29 287.85 C 546.98 281.49 546.18 274.66 547.39 268.38 C 549.30 265.16 553.19 263.06 556.97 263.99 Z" fill="#f1740f" />
<path d="M 430.93 274.61 C 425.97 278.53 420.23 280.02 414.66 282.72 C 411.77 284.12 408.72 284.97 405.61 285.69 C 413.60 281.13 422.16 277.40 430.93 274.61 Z" fill="#d69555" />
<path d="M 437.09 278.33 C 437.64 279.93 438.18 281.53 438.73 283.14 C 432.70 284.64 426.95 286.60 421.37 289.35 C 412.35 293.46 403.50 297.87 395.02 303.01 C 382.11 310.30 370.12 320.23 358.67 329.67 C 354.45 333.07 350.71 337.10 346.35 340.32 C 344.72 341.64 342.15 341.14 340.17 341.20 C 344.58 334.83 350.42 330.26 355.95 324.95 C 374.99 306.32 399.40 292.39 423.57 281.55 C 428.10 279.45 432.06 278.45 437.09 278.33 Z" fill="#f7f1e5" />
<path d="M 496.00 295.75 C 506.07 295.38 516.33 294.98 526.36 296.15 C 522.58 296.89 518.85 297.31 514.99 297.16 C 500.26 296.69 484.66 297.68 470.51 302.08 C 473.67 302.96 474.89 303.43 477.60 301.41 C 477.55 302.13 477.51 302.86 477.46 303.59 C 485.72 304.25 493.79 302.41 502.03 303.14 C 507.49 303.62 512.98 303.85 518.40 304.58 C 510.28 307.01 501.25 307.73 492.83 308.00 C 484.00 309.65 474.96 310.72 466.35 313.31 C 453.59 317.15 441.31 319.91 429.75 326.76 C 425.86 328.92 421.97 331.11 418.25 333.54 C 417.63 331.38 417.01 329.22 416.40 327.06 L 416.15 329.12 C 415.15 328.18 414.08 326.71 412.72 326.34 C 411.16 326.20 409.46 326.64 407.95 327.03 C 406.74 326.34 405.54 325.64 404.33 324.93 C 407.59 322.95 410.81 320.94 414.19 319.18 C 439.65 306.01 467.51 298.42 496.00 295.75 Z" fill="#f3902b" />
<path d="M 526.36 296.15 C 537.39 296.23 548.71 298.48 559.40 301.07 C 556.85 301.54 554.32 302.14 551.78 302.70 C 555.00 303.96 558.25 305.11 561.51 306.23 C 561.03 307.27 560.56 308.31 560.07 309.35 C 561.56 309.07 563.11 308.70 564.63 308.69 C 566.62 309.54 568.33 311.21 570.00 312.57 C 568.72 313.33 567.45 314.09 566.18 314.85 C 570.15 315.86 574.14 316.77 578.12 317.73 C 574.41 318.64 570.66 319.25 566.88 319.77 C 566.02 317.99 565.17 316.22 564.33 314.45 C 562.73 315.27 561.10 316.73 559.21 316.30 C 555.45 315.71 552.28 314.46 548.52 315.87 C 541.63 311.25 534.80 312.75 527.03 312.64 C 520.75 312.87 515.22 311.75 509.79 315.77 C 515.90 316.86 521.98 316.59 528.13 317.24 C 527.04 317.79 525.96 318.34 524.85 318.84 C 516.63 318.58 508.42 318.61 500.20 318.79 C 498.04 318.41 495.93 317.90 493.80 317.39 C 496.97 317.08 500.13 316.76 503.27 316.31 C 497.71 315.49 492.53 316.65 486.99 316.87 C 483.57 317.02 480.26 317.36 476.89 317.93 C 471.77 318.78 466.67 318.17 461.57 319.34 C 455.27 320.74 448.92 321.53 442.50 322.14 C 442.85 322.68 443.19 323.22 443.54 323.77 C 439.39 324.03 436.08 324.47 432.89 327.33 C 431.84 327.15 430.80 326.95 429.75 326.76 C 441.31 319.91 453.59 317.15 466.35 313.31 C 474.96 310.72 484.00 309.65 492.83 308.00 C 501.25 307.73 510.28 307.01 518.40 304.58 C 512.98 303.85 507.49 303.62 502.03 303.14 C 493.79 302.41 485.72 304.25 477.46 303.59 C 477.51 302.86 477.55 302.13 477.60 301.41 C 474.89 303.43 473.67 302.96 470.51 302.08 C 484.66 297.68 500.26 296.69 514.99 297.16 C 518.85 297.31 522.58 296.89 526.36 296.15 Z" fill="#f1811b" />
<path d="M 559.40 301.07 C 577.35 304.83 594.80 311.38 610.95 320.06 C 626.18 328.09 640.61 338.01 653.11 349.88 C 664.61 360.05 674.55 372.06 683.49 384.50 C 694.78 399.58 703.16 417.13 710.19 434.53 C 709.37 437.15 708.68 439.52 709.63 442.22 C 711.33 447.73 713.46 453.04 714.54 458.73 C 714.60 462.17 714.61 465.61 714.80 469.05 C 714.09 468.30 713.38 467.55 712.66 466.79 C 711.96 467.13 711.27 467.46 710.57 467.80 C 709.37 465.10 708.01 462.50 706.63 459.90 C 704.15 455.26 705.21 449.72 702.64 444.85 C 700.97 441.75 699.22 438.63 697.34 435.66 C 695.17 432.15 691.53 430.03 688.25 427.68 C 687.19 428.37 686.13 429.05 685.06 429.73 C 684.34 428.15 683.62 426.53 682.78 425.00 C 682.23 424.72 681.68 424.45 681.12 424.18 L 680.61 426.01 C 674.62 413.57 667.29 402.09 658.72 391.28 C 643.80 371.71 625.05 355.80 604.04 343.11 C 596.22 337.39 587.09 333.36 578.06 329.97 C 568.18 326.59 557.91 323.12 547.60 321.44 C 540.08 320.19 532.44 319.54 524.85 318.84 C 525.96 318.34 527.04 317.79 528.13 317.24 C 521.98 316.59 515.90 316.86 509.79 315.77 C 515.22 311.75 520.75 312.87 527.03 312.64 C 534.80 312.75 541.63 311.25 548.52 315.87 C 552.28 314.46 555.45 315.71 559.21 316.30 C 561.10 316.73 562.73 315.27 564.33 314.45 C 565.17 316.22 566.02 317.99 566.88 319.77 C 570.66 319.25 574.41 318.64 578.12 317.73 C 574.14 316.77 570.15 315.86 566.18 314.85 C 567.45 314.09 568.72 313.33 570.00 312.57 C 568.33 311.21 566.62 309.54 564.63 308.69 C 563.11 308.70 561.56 309.07 560.07 309.35 C 560.56 308.31 561.03 307.27 561.51 306.23 C 558.25 305.11 555.00 303.96 551.78 302.70 C 554.32 302.14 556.85 301.54 559.40 301.07 Z" fill="#f0750d" />
<path d="M 403.26 311.58 C 401.31 313.50 399.36 315.37 397.80 317.63 C 392.28 321.54 386.55 325.13 381.03 329.03 C 376.29 332.35 372.14 336.29 367.53 339.77 C 364.71 341.19 362.13 342.81 359.58 344.68 C 363.72 338.56 368.96 333.29 374.84 328.84 C 376.73 327.41 378.33 325.83 379.67 323.87 C 381.64 320.94 384.44 319.11 387.40 317.30 C 390.32 315.50 393.47 315.73 396.49 314.22 C 398.69 313.14 400.88 312.18 403.26 311.58 Z" fill="#e16b0b" />
<path d="M 503.27 316.31 C 500.13 316.76 496.97 317.08 493.80 317.39 C 495.93 317.90 498.04 318.41 500.20 318.79 C 490.06 319.55 479.76 320.57 469.84 322.86 C 463.27 324.33 456.86 326.35 450.37 328.10 C 447.70 327.71 445.32 326.85 442.66 327.64 C 437.96 328.96 433.42 331.03 428.97 333.02 C 424.08 335.33 418.74 335.62 413.68 337.57 C 415.19 336.19 416.64 334.82 418.25 333.54 C 421.97 331.11 425.86 328.92 429.75 326.76 C 430.80 326.95 431.84 327.15 432.89 327.33 C 436.08 324.47 439.39 324.03 443.54 323.77 C 443.19 323.22 442.85 322.68 442.50 322.14 C 448.92 321.53 455.27 320.74 461.57 319.34 C 466.67 318.17 471.77 318.78 476.89 317.93 C 480.26 317.36 483.57 317.02 486.99 316.87 C 492.53 316.65 497.71 315.49 503.27 316.31 Z" fill="#e67510" />
<path d="M 500.20 318.79 C 508.42 318.61 516.63 318.58 524.85 318.84 C 532.44 319.54 540.08 320.19 547.60 321.44 C 557.91 323.12 568.18 326.59 578.06 329.97 C 587.09 333.36 596.22 337.39 604.04 343.11 C 596.92 341.28 590.72 337.79 583.89 335.14 C 567.59 328.19 550.57 324.88 533.01 323.09 C 525.31 322.24 517.73 322.38 510.00 322.36 C 488.88 322.32 467.83 325.74 447.95 332.93 C 440.92 335.33 433.93 337.72 427.22 340.94 C 426.33 340.24 425.43 339.55 424.53 338.87 C 433.06 335.05 441.52 331.17 450.37 328.10 C 456.86 326.35 463.27 324.33 469.84 322.86 C 479.76 320.57 490.06 319.55 500.20 318.79 Z" fill="#590400" />
<path d="M 510.00 322.36 C 517.73 322.38 525.31 322.24 533.01 323.09 C 550.57 324.88 567.59 328.19 583.89 335.14 C 590.72 337.79 596.92 341.28 604.04 343.11 C 625.05 355.80 643.80 371.71 658.72 391.28 C 667.29 402.09 674.62 413.57 680.61 426.01 C 685.09 435.77 688.72 445.87 691.90 456.12 C 696.56 474.13 699.74 492.33 699.47 511.00 C 699.57 529.27 696.88 547.27 692.08 564.88 C 690.13 572.81 687.31 580.42 684.08 587.91 C 679.30 599.58 672.10 610.61 664.98 620.97 C 650.87 639.74 634.40 656.93 614.70 669.88 C 610.65 672.03 606.79 674.44 602.80 676.67 C 574.48 691.82 542.05 699.38 510.00 699.19 C 493.90 698.61 477.90 696.44 462.27 692.55 C 449.63 688.94 437.31 684.53 425.72 678.27 C 412.66 671.06 400.21 663.95 388.84 654.18 C 380.27 646.80 372.13 638.78 365.15 629.86 C 358.55 621.84 352.44 613.59 347.69 604.31 C 339.63 589.41 333.47 573.30 330.12 556.67 C 327.90 546.59 325.92 536.50 324.84 526.23 C 324.49 514.02 324.15 502.03 325.95 489.90 C 327.74 477.66 329.53 465.09 333.23 453.26 C 335.06 448.09 337.04 442.98 338.82 437.80 C 344.41 422.04 352.77 407.92 362.24 394.22 C 366.13 388.44 371.15 383.91 375.81 378.80 C 386.83 366.56 400.73 356.35 414.68 347.70 C 418.71 345.18 422.91 342.94 427.22 340.94 C 433.93 337.72 440.92 335.33 447.95 332.93 C 467.83 325.74 488.88 322.32 510.00 322.36 Z" fill="#000000" />
<path d="M 404.33 324.93 C 405.54 325.64 406.74 326.34 407.95 327.03 C 403.22 329.77 398.81 333.08 394.20 336.03 C 389.40 338.08 385.20 341.00 380.90 343.91 C 380.60 343.22 380.31 342.53 380.01 341.84 C 387.70 335.62 395.77 329.89 404.33 324.93 Z" fill="#ce701a" />
<path d="M 412.72 326.34 C 414.08 326.71 415.15 328.18 416.15 329.12 L 415.87 330.96 C 410.88 334.36 405.48 337.04 400.50 340.48 C 393.39 345.38 386.53 350.58 380.46 356.76 C 374.06 362.61 367.73 368.47 362.15 375.13 C 352.13 386.81 342.33 399.41 334.97 412.96 C 330.35 421.41 325.88 430.09 322.06 438.93 C 319.62 444.49 318.85 450.08 315.48 455.24 C 315.28 451.17 315.70 447.62 316.84 443.71 C 321.14 428.10 327.28 412.76 335.31 398.69 C 336.48 396.87 337.74 395.11 339.01 393.36 C 344.87 385.62 350.70 377.39 357.36 370.32 C 362.14 365.95 366.68 361.41 370.87 356.47 C 375.72 351.75 380.69 347.19 386.10 343.11 C 388.99 340.95 391.61 338.53 394.20 336.03 C 398.81 333.08 403.22 329.77 407.95 327.03 C 409.46 326.64 411.16 326.20 412.72 326.34 Z" fill="#f7f4f0" />
<path d="M 416.40 327.06 C 417.01 329.22 417.63 331.38 418.25 333.54 C 416.64 334.82 415.19 336.19 413.68 337.57 C 418.74 335.62 424.08 335.33 428.97 333.02 C 433.42 331.03 437.96 328.96 442.66 327.64 C 445.32 326.85 447.70 327.71 450.37 328.10 C 441.52 331.17 433.06 335.05 424.53 338.87 C 421.31 340.11 418.30 341.76 415.32 343.48 C 401.86 350.52 389.50 360.07 379.07 371.10 C 377.35 370.93 375.62 370.76 373.90 370.59 C 376.52 367.34 381.72 363.94 382.06 359.58 L 382.18 358.83 C 389.84 350.66 400.42 345.06 409.42 338.43 C 411.96 336.41 415.54 334.54 415.87 330.96 L 416.15 329.12 L 416.40 327.06 Z" fill="#e25f03" />
<path d="M 415.87 330.96 C 415.54 334.54 411.96 336.41 409.42 338.43 C 400.42 345.06 389.84 350.66 382.18 358.83 C 381.62 358.13 381.05 357.44 380.46 356.76 C 386.53 350.58 393.39 345.38 400.50 340.48 C 405.48 337.04 410.88 334.36 415.87 330.96 Z" fill="#ebb26f" />
<path d="M 530.52 331.68 C 549.68 333.42 569.63 337.44 587.05 345.84 C 586.37 345.81 585.69 345.80 585.00 345.80 C 584.90 347.19 584.87 348.57 584.85 349.96 C 576.80 346.78 568.93 343.43 560.47 341.47 C 539.73 335.98 518.31 334.70 496.96 336.30 C 487.52 336.74 477.97 338.76 468.73 340.69 C 458.52 342.82 449.02 346.45 439.37 350.37 C 427.53 355.13 416.38 362.55 406.22 370.22 C 401.65 373.70 397.01 376.84 392.95 380.95 C 388.37 385.55 383.77 389.62 379.78 394.76 C 374.35 401.83 368.84 408.71 364.60 416.60 C 358.76 426.33 354.18 436.63 350.28 447.28 C 346.77 455.98 344.38 464.98 342.20 474.09 C 342.11 472.02 341.91 469.98 341.71 467.91 C 340.69 471.61 339.96 475.37 339.34 479.15 C 338.23 485.90 336.15 492.04 336.15 498.97 C 336.11 506.77 336.45 514.50 335.48 522.27 C 335.16 518.50 334.58 514.79 334.60 511.00 C 334.68 490.79 336.98 470.98 343.86 451.89 C 353.28 422.33 370.69 395.47 393.80 374.79 C 402.70 366.34 412.84 359.59 423.40 353.41 C 434.70 346.92 446.66 341.98 459.08 338.09 C 482.55 331.17 506.23 330.26 530.52 331.68 Z" fill="#ae3500" />
<path d="M 394.20 336.03 C 391.61 338.53 388.99 340.95 386.10 343.11 C 380.69 347.19 375.72 351.75 370.87 356.47 C 371.43 354.92 371.89 353.35 372.42 351.78 C 373.93 350.24 375.45 348.70 376.94 347.14 C 375.87 347.12 374.80 347.11 373.73 347.13 C 375.82 345.36 377.90 343.58 380.01 341.84 C 380.31 342.53 380.60 343.22 380.90 343.91 C 385.20 341.00 389.40 338.08 394.20 336.03 Z" fill="#ed983a" />
<path d="M 496.96 336.30 C 518.31 334.70 539.73 335.98 560.47 341.47 C 568.93 343.43 576.80 346.78 584.85 349.96 C 596.63 354.53 606.22 361.51 616.74 368.26 C 625.23 375.01 633.04 382.64 640.38 390.61 C 652.49 404.12 662.26 419.84 669.54 436.44 C 672.57 443.61 675.19 450.98 677.86 458.29 C 681.21 470.43 684.29 482.47 685.52 495.04 C 689.51 536.04 678.71 578.16 654.71 611.71 C 649.59 618.77 643.56 625.23 637.59 631.58 C 630.38 639.33 621.80 645.94 613.51 652.52 C 590.05 669.48 561.91 681.02 533.00 683.83 C 501.26 687.13 469.10 683.03 440.04 669.51 C 421.72 661.07 404.87 649.67 390.49 635.51 C 385.37 630.58 380.47 625.50 376.23 619.78 C 369.93 611.07 363.50 602.90 358.92 593.09 C 354.72 584.08 350.57 574.93 347.52 565.47 C 341.24 543.10 337.00 519.82 339.31 496.52 C 339.85 488.99 340.78 481.50 342.20 474.09 C 344.38 464.98 346.77 455.98 350.28 447.28 C 354.18 436.63 358.76 426.33 364.60 416.60 C 368.84 408.71 374.35 401.83 379.78 394.76 C 383.77 389.62 388.37 385.55 392.95 380.95 C 397.01 376.84 401.65 373.70 406.22 370.22 C 416.38 362.55 427.53 355.13 439.37 350.37 C 449.02 346.45 458.52 342.82 468.73 340.69 C 477.97 338.76 487.52 336.74 496.96 336.30 Z" fill="#000000" />
<path d="M 424.53 338.87 C 425.43 339.55 426.33 340.24 427.22 340.94 C 422.91 342.94 418.71 345.18 414.68 347.70 C 400.73 356.35 386.83 366.56 375.81 378.80 C 371.15 383.91 366.13 388.44 362.24 394.22 C 352.77 407.92 344.41 422.04 338.82 437.80 C 337.04 442.98 335.06 448.09 333.23 453.26 C 332.73 451.78 332.23 450.31 331.71 448.84 C 334.21 441.93 336.38 434.88 339.03 428.02 C 341.55 421.50 344.78 415.34 348.23 409.26 C 352.06 403.01 356.71 396.99 361.10 391.13 C 365.06 385.84 369.51 380.66 374.60 376.43 C 376.69 375.29 378.67 374.07 380.32 372.32 C 388.44 363.96 397.25 356.34 407.24 350.27 C 410.38 348.15 413.63 347.10 415.32 343.48 C 418.30 341.76 421.31 340.11 424.53 338.87 Z" fill="#701a01" />
<path d="M 415.32 343.48 C 413.63 347.10 410.38 348.15 407.24 350.27 C 397.25 356.34 388.44 363.96 380.32 372.32 C 378.67 374.07 376.69 375.29 374.60 376.43 C 376.09 374.65 377.51 372.82 379.07 371.10 C 389.50 360.07 401.86 350.52 415.32 343.48 Z" fill="#560c00" />
<path d="M 585.00 345.80 C 585.69 345.80 586.37 345.81 587.05 345.84 C 597.96 351.05 608.78 357.11 618.26 364.66 C 616.86 364.47 615.45 364.33 614.05 364.21 C 614.90 365.59 615.78 366.95 616.74 368.26 C 606.22 361.51 596.63 354.53 584.85 349.96 C 584.87 348.57 584.90 347.19 585.00 345.80 Z" fill="#bc4800" />
<path d="M 373.73 347.13 C 374.80 347.11 375.87 347.12 376.94 347.14 C 375.45 348.70 373.93 350.24 372.42 351.78 C 368.03 355.47 363.81 358.99 360.95 364.06 C 360.35 363.29 359.73 362.53 359.09 361.78 C 363.52 356.49 368.39 351.51 373.73 347.13 Z" fill="#cf7a3f" />
<path d="M 328.46 352.81 C 324.96 355.43 322.36 358.37 320.00 362.02 C 311.52 374.56 302.45 387.06 295.55 400.55 C 293.67 403.99 293.40 407.23 293.76 411.08 C 292.14 410.13 290.42 409.18 289.25 407.67 C 289.08 405.71 290.06 403.60 290.82 401.83 C 292.73 397.69 294.99 393.66 297.53 389.87 C 302.54 385.76 304.49 380.31 308.20 375.20 C 311.02 370.89 314.47 367.90 315.44 362.62 C 317.47 359.22 319.69 355.22 322.89 352.81 C 324.29 351.66 326.81 352.64 328.46 352.81 Z" fill="#df6d1c" />
<path d="M 372.42 351.78 C 371.89 353.35 371.43 354.92 370.87 356.47 C 366.68 361.41 362.14 365.95 357.36 370.32 C 358.67 368.28 359.80 366.20 360.95 364.06 C 363.81 358.99 368.03 355.47 372.42 351.78 Z" fill="#f3c075" />
<path d="M 328.46 352.81 C 334.29 353.45 339.90 355.58 340.62 362.15 C 341.46 366.92 337.75 368.90 335.17 372.17 C 329.22 379.32 323.89 387.07 318.95 394.95 C 314.95 401.30 311.84 408.08 308.22 414.63 C 303.07 414.46 298.18 413.98 293.76 411.08 C 293.40 407.23 293.67 403.99 295.55 400.55 C 302.45 387.06 311.52 374.56 320.00 362.02 C 322.36 358.37 324.96 355.43 328.46 352.81 Z" fill="#ecf4f3" />
<path d="M 698.92 353.68 C 705.41 363.05 711.77 372.52 717.84 382.17 C 721.88 388.48 726.72 394.93 730.00 401.95 C 731.08 404.32 731.33 406.77 731.60 409.33 C 728.41 411.41 725.62 413.48 721.66 413.76 C 719.58 413.86 716.93 414.34 715.39 412.59 C 711.35 408.63 708.87 402.88 705.90 398.10 C 701.12 390.43 696.75 382.89 691.11 375.89 C 688.54 372.39 685.26 368.95 683.54 364.96 C 683.10 361.74 684.72 357.42 687.29 355.36 C 690.47 353.11 695.21 353.09 698.92 353.68 Z" fill="#e8f2f4" />
<path d="M 698.92 353.68 C 702.06 354.51 703.92 356.70 705.92 359.06 C 713.23 368.20 719.59 378.49 725.50 388.51 C 729.08 394.80 732.91 400.57 734.67 407.70 C 733.64 408.23 732.62 408.77 731.60 409.33 C 731.33 406.77 731.08 404.32 730.00 401.95 C 726.72 394.93 721.88 388.48 717.84 382.17 C 711.77 372.52 705.41 363.05 698.92 353.68 Z" fill="#e65604" />
<path d="M 380.46 356.76 C 381.05 357.44 381.62 358.13 382.18 358.83 L 382.06 359.58 C 376.27 364.58 371.17 370.39 366.39 376.33 C 359.49 386.25 352.91 396.37 346.90 406.85 C 342.34 414.84 337.76 422.96 334.42 431.54 C 331.98 437.59 328.87 443.05 325.73 448.74 C 323.30 452.11 323.01 454.46 323.18 458.53 C 322.53 458.58 321.89 458.62 321.24 458.66 C 320.82 462.45 319.97 466.22 319.81 470.02 C 319.87 473.59 320.48 477.13 320.46 480.71 C 318.08 482.85 316.11 485.32 314.32 487.98 C 315.86 490.50 318.29 493.74 318.12 496.80 C 318.14 499.05 315.80 499.62 314.28 500.69 C 314.51 504.27 314.42 507.56 313.09 510.95 C 314.03 512.07 314.97 513.18 315.92 514.29 C 314.96 515.26 313.99 516.23 313.03 517.21 C 311.92 516.18 310.80 515.15 309.68 514.12 C 309.20 515.83 308.71 517.54 308.23 519.25 C 310.23 519.10 312.22 518.94 314.22 518.77 C 314.35 525.25 313.57 531.69 313.55 538.17 C 312.30 536.10 311.05 534.03 309.81 531.95 C 310.09 538.98 310.73 545.98 311.22 552.99 C 312.42 553.03 313.61 553.07 314.81 553.11 C 315.75 551.74 316.71 550.39 317.65 549.02 C 318.10 550.55 318.56 552.08 319.01 553.61 C 316.10 554.34 313.39 555.28 310.69 556.59 C 311.80 557.93 312.92 559.25 314.04 560.58 C 312.39 560.19 310.73 559.79 309.07 559.41 C 309.09 560.63 309.11 561.84 309.12 563.06 C 310.06 563.21 311.00 563.36 311.93 563.53 C 312.82 569.89 312.26 575.78 314.18 581.97 C 316.62 590.03 319.21 598.39 323.22 605.81 C 326.25 611.47 328.93 617.27 332.40 622.69 C 333.85 624.94 334.33 626.71 334.41 629.37 C 331.69 625.37 329.24 621.27 327.03 616.98 C 323.35 609.81 319.53 602.81 316.60 595.28 C 312.37 585.03 309.98 574.73 307.13 563.98 C 303.74 549.12 301.77 533.89 300.56 518.70 C 299.87 505.29 300.15 491.63 302.20 478.35 C 306.25 450.87 313.25 424.67 327.69 400.70 C 328.15 401.29 328.62 401.87 329.09 402.46 C 330.97 400.65 332.65 399.17 335.31 398.69 C 327.28 412.76 321.14 428.10 316.84 443.71 C 315.70 447.62 315.28 451.17 315.48 455.24 C 318.85 450.08 319.62 444.49 322.06 438.93 C 325.88 430.09 330.35 421.41 334.97 412.96 C 342.33 399.41 352.13 386.81 362.15 375.13 C 367.73 368.47 374.06 362.61 380.46 356.76 Z" fill="#ee811e" />
<path d="M 382.06 359.58 C 381.72 363.94 376.52 367.34 373.90 370.59 C 375.62 370.76 377.35 370.93 379.07 371.10 C 377.51 372.82 376.09 374.65 374.60 376.43 C 369.51 380.66 365.06 385.84 361.10 391.13 C 356.71 396.99 352.06 403.01 348.23 409.26 C 347.80 408.45 347.35 407.64 346.90 406.85 C 352.91 396.37 359.49 386.25 366.39 376.33 C 371.17 370.39 376.27 364.58 382.06 359.58 Z" fill="#d24900" />
<path d="M 359.09 361.78 C 359.73 362.53 360.35 363.29 360.95 364.06 C 359.80 366.20 358.67 368.28 357.36 370.32 C 350.70 377.39 344.87 385.62 339.01 393.36 C 338.66 392.59 338.31 391.81 337.97 391.02 C 341.85 384.84 346.57 379.10 350.89 373.19 C 353.43 369.83 355.94 366.46 358.14 362.87 L 359.09 361.78 Z" fill="#ed9f47" />
<path d="M 315.44 362.62 C 314.47 367.90 311.02 370.89 308.20 375.20 C 304.49 380.31 302.54 385.76 297.53 389.87 C 302.52 380.12 308.32 370.97 315.44 362.62 Z" fill="#d6965e" />
<path d="M 358.14 362.87 C 355.94 366.46 353.43 369.83 350.89 373.19 C 350.47 372.09 350.04 370.99 349.60 369.89 C 352.06 366.60 354.23 364.39 358.14 362.87 Z" fill="#742d16" />
<path d="M 614.05 364.21 C 615.45 364.33 616.86 364.47 618.26 364.66 C 630.06 373.70 641.05 384.05 650.31 395.69 C 661.39 410.45 671.78 427.02 677.93 444.49 C 678.37 449.16 678.93 453.65 677.86 458.29 C 675.19 450.98 672.57 443.61 669.54 436.44 C 662.26 419.84 652.49 404.12 640.38 390.61 C 633.04 382.64 625.23 375.01 616.74 368.26 C 615.78 366.95 614.90 365.59 614.05 364.21 Z" fill="#eb7605" />
<path d="M 349.60 369.89 C 350.04 370.99 350.47 372.09 350.89 373.19 C 346.57 379.10 341.85 384.84 337.97 391.02 L 337.92 390.06 C 338.39 387.88 338.94 385.72 339.21 383.50 C 342.28 378.65 345.92 374.27 349.60 369.89 Z" fill="#aa551c" />
<path d="M 504.96 379.36 C 515.33 379.16 525.28 378.76 535.46 381.15 C 529.28 382.55 523.31 381.76 517.10 381.37 C 517.78 382.10 518.47 382.82 519.17 383.54 C 524.98 382.97 530.51 382.49 536.10 384.62 C 531.53 384.38 527.02 383.94 522.44 384.31 C 525.47 387.12 528.88 386.51 532.67 386.71 C 529.28 389.81 528.22 393.21 527.40 397.59 C 528.64 397.76 529.87 397.93 531.11 398.10 C 531.68 399.06 532.26 400.01 532.84 400.96 C 531.28 401.49 529.71 402.02 528.15 402.54 C 528.23 406.63 528.47 410.71 528.80 414.78 C 526.73 415.19 524.65 415.61 522.58 416.06 C 525.43 416.73 528.30 417.19 531.20 417.56 C 523.38 418.23 515.57 417.50 507.74 418.30 C 500.33 418.16 493.07 418.47 485.69 419.23 C 478.42 418.69 471.44 419.98 464.27 420.84 C 463.58 420.04 462.89 419.24 462.20 418.44 C 461.87 419.74 461.55 421.03 461.22 422.33 C 460.39 421.49 459.57 420.65 458.74 419.82 C 460.71 414.12 463.22 408.85 467.55 404.55 C 476.83 395.31 488.92 388.74 501.44 385.10 C 505.32 384.61 509.17 384.01 512.93 382.93 C 506.21 380.56 499.44 381.17 492.63 382.73 C 488.51 383.62 484.42 384.76 480.46 386.19 C 479.56 385.64 478.65 385.11 477.73 384.58 C 486.52 381.70 495.67 379.48 504.96 379.36 Z" fill="#f87b20" />
<path d="M 517.10 381.37 C 523.31 381.76 529.28 382.55 535.46 381.15 C 539.92 381.83 544.11 383.27 548.33 384.81 C 547.65 385.43 546.98 386.06 546.31 386.70 C 560.59 395.57 571.37 409.43 574.93 426.01 C 571.95 424.39 568.75 423.76 565.43 423.29 C 555.14 421.94 545.07 419.85 534.65 419.49 C 525.68 418.78 516.70 419.26 507.74 418.30 C 515.57 417.50 523.38 418.23 531.20 417.56 C 528.30 417.19 525.43 416.73 522.58 416.06 C 524.65 415.61 526.73 415.19 528.80 414.78 C 528.47 410.71 528.23 406.63 528.15 402.54 C 529.71 402.02 531.28 401.49 532.84 400.96 C 532.26 400.01 531.68 399.06 531.11 398.10 C 529.87 397.93 528.64 397.76 527.40 397.59 C 528.22 393.21 529.28 389.81 532.67 386.71 C 528.88 386.51 525.47 387.12 522.44 384.31 C 527.02 383.94 531.53 384.38 536.10 384.62 C 530.51 382.49 524.98 382.97 519.17 383.54 C 518.47 382.82 517.78 382.10 517.10 381.37 Z" fill="#f67419" />
<path d="M 512.93 382.93 C 509.17 384.01 505.32 384.61 501.44 385.10 C 498.46 384.40 495.60 383.47 492.63 382.73 C 499.44 381.17 506.21 380.56 512.93 382.93 Z" fill="#f7e3be" />
<path d="M 492.63 382.73 C 495.60 383.47 498.46 384.40 501.44 385.10 C 488.92 388.74 476.83 395.31 467.55 404.55 C 463.22 408.85 460.71 414.12 458.74 419.82 C 457.91 421.12 457.39 422.40 455.77 422.88 C 451.49 424.30 446.75 424.69 442.30 425.29 C 443.10 422.57 443.94 419.92 445.48 417.51 C 451.56 408.01 459.51 400.32 468.20 393.22 C 471.96 390.31 476.10 388.06 480.46 386.19 C 484.42 384.76 488.51 383.62 492.63 382.73 Z" fill="#f5ecdf" />
<path d="M 339.21 383.50 C 338.94 385.72 338.39 387.88 337.92 390.06 L 337.97 391.02 C 338.31 391.81 338.66 392.59 339.01 393.36 C 337.74 395.11 336.48 396.87 335.31 398.69 C 332.65 399.17 330.97 400.65 329.09 402.46 C 328.62 401.87 328.15 401.29 327.69 400.70 C 331.29 394.80 335.12 389.06 339.21 383.50 Z" fill="#d66916" />
<path d="M 477.73 384.58 C 478.65 385.11 479.56 385.64 480.46 386.19 C 476.10 388.06 471.96 390.31 468.20 393.22 C 459.51 400.32 451.56 408.01 445.48 417.51 C 443.94 419.92 443.10 422.57 442.30 425.29 C 446.75 424.69 451.49 424.30 455.77 422.88 C 457.39 422.40 457.91 421.12 458.74 419.82 C 459.57 420.65 460.39 421.49 461.22 422.33 C 461.55 421.03 461.87 419.74 462.20 418.44 C 462.89 419.24 463.58 420.04 464.27 420.84 C 471.44 419.98 478.42 418.69 485.69 419.23 C 489.54 420.14 493.07 422.12 496.94 422.87 C 501.35 423.27 505.78 422.80 510.20 423.33 C 503.69 424.32 497.22 423.27 490.73 424.77 C 475.13 426.34 460.22 427.33 444.97 431.98 C 438.83 434.11 432.40 436.08 426.74 439.31 C 426.24 432.80 430.65 427.70 433.28 421.92 C 433.96 422.13 434.64 422.33 435.31 422.54 C 437.59 418.91 440.73 414.97 441.66 410.77 C 441.17 409.71 440.64 408.66 440.09 407.62 C 445.44 402.12 451.46 396.93 458.26 393.30 C 464.68 389.93 470.69 386.53 477.73 384.58 Z" fill="#f77313" />
<path d="M 548.33 384.81 C 555.58 387.35 562.61 390.93 569.30 394.71 C 585.35 403.55 598.64 417.88 607.95 433.53 C 607.62 437.00 607.83 440.38 608.40 443.81 C 607.15 443.69 605.91 443.56 604.66 443.41 C 603.26 442.43 601.87 441.42 600.52 440.36 C 599.53 438.99 598.78 437.63 597.16 436.89 C 591.47 433.95 585.10 432.13 579.26 429.67 C 577.38 428.91 576.21 427.49 574.93 426.01 C 571.37 409.43 560.59 395.57 546.31 386.70 C 546.98 386.06 547.65 385.43 548.33 384.81 Z" fill="#ed4a00" />
<path d="M 456.86 398.73 C 454.04 402.80 450.81 406.19 446.71 408.99 C 449.12 404.42 452.48 401.37 456.86 398.73 Z" fill="#f89d39" />
<path d="M 346.90 406.85 C 347.35 407.64 347.80 408.45 348.23 409.26 C 344.78 415.34 341.55 421.50 339.03 428.02 C 336.38 434.88 334.21 441.93 331.71 448.84 C 329.82 454.19 328.37 459.72 327.13 465.26 C 325.98 465.38 324.83 465.50 323.68 465.62 C 324.68 460.01 325.65 454.46 325.73 448.74 C 328.87 443.05 331.98 437.59 334.42 431.54 C 337.76 422.96 342.34 414.84 346.90 406.85 Z" fill="#e26505" />
<path d="M 440.09 407.62 C 440.64 408.66 441.17 409.71 441.66 410.77 C 438.57 413.97 435.43 417.13 432.45 420.44 C 429.28 423.96 427.14 427.95 424.87 432.07 C 421.82 437.10 418.30 441.82 414.36 446.19 C 414.23 444.66 414.11 443.14 413.98 441.61 C 419.60 434.55 423.67 426.60 429.63 419.84 C 432.28 417.97 433.47 416.63 434.80 413.64 C 436.46 411.55 438.21 409.53 440.09 407.62 Z" fill="#e8701c" />
<path d="M 441.66 410.77 C 440.73 414.97 437.59 418.91 435.31 422.54 C 434.64 422.33 433.96 422.13 433.28 421.92 C 430.65 427.70 426.24 432.80 426.74 439.31 C 426.13 439.70 425.53 440.10 424.93 440.50 C 424.66 437.69 424.60 434.88 424.87 432.07 C 427.14 427.95 429.28 423.96 432.45 420.44 C 435.43 417.13 438.57 413.97 441.66 410.77 Z" fill="#f59e46" />
<path d="M 434.80 413.64 C 433.47 416.63 432.28 417.97 429.63 419.84 C 431.27 417.68 432.97 415.64 434.80 413.64 Z" fill="#c08057" />
<path d="M 507.74 418.30 C 516.70 419.26 525.68 418.78 534.65 419.49 C 545.07 419.85 555.14 421.94 565.43 423.29 C 568.75 423.76 571.95 424.39 574.93 426.01 C 576.21 427.49 577.38 428.91 579.26 429.67 C 585.10 432.13 591.47 433.95 597.16 436.89 C 598.78 437.63 599.53 438.99 600.52 440.36 C 590.27 435.32 579.77 431.73 568.51 429.72 C 556.79 427.65 544.92 425.90 533.03 425.31 C 519.02 424.08 504.79 424.62 490.73 424.77 C 497.22 423.27 503.69 424.32 510.20 423.33 C 505.78 422.80 501.35 423.27 496.94 422.87 C 493.07 422.12 489.54 420.14 485.69 419.23 C 493.07 418.47 500.33 418.16 507.74 418.30 Z" fill="#f16913" />
<path d="M 303.21 426.82 C 304.28 428.91 302.92 432.02 302.38 434.14 C 296.75 450.47 293.30 467.47 291.71 484.65 C 291.14 490.33 291.56 496.16 290.64 501.77 C 290.25 504.63 287.75 506.29 285.27 507.26 C 280.02 509.18 273.41 508.49 268.92 505.07 C 267.20 503.80 267.31 502.01 267.12 500.07 C 266.74 481.86 269.15 463.71 274.22 446.21 C 276.42 439.02 278.02 431.20 281.54 424.53 C 283.14 420.88 288.33 420.79 291.72 420.32 C 296.68 419.54 300.81 422.77 303.21 426.82 Z" fill="#ed7e1c" />
<path d="M 736.67 420.64 C 739.12 424.44 742.00 427.33 743.23 431.81 C 748.28 448.55 751.59 465.92 753.48 483.30 C 754.41 490.83 754.30 498.02 756.04 505.42 C 754.79 506.13 753.51 506.81 752.15 507.30 C 749.95 507.26 747.78 507.11 745.58 506.97 C 745.52 503.90 745.35 500.84 745.13 497.77 C 744.43 497.93 743.73 498.09 743.03 498.25 C 741.35 493.62 739.67 489.15 738.86 484.27 C 737.96 479.40 738.21 474.93 735.27 470.68 C 735.35 473.55 735.59 476.39 735.94 479.24 C 734.82 479.15 733.69 479.06 732.56 478.97 C 730.50 465.90 727.72 452.97 723.58 440.39 C 722.37 436.36 720.55 432.17 720.20 427.96 C 719.82 425.30 722.23 423.46 724.09 422.00 C 727.35 419.36 732.77 420.35 736.67 420.64 Z" fill="#d9670e" />
<path d="M 736.67 420.64 C 739.22 421.16 742.64 421.35 744.00 423.94 C 745.59 426.92 746.42 430.35 747.45 433.55 C 753.60 454.74 758.25 475.95 759.09 498.07 C 759.13 501.49 758.80 503.23 756.04 505.42 C 754.30 498.02 754.41 490.83 753.48 483.30 C 751.59 465.92 748.28 448.55 743.23 431.81 C 742.00 427.33 739.12 424.44 736.67 420.64 Z" fill="#ca4403" />
<path d="M 681.12 424.18 C 681.68 424.45 682.23 424.72 682.78 425.00 C 683.62 426.53 684.34 428.15 685.06 429.73 C 686.13 429.05 687.19 428.37 688.25 427.68 C 691.53 430.03 695.17 432.15 697.34 435.66 C 699.22 438.63 700.97 441.75 702.64 444.85 C 705.21 449.72 704.15 455.26 706.63 459.90 C 708.01 462.50 709.37 465.10 710.57 467.80 C 711.27 467.46 711.96 467.13 712.66 466.79 C 713.38 467.55 714.09 468.30 714.80 469.05 C 714.61 465.61 714.60 462.17 714.54 458.73 C 715.30 460.97 716.20 463.15 716.97 465.38 C 718.18 473.25 718.90 481.16 719.84 489.06 C 720.92 497.56 720.35 506.02 720.85 514.59 C 719.49 533.64 716.51 552.74 711.05 571.06 C 705.92 587.13 698.69 602.45 689.73 616.73 C 687.87 619.66 686.07 622.61 684.54 625.72 C 675.62 637.71 666.57 649.38 655.52 659.52 C 637.00 676.19 617.04 690.80 594.38 701.36 C 580.68 708.08 566.45 711.85 551.76 715.70 C 517.11 723.01 480.76 720.52 446.90 710.53 C 447.05 708.50 447.16 706.47 447.23 704.43 C 446.12 705.16 445.02 705.89 443.92 706.63 C 440.13 703.14 435.67 700.88 432.29 696.94 C 430.16 696.87 428.03 696.83 425.90 696.80 C 427.79 696.24 429.69 695.69 431.58 695.14 C 431.25 694.34 430.92 693.54 430.58 692.74 C 435.87 693.95 441.12 692.57 446.34 693.90 C 451.04 694.95 455.83 694.54 460.52 695.58 C 464.04 696.37 467.55 696.96 471.16 697.11 C 467.12 695.71 462.97 694.65 458.92 693.27 C 460.03 693.02 461.15 692.78 462.27 692.55 C 477.90 696.44 493.90 698.61 510.00 699.19 C 542.05 699.38 574.48 691.82 602.80 676.67 C 605.70 677.67 608.62 678.60 611.60 679.35 C 610.86 678.31 610.12 677.27 609.37 676.24 C 615.26 677.27 619.78 674.85 625.19 673.19 C 627.72 672.40 629.38 673.96 631.52 675.03 C 634.36 672.46 637.35 670.01 639.98 667.22 C 642.75 664.33 644.01 659.88 644.93 656.10 C 643.96 655.63 642.98 655.19 642.00 654.79 C 650.01 648.22 656.53 639.97 663.03 632.01 C 673.09 619.36 680.91 605.32 686.27 590.06 C 689.79 581.96 691.79 573.49 694.10 565.00 C 698.25 552.81 699.36 540.73 700.80 527.96 C 701.59 514.92 702.44 502.59 700.89 489.67 C 699.53 481.95 697.70 474.33 696.27 466.63 C 695.43 461.91 694.18 457.36 692.19 452.99 C 692.09 454.03 691.99 455.08 691.90 456.12 C 688.72 445.87 685.09 435.77 680.61 426.01 L 681.12 424.18 Z" fill="#f37f11" />
<path d="M 286.30 424.60 C 285.04 431.32 282.48 437.89 280.38 444.40 C 277.63 452.21 276.02 460.16 274.22 468.23 C 271.75 479.72 270.25 491.31 270.13 503.08 C 267.99 494.41 269.87 484.45 270.76 475.62 C 272.29 461.18 275.79 447.12 280.36 433.37 C 281.77 429.81 282.22 426.01 286.30 424.60 Z" fill="#f5eee8" />
<path d="M 424.87 432.07 C 424.60 434.88 424.66 437.69 424.93 440.50 C 419.05 444.42 414.00 448.82 411.73 455.76 C 409.92 461.98 408.13 468.54 408.13 475.05 C 406.32 471.72 406.33 468.68 406.61 464.99 C 404.20 470.58 402.81 476.32 401.96 482.34 C 400.99 476.82 401.86 471.99 403.83 466.83 C 407.00 458.50 408.71 448.74 413.98 441.61 C 414.11 443.14 414.23 444.66 414.36 446.19 C 418.30 441.82 421.82 437.10 424.87 432.07 Z" fill="#f9941f" />
<path d="M 607.95 433.53 C 612.27 440.18 616.03 447.19 619.83 454.15 C 627.14 468.91 626.89 487.56 623.46 503.35 C 621.16 516.77 619.43 531.26 621.65 544.75 C 621.17 545.49 620.69 546.24 620.20 546.98 C 619.66 543.35 619.18 539.72 619.10 536.05 C 618.94 532.50 619.18 528.54 617.66 525.27 C 616.43 522.77 615.40 520.42 612.57 519.47 C 613.45 513.79 616.93 508.37 617.45 502.44 C 617.58 500.53 617.20 498.49 616.97 496.59 C 617.57 490.31 619.06 484.21 620.05 478.00 C 621.26 471.19 619.02 464.44 616.87 458.05 C 614.80 451.82 609.64 447.36 604.66 443.41 C 605.91 443.56 607.15 443.69 608.40 443.81 C 607.83 440.38 607.62 437.00 607.95 433.53 Z" fill="#f46402" />
<path d="M 710.19 434.53 C 713.80 442.97 716.24 451.78 718.20 460.73 C 717.79 462.28 717.35 463.82 716.97 465.38 C 716.20 463.15 715.30 460.97 714.54 458.73 C 713.46 453.04 711.33 447.73 709.63 442.22 C 708.68 439.52 709.37 437.15 710.19 434.53 Z" fill="#ed550e" />
<path d="M 458.65 437.22 C 459.64 438.59 460.70 439.97 461.49 441.47 C 461.82 444.97 461.09 448.50 461.68 452.03 C 463.20 462.69 464.68 473.37 466.18 484.01 C 467.04 490.40 468.84 496.08 467.67 502.60 C 462.54 505.36 457.12 507.17 451.78 509.53 C 449.28 502.90 448.32 496.11 447.05 489.19 C 445.29 479.15 443.33 469.15 441.68 459.09 C 440.83 453.48 439.41 448.07 439.06 442.38 C 445.38 439.63 451.66 437.33 458.65 437.22 Z" fill="#f5fbfb" />
<path d="M 577.18 439.10 C 576.50 439.51 575.82 439.93 575.15 440.36 C 578.17 441.23 581.55 441.82 584.32 443.35 C 585.34 445.33 584.61 448.23 584.35 450.33 C 582.12 462.11 580.85 474.37 577.70 485.93 C 576.54 490.33 574.35 494.18 572.03 498.05 C 570.24 500.98 569.66 504.16 568.92 507.44 C 565.38 505.64 561.95 504.11 558.75 501.71 C 560.24 492.33 563.55 483.44 564.77 474.03 C 565.97 466.53 566.77 459.06 568.46 451.66 C 569.46 447.44 569.45 443.26 568.76 438.99 C 571.60 438.12 574.33 438.50 577.18 439.10 Z" fill="#d7dfe6" />
<path d="M 577.18 439.10 C 581.15 439.75 584.78 441.28 588.39 442.99 C 585.75 456.48 583.43 470.04 580.60 483.50 C 578.65 492.60 577.13 501.44 574.30 510.34 C 572.51 509.37 570.73 508.37 568.92 507.44 C 569.66 504.16 570.24 500.98 572.03 498.05 C 574.35 494.18 576.54 490.33 577.70 485.93 C 580.85 474.37 582.12 462.11 584.35 450.33 C 584.61 448.23 585.34 445.33 584.32 443.35 C 581.55 441.82 578.17 441.23 575.15 440.36 C 575.82 439.93 576.50 439.51 577.18 439.10 Z" fill="#eff1f2" />
<path d="M 568.76 438.99 C 569.45 443.26 569.46 447.44 568.46 451.66 C 566.77 459.06 565.97 466.53 564.77 474.03 C 563.55 483.44 560.24 492.33 558.75 501.71 C 556.78 497.28 558.34 493.50 559.01 489.00 C 561.38 475.86 563.54 462.67 565.72 449.50 C 566.37 445.85 567.01 442.31 568.76 438.99 Z" fill="#f2f6f6" />
<path d="M 677.93 444.49 C 680.91 451.26 682.93 458.25 684.65 465.43 C 691.35 490.38 692.39 516.91 688.23 542.38 C 686.32 554.86 682.18 567.22 678.12 579.16 C 675.50 587.13 671.49 594.32 667.53 601.68 C 666.81 603.22 665.61 603.84 664.15 604.53 C 660.04 610.94 656.18 617.47 651.53 623.54 C 640.63 637.74 627.60 650.67 612.75 660.72 C 599.32 668.98 584.92 676.17 569.82 680.79 C 550.81 687.13 531.05 690.30 510.99 689.82 C 485.47 689.22 459.97 684.15 436.86 673.07 C 437.49 672.67 438.11 672.24 438.72 671.80 C 439.13 671.01 439.48 670.21 440.04 669.51 C 469.10 683.03 501.26 687.13 533.00 683.83 C 561.91 681.02 590.05 669.48 613.51 652.52 C 621.80 645.94 630.38 639.33 637.59 631.58 C 643.56 625.23 649.59 618.77 654.71 611.71 C 678.71 578.16 689.51 536.04 685.52 495.04 C 684.29 482.47 681.21 470.43 677.86 458.29 C 678.93 453.65 678.37 449.16 677.93 444.49 Z" fill="#e5800b" />
<path d="M 429.35 447.07 C 433.15 464.24 436.08 481.61 439.26 498.90 C 440.11 503.97 440.88 508.98 442.67 513.82 C 439.43 514.94 435.49 517.01 432.04 516.41 C 429.61 515.78 428.24 512.75 427.36 510.62 C 424.58 503.44 423.67 495.23 422.45 487.65 C 421.24 478.48 419.61 469.24 419.19 460.00 C 418.85 454.61 423.51 452.11 427.01 449.02 C 427.79 448.37 428.57 447.72 429.35 447.07 Z" fill="#f6fbfb" />
<path d="M 325.73 448.74 C 325.65 454.46 324.68 460.01 323.68 465.62 C 324.83 465.50 325.98 465.38 327.13 465.26 C 325.07 475.31 323.54 485.73 323.55 496.00 C 323.54 506.16 323.32 516.14 324.84 526.23 C 325.92 536.50 327.90 546.59 330.12 556.67 C 333.47 573.30 339.63 589.41 347.69 604.31 C 352.44 613.59 358.55 621.84 365.15 629.86 C 372.13 638.78 380.27 646.80 388.84 654.18 C 400.21 663.95 412.66 671.06 425.72 678.27 C 437.31 684.53 449.63 688.94 462.27 692.55 C 461.15 692.78 460.03 693.02 458.92 693.27 C 462.97 694.65 467.12 695.71 471.16 697.11 C 467.55 696.96 464.04 696.37 460.52 695.58 C 455.83 694.54 451.04 694.95 446.34 693.90 C 441.12 692.57 435.87 693.95 430.58 692.74 C 430.92 693.54 431.25 694.34 431.58 695.14 C 429.69 695.69 427.79 696.24 425.90 696.80 C 428.03 696.83 430.16 696.87 432.29 696.94 C 435.67 700.88 440.13 703.14 443.92 706.63 C 445.02 705.89 446.12 705.16 447.23 704.43 C 447.16 706.47 447.05 708.50 446.90 710.53 C 440.15 708.72 433.62 706.40 427.15 703.76 C 424.48 702.65 422.47 702.43 419.61 702.80 C 402.03 693.94 385.42 683.47 370.81 670.20 C 356.96 657.85 344.04 645.42 334.41 629.37 C 334.33 626.71 333.85 624.94 332.40 622.69 C 328.93 617.27 326.25 611.47 323.22 605.81 C 319.21 598.39 316.62 590.03 314.18 581.97 C 312.26 575.78 312.82 569.89 311.93 563.53 C 311.00 563.36 310.06 563.21 309.12 563.06 C 309.11 561.84 309.09 560.63 309.07 559.41 C 310.73 559.79 312.39 560.19 314.04 560.58 C 312.92 559.25 311.80 557.93 310.69 556.59 C 313.39 555.28 316.10 554.34 319.01 553.61 C 318.56 552.08 318.10 550.55 317.65 549.02 C 316.71 550.39 315.75 551.74 314.81 553.11 C 313.61 553.07 312.42 553.03 311.22 552.99 C 310.73 545.98 310.09 538.98 309.81 531.95 C 311.05 534.03 312.30 536.10 313.55 538.17 C 313.57 531.69 314.35 525.25 314.22 518.77 C 312.22 518.94 310.23 519.10 308.23 519.25 C 308.71 517.54 309.20 515.83 309.68 514.12 C 310.80 515.15 311.92 516.18 313.03 517.21 C 313.99 516.23 314.96 515.26 315.92 514.29 C 314.97 513.18 314.03 512.07 313.09 510.95 C 314.42 507.56 314.51 504.27 314.28 500.69 C 315.80 499.62 318.14 499.05 318.12 496.80 C 318.29 493.74 315.86 490.50 314.32 487.98 C 316.11 485.32 318.08 482.85 320.46 480.71 C 320.48 477.13 319.87 473.59 319.81 470.02 C 319.97 466.22 320.82 462.45 321.24 458.66 C 321.89 458.62 322.53 458.58 323.18 458.53 C 323.01 454.46 323.30 452.11 325.73 448.74 Z" fill="#ee730d" />
<path d="M 331.71 448.84 C 332.23 450.31 332.73 451.78 333.23 453.26 C 329.53 465.09 327.74 477.66 325.95 489.90 C 324.15 502.03 324.49 514.02 324.84 526.23 C 323.32 516.14 323.54 506.16 323.55 496.00 C 323.54 485.73 325.07 475.31 327.13 465.26 C 328.37 459.72 329.82 454.19 331.71 448.84 Z" fill="#972801" />
<path d="M 596.69 448.00 C 599.80 450.31 603.02 452.51 606.01 454.97 C 607.28 456.00 608.16 457.31 608.33 458.97 C 608.76 463.42 607.96 468.26 607.33 472.67 C 605.30 485.12 603.78 498.32 600.51 510.53 C 599.70 513.70 598.07 516.18 594.97 517.47 C 590.84 517.84 586.34 515.69 582.47 514.37 C 584.47 506.00 586.03 497.52 587.97 489.13 C 591.03 475.47 593.01 461.49 596.69 448.00 Z" fill="#f4f6f6" />
<path d="M 597.89 451.51 C 600.55 453.40 603.88 455.50 605.53 458.39 C 605.90 460.22 605.60 462.24 605.41 464.08 C 603.44 477.72 601.29 491.33 598.99 504.92 C 598.38 508.52 597.23 511.94 595.98 515.36 C 593.78 514.87 588.07 515.36 587.49 512.51 C 587.10 508.24 588.74 503.77 589.02 499.46 C 589.84 489.16 591.87 479.12 594.05 469.03 C 595.35 463.06 596.15 457.33 597.89 451.51 Z" fill="#cdd5de" />
<path d="M 692.19 452.99 C 694.18 457.36 695.43 461.91 696.27 466.63 C 697.70 474.33 699.53 481.95 700.89 489.67 C 702.44 502.59 701.59 514.92 700.80 527.96 C 699.36 540.73 698.25 552.81 694.10 565.00 L 694.20 563.42 C 693.49 563.90 692.78 564.38 692.08 564.88 C 696.88 547.27 699.57 529.27 699.47 511.00 C 699.74 492.33 696.56 474.13 691.90 456.12 C 691.99 455.08 692.09 454.03 692.19 452.99 Z" fill="#f8952f" />
<path d="M 718.20 460.73 C 723.91 479.97 724.87 501.19 724.46 521.15 C 723.59 518.78 722.32 516.64 720.85 514.59 C 720.35 506.02 720.92 497.56 719.84 489.06 C 718.90 481.16 718.18 473.25 716.97 465.38 C 717.35 463.82 717.79 462.28 718.20 460.73 Z" fill="#c02a01" />
<path d="M 406.61 464.99 C 406.33 468.68 406.32 471.72 408.13 475.05 C 409.90 479.45 410.94 484.01 411.57 488.70 C 412.76 497.11 414.01 505.49 415.70 513.81 C 415.47 514.58 415.24 515.35 414.99 516.12 C 414.55 515.12 414.09 514.13 413.60 513.15 C 411.88 514.41 409.77 515.83 409.03 517.90 C 407.19 523.14 407.36 528.73 407.39 534.15 C 406.99 535.51 406.58 536.85 406.21 538.22 C 406.06 536.74 405.91 535.27 405.75 533.80 C 405.91 529.84 406.34 525.95 406.17 521.98 C 405.48 508.66 403.62 495.55 401.96 482.34 C 402.81 476.32 404.20 470.58 406.61 464.99 Z" fill="#ed690b" />
<path d="M 341.71 467.91 C 341.91 469.98 342.11 472.02 342.20 474.09 C 340.78 481.50 339.85 488.99 339.31 496.52 C 337.00 519.82 341.24 543.10 347.52 565.47 C 350.57 574.93 354.72 584.08 358.92 593.09 C 363.50 602.90 369.93 611.07 376.23 619.78 C 380.47 625.50 385.37 630.58 390.49 635.51 C 404.87 649.67 421.72 661.07 440.04 669.51 C 439.48 670.21 439.13 671.01 438.72 671.80 C 438.11 672.24 437.49 672.67 436.86 673.07 C 427.81 668.90 419.28 663.52 410.97 658.03 C 399.55 649.73 388.59 641.36 379.44 630.55 C 371.31 620.88 363.62 611.49 357.74 600.26 C 349.93 585.11 343.17 568.90 339.62 552.19 C 337.83 542.37 335.65 532.28 335.48 522.27 C 336.45 514.50 336.11 506.77 336.15 498.97 C 336.15 492.04 338.23 485.90 339.34 479.15 C 339.96 475.37 340.69 471.61 341.71 467.91 Z" fill="#d35301" />
<path d="M 735.27 470.68 C 738.21 474.93 737.96 479.40 738.86 484.27 C 739.67 489.15 741.35 493.62 743.03 498.25 C 743.73 498.09 744.43 497.93 745.13 497.77 C 745.35 500.84 745.52 503.90 745.58 506.97 C 747.78 507.11 749.95 507.26 752.15 507.30 C 746.96 509.17 741.33 508.38 736.88 505.14 C 735.10 503.86 734.92 501.75 734.59 499.75 C 733.77 492.83 733.56 485.88 732.56 478.97 C 733.69 479.06 734.82 479.15 735.94 479.24 C 735.59 476.39 735.35 473.55 735.27 470.68 Z" fill="#c9560b" />
<path d="M 395.91 481.03 C 395.69 483.14 395.73 485.58 394.85 487.53 C 391.95 490.16 386.97 491.06 384.83 494.82 C 382.15 499.41 382.43 505.83 382.90 510.97 C 383.55 517.32 383.98 523.72 384.92 530.03 C 385.49 533.21 386.33 536.86 389.27 538.70 C 390.81 539.39 392.63 539.59 394.29 539.92 C 395.12 537.88 395.95 535.85 396.81 533.82 C 397.31 536.65 397.86 539.48 398.28 542.33 C 398.10 545.69 397.48 549.07 396.99 552.39 C 396.47 550.02 395.93 547.65 395.48 545.25 C 394.94 546.13 394.40 547.01 393.85 547.88 C 391.20 547.05 388.32 545.78 385.52 545.76 C 383.32 546.19 381.02 548.02 380.42 550.24 C 380.96 552.79 382.18 555.23 383.08 557.68 C 376.66 552.34 373.98 542.47 373.48 534.45 C 372.91 524.32 372.76 513.36 375.41 503.50 C 376.99 497.50 378.89 491.85 383.25 487.25 C 386.50 483.77 391.52 482.45 395.91 481.03 Z" fill="#cdd5da" />
<path d="M 395.91 481.03 L 396.48 480.86 C 396.99 488.26 397.62 495.58 397.63 503.01 C 398.58 516.06 398.81 529.25 398.28 542.33 C 397.86 539.48 397.31 536.65 396.81 533.82 C 395.95 535.85 395.12 537.88 394.29 539.92 C 392.63 539.59 390.81 539.39 389.27 538.70 C 386.33 536.86 385.49 533.21 384.92 530.03 C 383.98 523.72 383.55 517.32 382.90 510.97 C 382.43 505.83 382.15 499.41 384.83 494.82 C 386.97 491.06 391.95 490.16 394.85 487.53 C 395.73 485.58 395.69 483.14 395.91 481.03 Z" fill="#f7fcfc" />
<path d="M 628.31 480.98 C 632.33 482.43 636.42 483.95 640.31 485.71 C 645.90 488.14 648.24 494.57 649.94 499.97 C 654.05 514.34 653.69 530.26 650.09 544.70 C 648.16 538.81 650.49 534.12 650.61 528.01 C 650.84 520.25 650.91 511.53 648.16 504.16 C 646.72 500.31 646.15 496.68 642.99 493.73 C 642.41 496.56 642.34 499.26 642.64 502.13 C 643.42 509.88 643.65 517.51 642.20 525.20 C 642.40 518.81 642.57 512.36 642.34 505.96 C 642.07 502.49 641.73 498.20 639.72 495.25 C 636.72 492.08 632.78 489.82 629.53 486.88 C 629.21 484.89 628.67 482.96 628.31 480.98 Z" fill="#caced4" />
<path d="M 629.53 486.88 C 632.78 489.82 636.72 492.08 639.72 495.25 C 641.73 498.20 642.07 502.49 642.34 505.96 C 642.57 512.36 642.40 518.81 642.20 525.20 C 641.52 528.58 640.70 532.74 638.39 535.40 C 635.02 537.99 630.90 539.46 627.47 542.03 C 627.10 533.71 627.28 525.31 627.61 516.99 C 628.10 506.95 629.30 496.93 629.53 486.88 Z" fill="#e5ecf0" />
<path d="M 642.99 493.73 C 646.15 496.68 646.72 500.31 648.16 504.16 C 650.91 511.53 650.84 520.25 650.61 528.01 C 650.49 534.12 648.16 538.81 650.09 544.70 C 648.87 549.83 646.61 555.03 642.34 558.34 C 638.53 561.21 634.35 561.79 629.80 562.64 C 628.99 555.78 628.09 548.91 627.47 542.03 C 630.90 539.46 635.02 537.99 638.39 535.40 C 640.70 532.74 641.52 528.58 642.20 525.20 C 643.65 517.51 643.42 509.88 642.64 502.13 C 642.34 499.26 642.41 496.56 642.99 493.73 Z" fill="#bec3ca" />
<path d="M 519.04 496.27 C 524.23 496.47 530.61 496.61 534.53 500.49 C 530.00 500.04 525.60 499.08 521.01 499.19 C 516.08 499.30 510.53 498.99 505.83 500.66 C 504.26 505.33 505.53 509.89 502.08 514.05 C 498.61 512.95 494.99 511.14 492.47 508.46 C 491.18 506.44 491.27 503.40 491.88 501.16 C 493.11 498.98 496.03 498.02 498.31 497.45 C 504.99 495.95 512.22 496.30 519.04 496.27 Z" fill="#f6f8f9" />
<path d="M 616.97 496.59 C 617.20 498.49 617.58 500.53 617.45 502.44 C 616.93 508.37 613.45 513.79 612.57 519.47 C 613.52 524.07 615.06 528.15 614.84 532.95 C 614.44 541.01 611.93 549.30 606.29 555.26 C 604.19 557.83 601.04 560.40 599.91 563.56 C 599.05 567.87 598.94 572.20 597.38 576.39 C 597.55 569.63 597.72 563.12 596.35 556.44 C 594.72 548.19 591.18 541.47 588.48 533.49 C 587.21 529.71 585.52 526.44 583.26 523.16 C 589.56 525.56 599.03 528.50 604.97 523.97 C 613.11 516.90 614.65 506.47 616.97 496.59 Z" fill="#f97514" />
<path d="M 485.17 506.00 C 486.55 509.64 487.30 513.93 490.48 516.49 C 493.78 519.24 497.32 521.75 500.89 524.12 C 506.39 527.59 513.14 529.78 519.54 527.51 C 527.08 525.20 532.33 520.16 537.49 514.47 C 539.38 512.41 540.34 509.96 541.21 507.35 C 542.02 509.09 541.71 511.70 543.98 512.12 C 549.58 513.99 555.02 515.66 559.83 519.24 C 563.98 521.98 566.64 526.55 567.19 531.46 C 567.36 534.95 566.49 538.54 566.21 542.03 C 565.78 545.61 565.84 549.51 564.77 552.96 C 563.50 556.59 561.11 559.96 559.09 563.23 C 561.63 567.24 564.53 570.52 565.27 575.39 C 560.84 568.51 556.66 561.98 549.96 557.04 C 539.08 548.47 525.67 544.97 511.99 544.81 C 502.53 545.37 493.50 546.57 484.99 550.97 C 469.16 558.73 457.76 573.51 453.22 590.44 C 451.51 582.78 444.33 580.75 441.52 573.50 C 437.72 565.89 439.00 558.51 437.61 550.50 C 439.32 542.57 441.79 535.10 446.29 528.29 C 450.54 520.73 457.50 515.62 465.51 512.58 C 471.93 509.72 478.90 509.18 485.17 506.00 Z" fill="#f7fbfb" />
<path d="M 541.21 507.35 C 549.08 509.50 557.54 510.62 564.61 514.37 C 569.83 517.05 575.00 520.78 578.32 525.68 C 581.93 530.95 582.71 537.43 585.55 543.45 C 588.28 549.24 590.03 555.41 590.74 561.77 C 590.49 563.97 590.07 566.13 589.62 568.30 C 588.80 563.53 588.20 558.74 587.23 553.99 C 586.85 556.46 586.46 558.92 586.00 561.37 C 584.06 557.67 584.01 553.87 583.21 549.88 C 581.81 557.72 581.90 565.44 579.05 573.04 C 577.68 577.52 575.18 580.95 571.78 584.09 C 571.97 586.52 572.05 588.96 572.13 591.40 C 570.34 585.83 567.80 580.64 565.27 575.39 C 564.53 570.52 561.63 567.24 559.09 563.23 C 561.11 559.96 563.50 556.59 564.77 552.96 C 565.84 549.51 565.78 545.61 566.21 542.03 C 566.49 538.54 567.36 534.95 567.19 531.46 C 566.64 526.55 563.98 521.98 559.83 519.24 C 555.02 515.66 549.58 513.99 543.98 512.12 C 541.71 511.70 542.02 509.09 541.21 507.35 Z" fill="#d1dbe0" />
<path d="M 413.60 513.15 C 414.09 514.13 414.55 515.12 414.99 516.12 C 412.96 522.30 409.73 528.07 407.39 534.15 C 407.36 528.73 407.19 523.14 409.03 517.90 C 409.77 515.83 411.88 514.41 413.60 513.15 Z" fill="#d84b01" />
<path d="M 287.36 516.71 C 285.43 517.81 283.57 519.00 281.70 520.20 C 282.61 520.22 283.53 520.25 284.44 520.27 C 283.99 521.55 283.55 522.84 283.11 524.12 C 284.97 524.32 286.83 524.50 288.69 524.68 C 289.46 532.03 287.01 538.33 285.37 545.31 C 284.19 549.83 285.45 554.28 284.30 558.77 C 283.71 561.45 282.57 564.37 282.69 567.11 C 283.11 570.63 284.78 573.74 284.91 577.37 C 285.17 580.09 282.63 582.52 283.03 585.15 C 283.26 587.78 283.71 590.39 284.04 593.00 C 282.69 588.80 281.10 584.73 279.39 580.66 C 279.20 579.60 279.00 578.54 278.82 577.48 C 278.19 577.83 277.56 578.17 276.93 578.52 C 276.55 576.79 276.18 575.05 275.80 573.32 C 276.61 574.18 277.43 575.05 278.24 575.91 C 277.46 571.79 276.45 567.73 275.42 563.67 C 273.61 556.50 273.22 549.35 272.35 541.77 C 271.53 533.38 271.03 524.97 270.49 516.55 C 275.91 513.34 281.94 513.74 287.36 516.71 Z" fill="#ee7d18" />
<path d="M 415.70 513.81 C 418.00 520.03 421.08 523.23 426.95 526.20 C 426.24 526.58 425.54 526.96 424.83 527.33 C 425.17 533.99 424.44 538.89 422.31 545.19 C 420.67 546.58 418.61 547.87 418.03 550.08 C 416.75 554.66 416.18 559.37 414.61 563.89 C 413.08 562.25 411.51 560.61 410.09 558.88 C 408.45 556.03 406.87 553.16 406.21 549.91 C 405.44 546.13 405.90 542.04 406.21 538.22 C 406.58 536.85 406.99 535.51 407.39 534.15 C 409.73 528.07 412.96 522.30 414.99 516.12 C 415.24 515.35 415.47 514.58 415.70 513.81 Z" fill="#f78c35" />
<path d="M 755.14 516.91 L 755.07 517.65 C 750.50 516.14 748.21 515.98 743.74 518.01 C 745.05 518.35 746.35 518.68 747.66 519.00 C 745.29 521.72 742.30 524.73 741.48 528.36 C 740.06 535.07 741.27 541.69 742.84 548.24 C 744.31 553.16 741.69 557.57 742.74 562.61 C 741.49 562.62 740.24 562.63 738.98 562.64 C 738.96 564.42 738.93 566.20 738.91 567.97 C 739.71 566.54 740.52 565.11 741.33 563.68 C 742.35 568.04 744.77 572.98 742.11 577.17 C 741.99 582.08 740.24 586.32 741.46 591.29 C 741.19 593.28 740.92 595.27 740.68 597.27 C 744.38 591.85 745.06 586.08 746.91 579.94 C 750.55 567.38 753.46 554.55 755.39 541.61 C 756.54 534.13 756.19 526.83 758.01 519.44 C 759.34 524.40 758.65 529.07 758.20 534.08 C 756.62 551.51 752.89 568.81 747.50 585.46 C 746.27 589.13 745.32 593.08 743.50 596.51 C 742.45 598.66 739.99 599.24 737.93 600.00 C 734.41 601.07 730.15 602.25 726.49 601.47 C 723.65 600.32 720.34 596.81 719.53 593.84 C 719.53 590.33 721.26 586.68 722.33 583.35 C 729.30 564.08 732.61 543.92 734.75 523.59 C 735.18 521.21 735.17 518.82 737.32 517.27 C 742.39 513.14 749.79 513.59 755.14 516.91 Z" fill="#b24c0a" />
<path d="M 720.85 514.59 C 722.32 516.64 723.59 518.78 724.46 521.15 C 724.35 547.36 716.16 573.66 707.04 598.02 C 706.49 597.41 705.93 596.81 705.34 596.22 C 700.73 604.00 697.46 611.87 692.25 619.27 C 688.15 624.98 684.96 630.94 680.12 636.09 C 682.09 632.78 683.83 629.55 684.54 625.72 C 686.07 622.61 687.87 619.66 689.73 616.73 C 698.69 602.45 705.92 587.13 711.05 571.06 C 716.51 552.74 719.49 533.64 720.85 514.59 Z" fill="#a22a00" />
<path d="M 755.07 517.65 C 753.53 530.01 753.47 541.97 751.25 554.18 C 749.14 566.79 745.43 579.16 741.46 591.29 C 740.24 586.32 741.99 582.08 742.11 577.17 C 744.77 572.98 742.35 568.04 741.33 563.68 C 740.52 565.11 739.71 566.54 738.91 567.97 C 738.93 566.20 738.96 564.42 738.98 562.64 C 740.24 562.63 741.49 562.62 742.74 562.61 C 741.69 557.57 744.31 553.16 742.84 548.24 C 741.27 541.69 740.06 535.07 741.48 528.36 C 742.30 524.73 745.29 521.72 747.66 519.00 C 746.35 518.68 745.05 518.35 743.74 518.01 C 748.21 515.98 750.50 516.14 755.07 517.65 Z" fill="#c4580e" />
<path d="M 270.49 516.55 C 271.03 524.97 271.53 533.38 272.35 541.77 C 272.17 543.28 271.96 544.79 271.72 546.30 C 269.14 538.28 270.43 530.04 268.87 521.57 C 268.06 521.58 267.24 521.60 266.43 521.62 C 267.08 519.26 268.57 517.91 270.49 516.55 Z" fill="#ec984d" />
<path d="M 287.36 516.71 C 288.82 517.58 290.46 518.36 290.80 520.19 C 291.59 523.34 291.58 526.75 291.90 529.97 C 293.73 550.28 297.61 570.39 304.01 589.76 C 305.84 594.49 303.24 598.75 299.46 601.46 C 294.75 602.54 289.21 601.22 284.89 599.18 L 286.40 599.65 C 284.67 596.90 282.84 594.43 281.71 591.36 C 280.39 587.85 279.95 584.34 279.39 580.66 C 281.10 584.73 282.69 588.80 284.04 593.00 C 283.71 590.39 283.26 587.78 283.03 585.15 C 282.63 582.52 285.17 580.09 284.91 577.37 C 284.78 573.74 283.11 570.63 282.69 567.11 C 282.57 564.37 283.71 561.45 284.30 558.77 C 285.45 554.28 284.19 549.83 285.37 545.31 C 287.01 538.33 289.46 532.03 288.69 524.68 C 286.83 524.50 284.97 524.32 283.11 524.12 C 283.55 522.84 283.99 521.55 284.44 520.27 C 283.53 520.25 282.61 520.22 281.70 520.20 C 283.57 519.00 285.43 517.81 287.36 516.71 Z" fill="#e67411" />
<path d="M 755.14 516.91 C 756.16 517.68 757.11 518.54 758.01 519.44 C 756.19 526.83 756.54 534.13 755.39 541.61 C 753.46 554.55 750.55 567.38 746.91 579.94 C 745.06 586.08 744.38 591.85 740.68 597.27 C 740.92 595.27 741.19 593.28 741.46 591.29 C 745.43 579.16 749.14 566.79 751.25 554.18 C 753.47 541.97 753.53 530.01 755.07 517.65 L 755.14 516.91 Z" fill="#a72e00" />
<path d="M 617.66 525.27 C 619.18 528.54 618.94 532.50 619.10 536.05 C 619.18 539.72 619.66 543.35 620.20 546.98 C 620.69 546.24 621.17 545.49 621.65 544.75 C 622.94 552.85 624.30 560.58 623.00 568.82 C 621.51 578.30 618.94 589.04 612.38 596.39 C 607.42 602.01 601.59 607.08 594.35 609.46 C 593.29 608.82 592.24 608.19 591.17 607.56 C 598.08 606.52 602.66 601.51 605.57 595.50 C 608.10 589.93 609.95 584.14 610.19 577.98 C 608.59 578.60 606.78 579.15 605.41 580.19 C 604.62 581.22 604.77 583.02 604.51 584.27 C 604.16 584.12 603.81 583.98 603.46 583.83 C 600.36 589.55 597.07 595.71 592.28 600.22 C 590.48 602.06 588.80 604.01 587.06 605.92 L 586.91 604.01 C 589.12 600.72 591.41 597.60 592.93 593.91 C 595.49 588.16 596.07 582.44 597.38 576.39 C 598.94 572.20 599.05 567.87 599.91 563.56 C 601.04 560.40 604.19 557.83 606.29 555.26 C 611.93 549.30 614.44 541.01 614.84 532.95 C 615.06 528.15 613.52 524.07 612.57 519.47 C 615.40 520.42 616.43 522.77 617.66 525.27 Z" fill="#ec4700" />
<path d="M 268.87 521.57 C 270.43 530.04 269.14 538.28 271.72 546.30 C 271.96 544.79 272.17 543.28 272.35 541.77 C 273.22 549.35 273.61 556.50 275.42 563.67 C 276.45 567.73 277.46 571.79 278.24 575.91 C 277.43 575.05 276.61 574.18 275.80 573.32 C 276.18 575.05 276.55 576.79 276.93 578.52 C 277.56 578.17 278.19 577.83 278.82 577.48 C 279.00 578.54 279.20 579.60 279.39 580.66 C 279.95 584.34 280.39 587.85 281.71 591.36 C 282.84 594.43 284.67 596.90 286.40 599.65 L 284.89 599.18 C 281.87 598.02 280.93 594.81 279.86 592.06 C 277.14 583.89 274.41 575.75 272.54 567.32 C 268.78 552.29 267.29 537.05 266.43 521.62 C 267.24 521.60 268.06 521.58 268.87 521.57 Z" fill="#ef8c2e" />
<path d="M 440.60 523.63 C 438.61 529.55 436.21 535.32 434.12 541.20 C 433.98 538.74 433.73 536.28 433.50 533.82 C 431.75 538.16 430.06 542.52 428.26 546.84 C 426.42 551.35 424.77 555.67 424.69 560.60 C 424.62 565.16 424.55 569.73 424.70 574.28 C 424.00 569.91 424.27 565.98 421.17 562.46 C 420.08 565.34 419.52 568.14 419.27 571.20 C 418.77 571.30 418.28 571.40 417.78 571.50 C 417.74 573.37 417.69 575.24 417.65 577.12 C 414.91 570.98 413.38 564.75 410.09 558.88 C 411.51 560.61 413.08 562.25 414.61 563.89 C 416.18 559.37 416.75 554.66 418.03 550.08 C 418.61 547.87 420.67 546.58 422.31 545.19 C 424.44 538.89 425.17 533.99 424.83 527.33 C 425.54 526.96 426.24 526.58 426.95 526.20 C 432.07 527.39 435.94 525.26 440.60 523.63 Z" fill="#fb7411" />
<path d="M 608.45 526.53 L 608.72 526.35 C 609.47 527.03 610.22 527.72 610.97 528.40 C 611.81 528.05 612.65 527.70 613.49 527.34 C 613.85 532.82 613.24 537.79 611.81 543.08 C 609.42 542.78 605.99 542.93 604.06 541.31 C 603.00 537.77 603.22 533.78 602.86 530.10 C 604.73 528.91 606.59 527.72 608.45 526.53 Z" fill="#f68627" />
<path d="M 467.45 529.24 C 469.03 528.26 470.95 528.42 472.37 529.61 C 473.35 531.42 472.44 534.82 470.10 534.77 C 468.56 534.73 465.80 535.23 465.61 533.04 C 465.04 530.83 465.80 530.43 467.45 529.24 Z" fill="#0d1011" />
<path d="M 552.51 529.44 C 555.96 528.44 557.03 530.83 558.98 533.07 C 557.29 534.15 556.24 535.75 554.05 535.36 C 551.20 534.97 549.80 531.03 552.51 529.44 Z" fill="#010102" />
<path d="M 405.75 533.80 C 405.91 535.27 406.06 536.74 406.21 538.22 C 405.90 542.04 405.44 546.13 406.21 549.91 C 406.87 553.16 408.45 556.03 410.09 558.88 C 413.38 564.75 414.91 570.98 417.65 577.12 C 417.69 575.24 417.74 573.37 417.78 571.50 C 418.28 571.40 418.77 571.30 419.27 571.20 C 419.52 568.14 420.08 565.34 421.17 562.46 C 424.27 565.98 424.00 569.91 424.70 574.28 C 425.27 579.23 426.71 583.73 428.14 588.47 L 429.68 587.78 C 430.17 589.46 430.67 591.13 431.15 592.80 L 431.24 594.81 C 428.55 592.83 426.17 590.75 423.13 589.29 C 420.92 589.95 418.16 590.87 416.67 592.72 C 415.47 594.60 415.32 597.25 414.90 599.41 C 406.59 590.39 402.90 577.04 402.26 565.05 C 401.39 554.21 405.47 544.54 405.75 533.80 Z" fill="#f15802" />
<path d="M 433.50 533.82 C 433.73 536.28 433.98 538.74 434.12 541.20 C 432.01 548.43 429.12 555.63 427.82 563.05 C 426.82 571.33 427.25 579.77 429.68 587.78 L 428.14 588.47 C 426.71 583.73 425.27 579.23 424.70 574.28 C 424.55 569.73 424.62 565.16 424.69 560.60 C 424.77 555.67 426.42 551.35 428.26 546.84 C 430.06 542.52 431.75 538.16 433.50 533.82 Z" fill="#f37e27" />
<path d="M 393.85 547.88 C 394.40 547.01 394.94 546.13 395.48 545.25 C 395.93 547.65 396.47 550.02 396.99 552.39 C 396.75 555.87 396.57 559.35 396.42 562.84 C 391.68 561.51 387.22 560.52 383.08 557.68 C 382.18 555.23 380.96 552.79 380.42 550.24 C 381.02 548.02 383.32 546.19 385.52 545.76 C 388.32 545.78 391.20 547.05 393.85 547.88 Z" fill="#c1c8cf" />
<path d="M 583.21 549.88 C 584.01 553.87 584.06 557.67 586.00 561.37 C 586.46 558.92 586.85 556.46 587.23 553.99 C 588.20 558.74 588.80 563.53 589.62 568.30 C 590.07 566.13 590.49 563.97 590.74 561.77 C 591.29 566.52 591.47 571.28 591.00 576.04 C 590.27 584.78 586.40 593.30 581.41 600.42 C 579.69 602.94 577.40 604.78 574.84 606.38 C 574.41 601.28 573.21 596.38 572.13 591.40 C 572.05 588.96 571.97 586.52 571.78 584.09 C 575.18 580.95 577.68 577.52 579.05 573.04 C 581.90 565.44 581.81 557.72 583.21 549.88 Z" fill="#bfc7cd" />
<path d="M 437.61 550.50 C 439.00 558.51 437.72 565.89 441.52 573.50 C 444.33 580.75 451.51 582.78 453.22 590.44 C 451.95 595.33 450.93 600.28 450.22 605.28 C 448.55 604.92 446.77 604.72 445.17 604.08 C 438.74 596.72 435.11 586.69 434.07 577.05 C 432.87 568.26 434.98 558.87 437.61 550.50 Z" fill="#c6d0d6" />
<path d="M 508.04 551.45 C 517.86 550.83 528.36 552.35 537.20 556.82 C 549.04 563.28 558.07 574.89 563.41 587.11 C 557.10 594.78 548.55 598.36 539.34 601.34 C 524.16 606.41 507.57 607.35 491.90 604.12 C 483.29 602.44 474.27 599.93 466.79 595.21 C 464.27 593.67 462.38 591.51 460.59 589.19 C 465.65 577.42 473.85 565.73 484.85 558.85 C 491.68 554.35 499.88 551.84 508.04 551.45 Z" fill="#f0f8fb" />
<path d="M 694.20 563.42 L 694.10 565.00 C 691.79 573.49 689.79 581.96 686.27 590.06 C 686.29 589.18 686.31 588.30 686.30 587.42 C 685.56 587.58 684.82 587.74 684.08 587.91 C 687.31 580.42 690.13 572.81 692.08 564.88 C 692.78 564.38 693.49 563.90 694.20 563.42 Z" fill="#e1a873" />
<path d="M 610.19 577.98 C 609.95 584.14 608.10 589.93 605.57 595.50 C 602.66 601.51 598.08 606.52 591.17 607.56 C 592.24 608.19 593.29 608.82 594.35 609.46 C 590.73 610.61 587.42 610.40 583.75 609.62 C 584.68 607.67 585.69 605.79 586.91 604.01 L 587.06 605.92 C 588.80 604.01 590.48 602.06 592.28 600.22 C 597.07 595.71 600.36 589.55 603.46 583.83 C 603.81 583.98 604.16 584.12 604.51 584.27 C 604.77 583.02 604.62 581.22 605.41 580.19 C 606.78 579.15 608.59 578.60 610.19 577.98 Z" fill="#dd3800" />
<path d="M 563.41 587.11 C 565.83 593.13 567.79 599.56 568.38 606.03 C 569.08 609.15 564.96 611.88 562.91 613.63 C 563.60 611.56 564.33 609.50 565.07 607.44 C 559.21 606.22 555.79 610.46 550.11 611.82 C 531.41 616.62 511.10 616.56 492.00 614.62 C 486.90 614.06 481.60 614.10 476.58 613.00 C 469.33 611.36 465.40 605.52 457.61 605.20 C 462.10 613.34 473.63 616.87 481.94 619.44 C 481.23 619.83 480.51 620.21 479.80 620.60 C 475.47 619.46 470.98 618.09 467.02 615.95 C 462.98 613.75 459.40 610.77 455.90 607.80 C 456.59 601.39 458.30 595.20 460.59 589.19 C 462.38 591.51 464.27 593.67 466.79 595.21 C 474.27 599.93 483.29 602.44 491.90 604.12 C 507.57 607.35 524.16 606.41 539.34 601.34 C 548.55 598.36 557.10 594.78 563.41 587.11 Z" fill="#bec5cb" />
<path d="M 686.30 587.42 C 686.31 588.30 686.29 589.18 686.27 590.06 C 680.91 605.32 673.09 619.36 663.03 632.01 C 656.53 639.97 650.01 648.22 642.00 654.79 C 635.69 658.44 630.59 663.72 624.28 667.31 C 621.31 669.08 618.09 669.57 614.70 669.88 C 634.40 656.93 650.87 639.74 664.98 620.97 C 672.10 610.61 679.30 599.58 684.08 587.91 C 684.82 587.74 685.56 587.58 686.30 587.42 Z" fill="#f1f0ef" />
<path d="M 423.13 589.29 C 426.17 590.75 428.55 592.83 431.24 594.81 L 431.15 592.80 C 433.19 598.58 437.38 603.15 439.27 608.93 C 430.29 610.71 420.91 605.88 414.90 599.41 C 415.32 597.25 415.47 594.60 416.67 592.72 C 418.16 590.87 420.92 589.95 423.13 589.29 Z" fill="#e23900" />
<path d="M 705.34 596.22 C 705.93 596.81 706.49 597.41 707.04 598.02 C 704.62 603.92 700.96 609.35 698.00 615.01 C 690.19 629.62 680.51 643.13 669.46 655.47 C 661.97 664.30 653.71 672.38 644.84 679.83 C 630.75 691.12 615.22 700.19 598.90 707.87 C 583.21 714.85 566.09 720.08 549.21 723.20 C 546.75 723.22 544.31 723.05 541.86 722.84 C 545.71 718.81 550.35 718.73 555.31 716.46 C 554.13 716.19 552.95 715.94 551.76 715.70 C 566.45 711.85 580.68 708.08 594.38 701.36 C 617.04 690.80 637.00 676.19 655.52 659.52 C 666.57 649.38 675.62 637.71 684.54 625.72 C 683.83 629.55 682.09 632.78 680.12 636.09 C 684.96 630.94 688.15 624.98 692.25 619.27 C 697.46 611.87 700.73 604.00 705.34 596.22 Z" fill="#8a2601" />
<path d="M 457.61 605.20 C 465.40 605.52 469.33 611.36 476.58 613.00 C 481.60 614.10 486.90 614.06 492.00 614.62 C 511.10 616.56 531.41 616.62 550.11 611.82 C 555.79 610.46 559.21 606.22 565.07 607.44 C 564.33 609.50 563.60 611.56 562.91 613.63 C 556.14 618.61 548.35 620.57 540.21 622.07 C 532.19 623.58 524.14 623.97 516.00 624.18 C 503.80 624.45 491.68 623.52 479.80 620.60 C 480.51 620.21 481.23 619.83 481.94 619.44 C 473.63 616.87 462.10 613.34 457.61 605.20 Z" fill="#abb3bb" />
<path d="M 727.06 607.97 C 727.88 608.82 728.69 609.69 729.46 610.59 C 727.00 609.85 724.56 609.01 722.08 608.38 C 715.55 612.88 712.69 619.59 709.21 626.37 C 706.92 630.71 706.22 635.56 703.84 639.88 C 700.65 645.78 698.66 651.66 694.53 656.57 C 692.31 659.23 690.11 661.89 688.11 664.72 C 690.67 666.12 693.28 667.40 695.97 668.54 C 694.03 668.88 692.09 669.10 690.13 669.29 C 685.78 666.50 682.58 662.49 682.66 657.10 C 684.28 653.62 687.28 650.65 689.60 647.59 C 693.65 642.33 697.94 637.08 701.44 631.44 C 706.52 623.31 711.06 614.91 715.68 606.53 C 719.65 606.02 723.44 606.03 727.06 607.97 Z" fill="#b8c9d2" />
<path d="M 306.92 606.99 C 310.88 607.17 311.96 612.37 313.77 615.17 C 321.08 627.52 328.20 640.63 337.18 651.84 C 338.44 653.53 339.94 655.33 340.67 657.32 C 341.06 660.35 340.66 664.11 338.37 666.36 C 336.19 668.35 332.86 669.17 329.98 669.35 C 326.95 669.28 324.98 667.15 323.26 664.92 C 316.12 655.46 309.65 645.73 303.30 635.73 C 299.90 629.73 296.38 623.71 293.54 617.42 C 292.74 615.07 291.31 611.69 294.06 610.06 C 297.40 607.62 302.88 606.39 306.92 606.99 Z" fill="#ebf4f6" />
<path d="M 722.08 608.38 C 724.56 609.01 727.00 609.85 729.46 610.59 C 732.46 614.97 728.98 619.99 727.00 624.01 C 721.89 632.23 717.18 640.67 711.47 648.47 C 706.46 655.22 701.77 662.43 695.97 668.54 C 693.28 667.40 690.67 666.12 688.11 664.72 C 690.11 661.89 692.31 659.23 694.53 656.57 C 698.66 651.66 700.65 645.78 703.84 639.88 C 706.22 635.56 706.92 630.71 709.21 626.37 C 712.69 619.59 715.55 612.88 722.08 608.38 Z" fill="#d0e2eb" />
<path d="M 727.06 607.97 C 729.94 609.35 733.82 611.09 735.30 614.11 C 734.43 620.81 729.57 627.40 725.99 633.00 C 722.13 638.85 718.72 644.95 714.61 650.63 C 710.31 656.62 705.71 663.27 699.94 667.93 C 697.09 670.42 693.57 669.73 690.13 669.29 C 692.09 669.10 694.03 668.88 695.97 668.54 C 701.77 662.43 706.46 655.22 711.47 648.47 C 717.18 640.67 721.89 632.23 727.00 624.01 C 728.98 619.99 732.46 614.97 729.46 610.59 C 728.69 609.69 727.88 608.82 727.06 607.97 Z" fill="#d14e10" />
<path d="M 662.15 611.71 C 661.17 614.48 660.01 616.25 657.91 618.29 C 658.92 615.66 660.12 613.68 662.15 611.71 Z" fill="#493827" />
<path d="M 289.91 613.43 C 294.96 620.50 297.78 628.87 303.30 635.73 C 309.65 645.73 316.12 655.46 323.26 664.92 C 322.21 665.20 321.16 665.47 320.10 665.74 C 315.76 661.30 312.18 656.38 308.84 651.15 C 302.35 641.71 296.67 631.76 291.44 621.57 C 289.99 618.81 289.65 616.54 289.91 613.43 Z" fill="#c54b0c" />
<path d="M 652.14 618.99 C 648.30 626.58 642.58 631.76 636.87 637.88 C 635.14 639.71 633.18 641.23 631.07 642.59 C 634.15 637.39 638.64 634.03 642.49 629.49 C 645.62 625.85 648.37 622.04 652.14 618.99 Z" fill="#8b3602" />
<path d="M 642.00 654.79 C 642.98 655.19 643.96 655.63 644.93 656.10 C 644.01 659.88 642.75 664.33 639.98 667.22 C 637.35 670.01 634.36 672.46 631.52 675.03 C 629.38 673.96 627.72 672.40 625.19 673.19 C 619.78 674.85 615.26 677.27 609.37 676.24 C 610.12 677.27 610.86 678.31 611.60 679.35 C 608.62 678.60 605.70 677.67 602.80 676.67 C 606.79 674.44 610.65 672.03 614.70 669.88 C 618.09 669.57 621.31 669.08 624.28 667.31 C 630.59 663.72 635.69 658.44 642.00 654.79 Z" fill="#f78f22" />
<path d="M 603.95 663.88 C 598.19 667.97 591.66 671.29 584.83 673.12 C 590.68 669.21 597.20 665.91 603.95 663.88 Z" fill="#ad4d01" />
<path d="M 348.13 665.52 C 354.57 668.17 358.57 672.81 363.86 677.16 C 372.11 684.67 381.07 691.41 390.20 697.80 C 405.98 708.14 422.90 716.65 440.60 723.19 C 453.91 727.83 467.53 731.08 481.33 733.87 C 481.60 739.11 482.68 744.70 481.86 749.89 C 481.44 752.38 479.98 755.02 477.05 754.57 C 468.57 754.01 460.07 751.46 451.85 749.41 C 442.47 747.11 433.24 744.28 424.19 740.92 C 419.02 738.93 413.70 737.86 408.74 735.29 C 401.50 731.63 394.16 728.03 387.28 723.72 C 369.43 712.34 352.64 699.72 337.84 684.52 C 339.83 681.31 342.00 678.30 344.27 675.29 C 345.76 673.38 345.69 671.32 346.18 669.04 C 346.80 667.85 347.44 666.68 348.13 665.52 Z" fill="#ea6e0c" />
<path d="M 674.17 666.74 C 679.36 670.56 683.51 675.02 689.83 677.12 C 690.50 677.43 691.18 677.74 691.85 678.05 C 686.73 685.85 680.05 692.00 673.11 698.13 C 667.13 703.21 660.69 707.62 655.05 713.11 C 647.78 718.31 640.03 722.63 632.51 727.47 C 627.80 730.52 622.68 732.57 617.53 734.72 C 612.53 737.00 607.51 739.20 602.44 741.33 C 599.33 739.72 596.21 737.79 592.61 737.65 C 586.66 737.28 581.58 739.75 575.64 738.73 C 568.30 737.61 561.47 739.87 554.19 738.78 C 551.54 738.48 549.78 736.11 547.88 734.46 C 547.58 736.36 547.30 738.27 547.09 740.19 C 547.18 737.92 547.22 735.64 547.28 733.36 C 559.50 730.34 571.76 727.82 583.70 723.73 C 610.04 715.16 633.67 700.42 655.20 683.20 C 661.75 677.98 667.59 671.92 674.17 666.74 Z" fill="#ad4505" />
<path d="M 346.18 669.04 C 345.69 671.32 345.76 673.38 344.27 675.29 C 342.00 678.30 339.83 681.31 337.84 684.52 C 335.60 682.38 333.68 679.98 331.87 677.47 C 334.50 676.65 337.31 675.97 339.78 674.76 C 342.30 673.50 344.37 671.16 346.18 669.04 Z" fill="#bd4801" />
<path d="M 689.83 677.12 C 692.04 677.19 694.26 677.20 696.47 677.27 C 694.49 680.63 691.92 683.43 689.08 686.08 C 678.83 695.97 667.73 706.47 655.05 713.11 C 660.69 707.62 667.13 703.21 673.11 698.13 C 680.05 692.00 686.73 685.85 691.85 678.05 C 691.18 677.74 690.50 677.43 689.83 677.12 Z" fill="#701704" />
<path d="M 427.15 703.76 C 433.62 706.40 440.15 708.72 446.90 710.53 C 480.76 720.52 517.11 723.01 551.76 715.70 C 552.95 715.94 554.13 716.19 555.31 716.46 C 550.35 718.73 545.71 718.81 541.86 722.84 C 544.31 723.05 546.75 723.22 549.21 723.20 C 543.45 724.19 537.71 725.21 531.88 725.70 C 499.69 728.22 467.62 724.82 437.65 712.39 C 431.23 709.90 425.15 706.93 419.61 702.80 C 422.47 702.43 424.48 702.65 427.15 703.76 Z" fill="#762100" />
<path d="M 547.88 734.46 C 549.78 736.11 551.54 738.48 554.19 738.78 C 561.47 739.87 568.30 737.61 575.64 738.73 C 581.58 739.75 586.66 737.28 592.61 737.65 C 596.21 737.79 599.33 739.72 602.44 741.33 C 598.28 743.22 594.27 745.27 589.92 746.71 C 583.51 748.95 577.08 749.86 570.48 751.62 C 565.05 752.95 559.54 754.63 553.98 755.22 C 551.20 755.60 547.80 753.67 547.28 750.77 C 546.64 747.34 546.90 743.66 547.09 740.19 C 547.30 738.27 547.58 736.36 547.88 734.46 Z" fill="#b84f06" />
<path d="M 493.95 734.56 C 499.98 734.40 506.02 735.17 512.00 735.25 C 519.58 735.41 527.36 734.25 535.02 734.52 C 536.64 734.59 538.15 735.07 539.68 735.56 C 536.41 738.68 531.22 737.34 526.99 737.68 C 516.53 738.17 506.49 739.06 495.95 737.77 C 493.70 737.51 491.68 736.64 489.62 735.74 C 491.03 735.01 492.34 734.54 493.95 734.56 Z" fill="#827d7c" />
<path d="M 489.62 735.74 C 491.68 736.64 493.70 737.51 495.95 737.77 C 506.49 739.06 516.53 738.17 526.99 737.68 C 531.22 737.34 536.41 738.68 539.68 735.56 C 539.26 741.14 540.32 747.00 539.40 752.49 C 537.72 755.33 534.01 756.44 530.90 756.54 C 520.93 756.88 510.93 756.69 500.96 756.63 C 497.82 756.62 494.80 756.31 491.90 755.02 C 489.93 754.11 489.61 751.70 489.38 749.78 C 489.06 745.12 489.44 740.40 489.62 735.74 Z" fill="#e9f5f7" />
</svg>