<?xml version="1.0" encoding="UTF-8" standalone="no"?>
<!DOCTYPE svg PUBLIC "-//W3C//DTD SVG 1.1//EN" "http://www.w3.org/Graphics/SVG/1.1/DTD/svg11.dtd">
<svg xmlns="http://www.w3.org/2000/svg" version="1.1" viewBox="0 0 1024 1024" width="1024.0pt" height="1024.0pt">
<path d="M 502.00 228.00 C 516.24 228.16 530.91 227.44 545.04 229.27 C 575.37 232.83 605.20 241.25 632.83 254.29 C 679.66 276.10 720.32 311.13 748.88 354.18 C 775.06 393.31 791.12 438.96 795.47 485.83 C 795.90 492.88 796.06 499.94 796.00 507.00 C 795.93 519.97 796.39 533.64 794.56 546.49 C 790.54 579.30 780.83 611.38 765.80 640.84 C 744.07 683.88 711.05 721.22 671.01 748.07 C 631.62 774.74 585.51 791.08 538.17 795.47 C 525.17 796.29 512.05 795.94 499.00 795.98 C 484.97 795.95 471.10 794.03 457.35 791.34 C 407.24 781.64 359.99 758.08 322.01 723.98 C 306.00 709.50 291.54 693.53 279.21 675.79 C 250.63 635.37 233.09 587.44 228.53 538.17 C 227.71 525.17 228.06 512.04 228.02 499.00 C 228.06 485.68 229.78 472.50 232.26 459.43 C 239.86 418.65 256.61 379.53 280.87 345.87 C 319.40 291.92 377.21 252.49 441.48 236.22 C 461.20 231.33 481.65 227.81 502.00 228.00 Z" fill="#000000" />
<path d="M 497.00 261.59 C 509.43 261.38 521.63 261.08 534.04 262.18 C 535.69 262.43 537.22 262.26 538.39 263.65 C 540.78 266.26 542.82 269.75 543.82 273.15 C 541.62 270.41 539.91 267.02 537.29 264.69 C 533.66 263.08 528.97 263.39 525.04 263.13 C 512.26 263.02 499.41 262.72 486.65 263.60 C 489.93 261.51 493.27 261.76 497.00 261.59 Z" fill="#e64938" />
<path d="M 525.04 263.13 C 528.97 263.39 533.66 263.08 537.29 264.69 C 539.91 267.02 541.62 270.41 543.82 273.15 C 542.59 276.80 540.82 281.26 537.53 283.53 C 532.44 284.12 527.11 283.31 521.99 283.10 C 511.87 282.21 501.99 283.36 491.87 283.36 C 494.88 282.54 497.85 281.85 500.99 281.94 C 512.31 282.19 523.66 281.92 534.97 281.42 C 533.99 280.72 533.01 280.02 532.01 279.34 C 533.36 279.54 534.72 279.72 536.07 279.90 C 536.97 278.96 537.84 277.97 538.66 276.96 C 538.50 273.60 537.98 269.05 535.53 266.51 C 525.82 265.31 515.78 265.68 506.00 265.59 C 500.55 265.69 494.78 265.22 489.43 266.23 C 487.67 269.35 485.40 273.26 485.56 276.93 C 486.12 278.11 486.96 279.01 487.83 279.98 C 488.93 281.12 490.03 282.25 491.09 283.42 C 485.54 284.77 481.82 278.91 481.58 274.15 C 481.98 270.38 484.61 266.70 486.65 263.60 C 499.41 262.72 512.26 263.02 525.04 263.13 Z" fill="#d00102" />
<path d="M 472.53 267.39 C 474.20 268.60 473.68 271.23 473.87 273.07 C 473.23 271.33 472.83 268.85 470.96 268.05 C 468.52 266.74 465.34 267.26 462.74 267.74 C 457.74 268.82 452.99 269.60 448.25 271.33 C 439.27 274.56 430.31 277.07 421.69 281.22 C 408.40 286.34 396.66 293.89 384.99 301.92 C 383.86 302.78 382.83 303.71 382.06 304.91 C 385.65 304.17 388.90 300.91 392.03 299.03 C 402.15 292.71 412.65 287.05 423.55 282.17 C 437.82 277.42 450.64 271.34 465.86 269.98 C 465.80 270.87 465.74 271.75 465.68 272.64 C 449.09 275.87 433.23 281.68 418.06 289.05 C 403.03 296.60 387.93 304.59 373.94 313.93 C 372.23 315.26 369.26 314.26 367.25 314.30 C 374.38 307.37 382.42 301.11 390.87 295.87 C 398.85 290.59 406.73 285.38 415.53 281.53 C 431.03 273.93 447.53 268.48 464.53 265.42 C 467.47 264.86 470.33 265.19 472.53 267.39 Z" fill="#f0eae6" />
<path d="M 555.95 264.54 C 554.33 266.76 552.91 269.11 551.58 271.51 C 550.81 271.37 550.03 271.23 549.25 271.08 C 551.25 268.61 552.60 265.30 555.95 264.54 Z" fill="#d3959c" />
<path d="M 555.95 264.54 C 561.25 264.98 566.51 266.29 571.66 267.55 C 585.09 271.15 597.98 275.29 610.31 281.83 C 605.76 280.98 601.74 279.72 597.50 277.88 C 598.01 278.78 598.53 279.68 599.04 280.58 C 592.10 279.51 585.47 280.20 578.71 278.38 C 570.18 276.07 561.52 274.35 552.85 272.66 C 551.79 278.15 552.05 282.34 554.21 287.46 C 553.43 287.41 552.64 287.35 551.85 287.29 C 550.96 287.16 550.06 287.03 549.16 286.90 C 548.72 281.89 547.63 275.93 549.25 271.08 C 550.03 271.23 550.81 271.37 551.58 271.51 C 552.91 269.11 554.33 266.76 555.95 264.54 Z" fill="#e91516" />
<path d="M 489.43 266.23 C 494.78 265.22 500.55 265.69 506.00 265.59 C 515.78 265.68 525.82 265.31 535.53 266.51 C 537.98 269.05 538.50 273.60 538.66 276.96 C 537.84 277.97 536.97 278.96 536.07 279.90 C 534.72 279.72 533.36 279.54 532.01 279.34 C 524.29 277.85 515.88 278.28 508.00 278.17 C 500.98 278.30 494.60 277.62 487.83 279.98 C 486.96 279.01 486.12 278.11 485.56 276.93 C 485.40 273.26 487.67 269.35 489.43 266.23 Z" fill="#f8f9f8" />
<path d="M 470.96 268.05 C 472.83 268.85 473.23 271.33 473.87 273.07 C 473.77 277.69 472.93 282.34 471.92 286.84 C 464.21 287.94 456.71 289.33 449.19 291.40 C 446.98 289.95 445.04 288.39 442.56 287.40 L 442.09 287.46 C 437.13 288.49 432.03 289.66 427.40 291.67 C 421.73 294.17 415.80 294.86 410.56 298.49 C 404.59 302.51 397.81 303.47 392.34 308.04 C 387.16 312.35 382.08 316.77 377.31 321.53 C 377.98 323.12 378.65 324.72 379.28 326.34 C 374.17 324.42 370.67 318.34 367.25 314.30 C 369.26 314.26 372.23 315.26 373.94 313.93 C 387.93 304.59 403.03 296.60 418.06 289.05 C 433.23 281.68 449.09 275.87 465.68 272.64 C 465.74 271.75 465.80 270.87 465.86 269.98 C 450.64 271.34 437.82 277.42 423.55 282.17 L 421.69 281.22 C 430.31 277.07 439.27 274.56 448.25 271.33 C 452.99 269.60 457.74 268.82 462.74 267.74 C 465.34 267.26 468.52 266.74 470.96 268.05 Z" fill="#e80206" />
<path d="M 552.85 272.66 C 561.52 274.35 570.18 276.07 578.71 278.38 C 585.47 280.20 592.10 279.51 599.04 280.58 C 598.53 279.68 598.01 278.78 597.50 277.88 C 601.74 279.72 605.76 280.98 610.31 281.83 C 628.11 289.96 644.59 301.23 659.40 313.97 C 655.08 318.62 650.37 322.85 645.79 327.23 C 642.64 325.41 639.53 323.52 636.49 321.51 C 626.97 315.10 616.88 309.49 606.61 304.40 C 589.17 296.56 570.57 291.07 551.85 287.29 C 552.64 287.35 553.43 287.41 554.21 287.46 C 552.05 282.34 551.79 278.15 552.85 272.66 Z" fill="#e40002" />
<path d="M 508.00 278.17 C 515.88 278.28 524.29 277.85 532.01 279.34 C 533.01 280.02 533.99 280.72 534.97 281.42 C 523.66 281.92 512.31 282.19 500.99 281.94 C 497.85 281.85 494.88 282.54 491.87 283.36 L 491.09 283.42 C 490.03 282.25 488.93 281.12 487.83 279.98 C 494.60 277.62 500.98 278.30 508.00 278.17 Z" fill="#ee1112" />
<path d="M 421.69 281.22 L 423.55 282.17 C 412.65 287.05 402.15 292.71 392.03 299.03 C 388.90 300.91 385.65 304.17 382.06 304.91 C 382.83 303.71 383.86 302.78 384.99 301.92 C 396.66 293.89 408.40 286.34 421.69 281.22 Z" fill="#702b20" />
<path d="M 442.09 287.46 L 442.56 287.40 C 445.04 288.39 446.98 289.95 449.19 291.40 C 436.91 294.90 425.07 300.07 413.58 305.59 C 401.44 311.54 390.82 319.43 379.28 326.34 C 378.65 324.72 377.98 323.12 377.31 321.53 C 382.08 316.77 387.16 312.35 392.34 308.04 C 397.81 303.47 404.59 302.51 410.56 298.49 C 415.80 294.86 421.73 294.17 427.40 291.67 C 432.03 289.66 437.13 288.49 442.09 287.46 Z" fill="#d80001" />
<path d="M 512.57 303.39 C 505.95 306.16 499.88 304.93 492.97 305.79 C 484.20 306.84 475.59 308.84 466.83 309.92 C 469.24 308.90 471.50 307.63 473.83 306.43 C 486.49 304.08 499.70 303.23 512.57 303.39 Z" fill="#e3a19d" />
<path d="M 512.57 303.39 C 516.51 303.28 520.44 303.53 524.38 303.81 C 520.63 304.78 516.89 305.59 513.06 306.17 C 512.46 307.83 512.34 310.50 510.35 311.07 C 500.61 315.21 492.10 311.59 482.20 312.96 C 477.41 313.64 472.76 314.03 467.91 314.00 C 464.25 313.98 461.03 315.23 457.53 316.00 C 454.37 316.71 451.57 316.06 448.45 315.66 C 454.41 313.13 460.45 311.14 466.83 309.92 C 475.59 308.84 484.20 306.84 492.97 305.79 C 499.88 304.93 505.95 306.16 512.57 303.39 Z" fill="#ec141b" />
<path d="M 524.38 303.81 C 534.46 304.15 544.41 305.56 554.26 307.71 C 546.01 307.69 537.30 305.93 529.47 308.03 C 525.93 309.36 522.74 311.88 519.68 314.09 C 518.38 314.96 518.46 316.36 519.14 317.63 C 520.93 319.06 523.17 320.01 525.29 320.86 C 511.85 320.54 498.07 320.57 484.77 322.74 C 473.89 324.25 463.45 326.95 452.88 329.97 C 448.76 327.97 444.84 328.36 440.38 327.60 C 440.48 328.26 440.59 328.93 440.70 329.59 C 439.59 328.99 438.48 328.38 437.34 327.83 C 436.90 328.81 436.48 329.80 436.06 330.79 C 433.21 331.32 430.45 332.12 427.69 332.98 C 424.48 333.96 421.15 333.99 417.97 334.98 C 415.44 335.78 413.40 337.13 411.08 338.36 C 407.56 340.08 404.01 341.69 400.66 343.74 C 397.18 345.86 394.66 346.67 390.62 345.56 C 395.03 343.84 397.84 340.52 401.97 338.00 C 408.88 333.72 416.27 330.12 423.51 326.44 C 428.78 323.55 434.15 320.91 439.83 318.91 C 441.21 319.38 442.24 318.96 442.90 317.67 C 444.74 316.97 446.59 316.30 448.45 315.66 C 451.57 316.06 454.37 316.71 457.53 316.00 C 461.03 315.23 464.25 313.98 467.91 314.00 C 472.76 314.03 477.41 313.64 482.20 312.96 C 492.10 311.59 500.61 315.21 510.35 311.07 C 512.34 310.50 512.46 307.83 513.06 306.17 C 516.89 305.59 520.63 304.78 524.38 303.81 Z" fill="#e20c0f" />
<path d="M 381.39 305.46 C 379.45 308.71 375.91 311.25 372.13 311.79 C 374.26 309.59 376.69 307.62 379.30 305.99 C 379.95 305.70 380.64 305.52 381.39 305.46 Z" fill="#be3e31" />
<path d="M 554.26 307.71 C 569.59 310.47 584.53 315.86 598.66 322.34 C 611.57 328.49 623.63 337.04 634.73 345.98 L 635.68 346.42 C 647.05 336.54 657.68 325.89 666.78 313.85 C 670.86 317.58 674.89 321.36 679.03 325.02 C 671.42 329.89 664.84 337.09 658.61 343.60 C 650.62 351.76 643.33 360.57 635.26 368.63 C 629.92 364.36 624.81 359.76 619.31 355.69 C 607.93 347.39 596.11 340.07 583.08 334.63 C 569.34 328.85 555.06 324.55 540.23 322.73 C 535.27 321.94 530.29 321.35 525.29 320.86 C 523.17 320.01 520.93 319.06 519.14 317.63 C 518.46 316.36 518.38 314.96 519.68 314.09 C 522.74 311.88 525.93 309.36 529.47 308.03 C 537.30 305.93 546.01 307.69 554.26 307.71 Z" fill="#e40001" />
<path d="M 473.83 306.43 C 471.50 307.63 469.24 308.90 466.83 309.92 C 460.45 311.14 454.41 313.13 448.45 315.66 C 446.59 316.30 444.74 316.97 442.90 317.67 C 441.58 317.34 440.55 317.76 439.83 318.91 C 434.15 320.91 428.78 323.55 423.51 326.44 C 416.27 330.12 408.88 333.72 401.97 338.00 C 397.84 340.52 395.03 343.84 390.62 345.56 C 391.90 343.86 393.22 342.23 394.88 340.88 C 402.33 334.82 410.43 330.43 418.77 325.78 C 436.14 316.58 454.37 309.65 473.83 306.43 Z" fill="#f4f8f8" />
<path d="M 359.97 311.43 C 360.45 312.11 360.93 312.80 361.40 313.49 C 360.66 313.90 359.93 314.30 359.20 314.71 C 356.73 316.04 354.49 317.70 352.61 319.78 C 351.02 321.48 349.44 323.18 347.72 324.76 C 346.38 325.97 345.02 327.15 343.73 328.42 C 341.77 330.47 340.47 333.28 339.08 335.74 C 338.27 334.73 337.46 333.72 336.65 332.70 C 340.22 327.82 345.09 323.63 349.62 319.64 C 352.99 316.85 356.29 313.80 359.97 311.43 Z" fill="#ddcec2" />
<path d="M 665.71 312.88 L 666.78 313.85 C 657.68 325.89 647.05 336.54 635.68 346.42 L 634.73 345.98 C 637.97 342.81 641.14 339.56 644.41 336.41 C 652.15 328.94 658.69 320.94 665.71 312.88 Z" fill="#d2806e" />
<path d="M 361.40 313.49 C 364.15 317.76 367.35 321.50 370.41 325.58 C 374.40 330.89 378.28 336.24 383.14 340.87 C 385.31 342.95 387.85 344.44 390.62 345.56 C 394.66 346.67 397.18 345.86 400.66 343.74 C 404.01 341.69 407.56 340.08 411.08 338.36 C 411.11 342.73 409.22 346.30 407.13 350.01 C 410.24 348.37 413.12 347.45 416.58 346.87 C 406.52 353.42 396.83 360.27 388.00 368.45 C 382.57 363.13 377.01 357.71 372.03 351.98 C 364.18 342.75 356.47 333.15 347.72 324.76 C 349.44 323.18 351.02 321.48 352.61 319.78 C 352.08 321.23 351.65 322.70 351.23 324.18 C 354.56 321.52 357.58 318.78 359.20 314.71 C 359.93 314.30 360.66 313.90 361.40 313.49 Z" fill="#e40002" />
<path d="M 359.20 314.71 C 357.58 318.78 354.56 321.52 351.23 324.18 C 351.65 322.70 352.08 321.23 352.61 319.78 C 354.49 317.70 356.73 316.04 359.20 314.71 Z" fill="#a05946" />
<path d="M 442.90 317.67 C 442.24 318.96 441.21 319.38 439.83 318.91 C 440.55 317.76 441.58 317.34 442.90 317.67 Z" fill="#ae5756" />
<path d="M 525.29 320.86 C 530.29 321.35 535.27 321.94 540.23 322.73 C 536.66 323.02 533.16 323.68 529.62 324.12 C 518.91 323.15 508.25 323.43 497.54 324.10 C 493.32 323.90 489.00 323.12 484.77 322.74 C 498.07 320.57 511.85 320.54 525.29 320.86 Z" fill="#500000" />
<path d="M 484.77 322.74 C 489.00 323.12 493.32 323.90 497.54 324.10 C 479.82 327.35 460.66 330.17 444.01 336.99 C 438.95 338.77 434.20 341.20 429.28 343.32 C 427.33 344.24 425.68 343.57 423.71 343.18 C 432.88 337.33 442.74 334.06 452.88 329.97 C 463.45 326.95 473.89 324.25 484.77 322.74 Z" fill="#2d0000" />
<path d="M 540.23 322.73 C 555.06 324.55 569.34 328.85 583.08 334.63 C 580.41 334.73 577.59 335.52 574.94 335.18 C 571.70 333.77 568.85 331.74 565.39 330.79 C 564.92 330.47 564.45 330.16 563.99 329.85 C 560.12 329.75 556.30 329.52 552.52 328.61 C 544.95 326.76 537.23 325.77 529.62 324.12 C 533.16 323.68 536.66 323.02 540.23 322.73 Z" fill="#200000" />
<path d="M 437.34 327.83 C 438.48 328.38 439.59 328.99 440.70 329.59 C 440.59 328.93 440.48 328.26 440.38 327.60 C 444.84 328.36 448.76 327.97 452.88 329.97 C 442.74 334.06 432.88 337.33 423.71 343.18 C 421.39 344.51 419.00 345.73 416.58 346.87 C 413.12 347.45 410.24 348.37 407.13 350.01 C 409.22 346.30 411.11 342.73 411.08 338.36 C 413.40 337.13 415.44 335.78 417.97 334.98 C 421.15 333.99 424.48 333.96 427.69 332.98 C 430.45 332.12 433.21 331.32 436.06 330.79 C 436.48 329.80 436.90 328.81 437.34 327.83 Z" fill="#d80207" />
<path d="M 343.73 328.42 C 345.47 330.64 347.21 332.84 349.09 334.93 C 360.32 346.96 370.93 361.94 383.83 372.42 C 378.08 379.08 372.13 385.58 366.46 392.32 C 365.60 391.57 364.73 390.82 363.86 390.09 C 362.85 391.56 361.92 393.06 360.97 394.56 C 360.05 394.25 359.13 393.95 358.21 393.64 C 357.64 395.75 357.07 397.86 356.50 399.96 C 355.62 398.62 354.74 397.28 353.87 395.94 C 353.91 399.65 353.49 402.94 352.52 406.52 C 351.95 405.22 351.39 403.91 350.82 402.60 C 350.01 405.56 349.29 408.53 348.68 411.53 C 347.73 410.81 346.78 410.09 345.83 409.37 C 345.28 412.09 344.86 414.80 344.57 417.55 C 343.72 416.68 342.87 415.82 342.02 414.95 C 341.12 416.19 340.21 417.43 339.31 418.68 C 339.04 417.48 338.77 416.28 338.49 415.08 C 338.09 416.33 337.68 417.58 337.26 418.82 C 336.11 419.49 334.87 420.13 333.85 420.99 C 332.89 422.63 332.50 424.66 331.99 426.47 C 331.45 426.71 330.90 426.95 330.36 427.19 C 331.70 421.11 334.24 415.66 337.33 410.30 C 337.82 411.53 338.31 412.77 338.79 414.00 C 339.13 408.28 340.64 402.99 342.83 397.72 C 346.80 391.77 351.31 386.15 355.19 380.13 C 356.43 378.20 357.42 376.21 357.56 373.87 C 355.43 364.85 351.61 356.82 347.36 348.64 C 344.98 344.09 342.32 339.72 339.08 335.74 C 340.47 333.28 341.77 330.47 343.73 328.42 Z" fill="#e00203" />
<path d="M 678.98 327.48 C 682.25 328.70 684.37 331.10 686.59 333.66 C 676.80 345.10 668.72 358.87 664.56 373.37 C 663.31 378.04 666.34 380.73 668.77 384.22 C 673.54 390.24 677.54 396.73 681.25 403.43 C 680.72 404.35 680.24 405.29 679.83 406.26 C 680.38 409.38 682.84 412.36 683.18 415.54 C 683.14 417.74 682.03 420.00 681.33 422.07 C 682.66 424.45 684.48 426.97 685.05 429.65 C 685.29 432.35 684.36 435.23 683.85 437.86 C 684.56 436.89 685.27 435.92 685.98 434.96 C 689.35 439.93 688.78 445.32 690.73 450.73 C 692.27 455.16 693.15 459.74 694.96 464.08 C 698.07 472.19 698.54 480.62 697.97 489.21 C 697.08 487.08 696.05 485.03 694.99 482.98 C 694.80 484.39 694.62 485.81 694.47 487.22 C 692.05 469.21 686.93 451.84 679.91 435.10 C 674.44 421.99 667.07 409.61 659.15 397.84 C 652.77 389.19 645.92 380.72 638.56 372.89 C 640.64 370.86 642.75 368.85 644.87 366.85 C 649.75 362.33 653.75 357.01 658.63 352.47 C 661.12 351.06 663.45 349.52 665.41 347.41 C 670.30 342.18 675.59 337.41 680.25 331.98 C 681.37 333.09 682.51 334.18 683.68 335.24 C 682.12 332.61 680.38 330.18 678.98 327.48 Z" fill="#d20000" />
<path d="M 678.90 330.64 L 680.25 331.98 C 675.59 337.41 670.30 342.18 665.41 347.41 C 663.45 349.52 661.12 351.06 658.63 352.47 C 665.14 344.97 672.33 338.11 678.90 330.64 Z" fill="#eb2c1e" />
<path d="M 532.24 333.99 C 531.75 334.77 531.26 335.57 530.77 336.36 C 508.31 334.71 485.26 334.99 463.50 341.44 C 453.49 344.24 443.66 347.54 434.23 351.96 C 433.36 351.62 432.49 351.28 431.61 350.96 C 449.81 342.01 469.59 335.99 489.75 333.70 C 503.86 332.38 518.16 332.34 532.24 333.99 Z" fill="#c90000" />
<path d="M 532.24 333.99 C 541.59 334.80 550.70 336.83 559.74 339.29 C 576.11 343.27 591.80 351.06 606.01 360.00 C 614.79 365.37 622.85 372.56 630.66 379.33 C 637.68 385.94 644.17 393.28 650.15 400.85 C 662.04 417.36 672.70 435.88 678.56 455.45 C 682.04 465.72 684.78 476.20 685.96 487.00 C 687.26 499.33 688.02 511.43 686.88 523.81 C 686.22 534.67 684.95 545.45 682.15 555.99 C 681.43 555.69 680.71 555.40 679.99 555.10 C 679.12 556.78 678.25 558.46 677.42 560.17 C 677.36 559.35 677.30 558.53 677.23 557.71 C 680.41 544.19 683.42 531.05 683.52 517.05 C 683.50 508.46 683.95 499.52 682.76 491.03 C 681.31 480.34 679.07 469.59 675.66 459.35 C 671.86 446.98 666.89 434.84 660.42 423.61 C 652.77 409.31 643.04 395.93 631.35 384.66 C 624.75 378.66 618.21 372.20 610.86 367.14 C 600.84 360.34 590.27 353.19 578.84 349.05 C 563.67 342.74 547.22 337.56 530.77 336.36 C 531.26 335.57 531.75 334.77 532.24 333.99 Z" fill="#f00603" />
<path d="M 530.77 336.36 C 547.22 337.56 563.67 342.74 578.84 349.05 C 590.27 353.19 600.84 360.34 610.86 367.14 C 618.21 372.20 624.75 378.66 631.35 384.66 C 643.04 395.93 652.77 409.31 660.42 423.61 C 666.89 434.84 671.86 446.98 675.66 459.35 C 679.07 469.59 681.31 480.34 682.76 491.03 C 683.95 499.52 683.50 508.46 683.52 517.05 C 683.42 531.05 680.41 544.19 677.23 557.71 C 672.24 573.16 665.61 588.22 657.17 602.10 C 651.91 610.52 646.71 618.60 640.01 626.01 C 634.13 632.50 627.96 638.63 621.20 644.21 C 615.49 649.44 609.22 653.89 602.53 657.78 C 598.64 659.76 594.80 661.86 590.99 664.01 C 587.32 666.04 584.20 668.65 580.42 670.49 C 576.99 672.15 573.38 673.45 569.83 674.82 C 554.34 680.21 538.49 684.00 522.04 684.76 C 511.89 685.82 501.89 684.93 491.75 684.27 C 479.53 682.93 467.11 680.70 455.54 676.47 C 435.71 670.02 417.04 659.14 400.62 646.37 C 389.39 637.02 378.76 626.68 370.24 614.77 C 364.19 606.08 357.91 598.15 353.40 588.50 C 347.00 574.49 340.89 561.19 337.99 545.93 C 336.17 536.17 334.38 525.97 334.36 516.03 C 334.28 507.01 333.85 497.44 335.37 488.55 C 337.41 474.59 340.34 460.97 345.78 447.89 C 350.04 436.18 355.67 424.89 362.44 414.43 C 368.27 406.19 374.30 397.55 381.45 390.45 C 396.26 374.37 414.59 361.45 434.23 351.96 C 443.66 347.54 453.49 344.24 463.50 341.44 C 485.26 334.99 508.31 334.71 530.77 336.36 Z" fill="#000000" />
<path d="M 431.61 350.96 C 432.49 351.28 433.36 351.62 434.23 351.96 C 414.59 361.45 396.26 374.37 381.45 390.45 C 374.30 397.55 368.27 406.19 362.44 414.43 C 355.67 424.89 350.04 436.18 345.78 447.89 C 340.34 460.97 337.41 474.59 335.37 488.55 C 333.85 497.44 334.28 507.01 334.36 516.03 C 334.38 525.97 336.17 536.17 337.99 545.93 C 336.93 545.94 335.87 545.94 334.82 545.94 C 331.70 532.17 330.99 517.62 331.35 503.53 C 331.65 490.91 334.02 478.98 336.75 466.70 C 345.72 434.36 362.94 404.53 387.54 381.57 C 394.67 375.32 401.14 369.19 409.15 364.21 C 416.78 359.43 423.45 354.31 431.61 350.96 Z" fill="#ba0000" />
<path d="M 324.99 353.16 C 331.57 352.97 336.04 359.75 334.95 365.85 C 334.30 369.25 331.95 372.21 329.95 374.95 C 323.11 384.27 316.19 393.44 310.63 403.62 C 308.11 407.40 306.13 413.19 302.16 415.57 C 299.64 415.55 297.18 415.24 294.80 414.38 C 296.79 414.20 298.76 413.92 300.74 413.64 C 304.61 407.08 307.54 400.09 311.64 393.65 C 316.72 385.73 321.45 377.82 327.57 370.62 C 330.00 367.55 332.54 364.66 331.65 360.43 C 330.77 356.64 326.47 355.70 323.25 357.07 C 320.08 358.42 317.90 362.27 315.99 365.00 C 308.90 375.35 302.34 386.03 295.61 396.62 C 293.45 400.04 291.56 403.62 289.85 407.29 C 289.73 405.46 289.63 403.62 289.59 401.78 C 289.95 400.43 290.30 399.07 290.67 397.72 C 291.01 397.13 291.35 396.54 291.70 395.96 C 293.70 393.81 295.55 391.56 297.06 389.03 C 299.91 384.29 303.02 379.92 304.82 374.63 C 305.42 373.73 306.03 372.84 306.65 371.95 C 309.62 369.62 310.59 368.16 311.74 364.55 C 314.68 360.28 319.00 352.71 324.99 353.16 Z" fill="#e90b09" />
<path d="M 700.26 354.74 C 697.81 355.57 695.39 356.55 692.98 357.51 C 692.88 358.11 692.79 358.70 692.69 359.29 C 692.21 361.92 691.74 364.55 691.43 367.20 C 690.56 366.34 689.65 365.51 688.74 364.68 C 689.34 361.37 690.16 358.09 693.03 356.00 C 695.21 354.40 697.70 354.52 700.26 354.74 Z" fill="#d7472e" />
<path d="M 700.26 354.74 C 704.52 356.64 707.53 361.08 710.38 364.62 C 717.75 373.65 723.93 384.10 729.84 394.16 C 732.73 399.46 736.55 405.72 735.43 411.99 C 733.58 417.01 726.07 418.05 721.63 416.34 C 717.46 415.13 715.66 411.90 713.56 408.44 C 706.79 396.71 699.10 385.67 691.51 374.47 C 689.36 371.40 688.68 368.42 688.74 364.68 C 689.65 365.51 690.56 366.34 691.43 367.20 C 701.99 380.45 710.50 395.51 718.79 410.24 C 721.06 414.64 727.29 414.72 730.66 411.66 C 732.61 410.29 731.75 407.67 731.18 405.80 C 729.16 400.63 725.72 395.89 722.90 391.11 C 720.56 387.15 718.26 383.17 715.61 379.39 C 711.30 373.03 707.42 365.52 702.33 359.69 C 699.36 356.68 696.12 358.28 692.69 359.29 C 692.79 358.70 692.88 358.11 692.98 357.51 C 695.39 356.55 697.81 355.57 700.26 354.74 Z" fill="#f30a0a" />
<path d="M 323.25 357.07 C 326.47 355.70 330.77 356.64 331.65 360.43 C 332.54 364.66 330.00 367.55 327.57 370.62 C 321.45 377.82 316.72 385.73 311.64 393.65 C 307.54 400.09 304.61 407.08 300.74 413.64 C 298.76 413.92 296.79 414.20 294.80 414.38 C 293.37 413.88 291.84 413.30 290.82 412.12 C 290.06 410.67 289.94 408.90 289.85 407.29 C 291.56 403.62 293.45 400.04 295.61 396.62 C 302.34 386.03 308.90 375.35 315.99 365.00 C 317.90 362.27 320.08 358.42 323.25 357.07 Z" fill="#f9f9f8" />
<path d="M 702.33 359.69 C 707.42 365.52 711.30 373.03 715.61 379.39 C 718.26 383.17 720.56 387.15 722.90 391.11 C 725.72 395.89 729.16 400.63 731.18 405.80 C 731.75 407.67 732.61 410.29 730.66 411.66 C 727.29 414.72 721.06 414.64 718.79 410.24 C 710.50 395.51 701.99 380.45 691.43 367.20 C 691.74 364.55 692.21 361.92 692.69 359.29 C 696.12 358.28 699.36 356.68 702.33 359.69 Z" fill="#f4f5f5" />
<path d="M 311.74 364.55 C 310.59 368.16 309.62 369.62 306.65 371.95 C 308.22 369.36 309.89 366.94 311.74 364.55 Z" fill="#d44f49" />
<path d="M 357.56 373.87 C 357.42 376.21 356.43 378.20 355.19 380.13 C 351.31 386.15 346.80 391.77 342.83 397.72 C 328.68 418.26 317.96 440.93 312.25 465.26 C 311.14 469.92 310.59 475.69 307.89 479.70 C 308.67 476.46 309.66 473.29 310.25 470.00 C 313.84 446.23 323.06 423.21 335.98 402.97 C 342.50 392.77 350.56 383.68 357.56 373.87 Z" fill="#d5b1b2" />
<path d="M 536.47 377.09 C 531.56 377.29 526.65 377.28 521.74 377.38 C 520.88 377.38 520.03 377.38 519.17 377.39 C 504.97 375.42 490.47 375.05 477.36 381.73 C 472.20 384.00 467.72 387.01 463.83 391.12 C 462.94 390.59 462.05 390.07 461.15 389.55 C 463.14 387.18 465.08 384.74 467.20 382.47 C 488.58 372.54 513.77 371.56 536.47 377.09 Z" fill="#c80000" />
<path d="M 304.82 374.63 C 303.02 379.92 299.91 384.29 297.06 389.03 C 295.55 391.56 293.70 393.81 291.70 395.96 C 295.53 388.57 299.85 381.32 304.82 374.63 Z" fill="#ce6157" />
<path d="M 519.17 377.39 C 510.87 377.93 502.74 378.96 494.92 381.94 C 494.06 382.21 493.20 382.51 492.35 382.82 C 487.32 381.04 482.51 383.27 477.36 381.73 C 490.47 375.05 504.97 375.42 519.17 377.39 Z" fill="#eeece8" />
<path d="M 536.47 377.09 C 543.18 378.27 549.59 380.46 555.83 383.17 C 561.74 385.75 567.01 389.53 572.29 393.18 C 571.18 393.25 570.08 393.36 568.99 393.48 C 572.62 397.44 576.40 401.13 579.39 405.63 C 584.74 413.68 589.76 422.07 592.75 431.31 C 593.36 433.27 594.10 435.40 594.09 437.47 C 593.47 438.03 592.81 438.55 592.11 439.03 C 583.97 435.88 576.60 432.51 567.77 431.83 C 568.44 430.22 569.40 428.81 569.11 427.00 C 566.80 412.06 559.16 398.13 546.90 389.10 C 539.53 382.99 531.03 379.42 521.74 377.38 C 526.65 377.28 531.56 377.29 536.47 377.09 Z" fill="#a00000" />
<path d="M 519.17 377.39 C 520.03 377.38 520.88 377.38 521.74 377.38 C 531.03 379.42 539.53 382.99 546.90 389.10 C 559.16 398.13 566.80 412.06 569.11 427.00 C 569.40 428.81 568.44 430.22 567.77 431.83 C 576.60 432.51 583.97 435.88 592.11 439.03 C 597.61 441.77 602.64 445.45 607.96 448.53 C 611.19 450.54 614.55 452.33 617.84 454.24 C 621.53 459.54 624.37 465.24 625.52 471.65 C 628.69 487.58 626.45 504.36 620.31 519.32 C 619.62 520.73 618.85 522.59 617.48 523.46 C 615.43 524.05 613.21 524.18 611.09 524.41 C 615.75 519.86 618.11 514.88 619.52 508.57 C 621.97 497.46 624.72 484.66 622.57 473.37 C 621.14 464.98 616.52 457.41 609.74 452.28 C 602.89 447.15 595.36 442.69 587.33 439.68 C 578.10 436.31 568.58 434.00 558.91 432.22 C 546.98 430.14 535.15 428.58 523.00 428.51 C 510.82 428.41 498.60 428.45 486.43 429.19 C 484.72 428.34 483.31 427.38 481.33 427.45 C 476.85 427.53 472.39 427.98 467.91 427.94 C 469.86 427.01 471.83 426.09 473.79 425.17 C 472.95 423.89 472.12 422.61 471.28 421.32 C 472.65 420.76 474.02 420.20 475.39 419.64 C 474.01 417.21 472.70 415.10 473.48 412.16 C 474.99 404.82 481.37 402.00 484.92 395.88 C 487.04 391.69 491.59 390.45 493.56 386.11 C 495.49 385.73 497.42 385.39 499.36 385.05 C 497.89 383.99 496.44 382.94 494.92 381.94 C 502.74 378.96 510.87 377.93 519.17 377.39 Z" fill="#e10002" />
<path d="M 492.35 382.82 C 481.00 387.72 471.03 396.30 465.38 407.39 C 462.01 414.08 461.70 420.97 461.43 428.32 C 457.16 429.41 452.91 430.58 448.62 431.60 C 447.42 431.85 446.23 432.10 445.03 432.32 C 446.53 416.85 453.30 402.48 463.83 391.12 C 467.72 387.01 472.20 384.00 477.36 381.73 C 482.51 383.27 487.32 381.04 492.35 382.82 Z" fill="#f9f9f8" />
<path d="M 494.92 381.94 C 496.44 382.94 497.89 383.99 499.36 385.05 C 497.42 385.39 495.49 385.73 493.56 386.11 C 491.59 390.45 487.04 391.69 484.92 395.88 C 481.37 402.00 474.99 404.82 473.48 412.16 C 472.70 415.10 474.01 417.21 475.39 419.64 C 474.02 420.20 472.65 420.76 471.28 421.32 C 472.12 422.61 472.95 423.89 473.79 425.17 C 471.83 426.09 469.86 427.01 467.91 427.94 C 472.39 427.98 476.85 427.53 481.33 427.45 C 483.31 427.38 484.72 428.34 486.43 429.19 C 474.37 430.16 462.05 431.43 450.26 434.20 C 449.71 433.33 449.17 432.47 448.62 431.60 C 452.91 430.58 457.16 429.41 461.43 428.32 C 461.70 420.97 462.01 414.08 465.38 407.39 C 471.03 396.30 481.00 387.72 492.35 382.82 C 493.20 382.51 494.06 382.21 494.92 381.94 Z" fill="#f00b0f" />
<path d="M 467.20 382.47 C 465.08 384.74 463.14 387.18 461.15 389.55 C 462.05 390.07 462.94 390.59 463.83 391.12 C 453.30 402.48 446.53 416.85 445.03 432.32 C 446.23 432.10 447.42 431.85 448.62 431.60 C 449.17 432.47 449.71 433.33 450.26 434.20 C 441.91 436.13 433.94 440.02 426.15 443.52 C 425.89 442.13 425.63 440.74 425.37 439.35 C 430.27 437.31 435.34 435.67 440.31 433.79 C 441.23 422.39 446.11 411.07 452.17 401.46 C 453.16 399.92 454.18 398.41 455.21 396.90 C 456.83 394.49 458.37 392.03 459.83 389.52 C 457.11 390.71 454.46 391.98 452.10 393.81 C 451.34 394.40 450.60 395.00 449.87 395.62 C 435.66 407.63 422.83 423.48 418.06 441.76 L 419.85 442.00 C 415.22 446.75 409.66 448.80 406.42 454.81 C 409.27 452.76 412.15 450.98 415.38 449.61 C 411.76 453.14 408.30 456.37 405.90 460.90 C 401.86 468.53 400.25 477.41 400.23 485.99 C 400.23 498.83 402.65 511.48 408.08 523.15 C 406.39 523.13 404.70 523.09 403.00 523.06 C 400.78 518.54 398.96 513.89 398.08 508.91 C 395.89 497.66 394.42 485.10 396.82 473.80 C 398.41 466.08 401.84 459.44 405.67 452.65 C 411.74 442.04 414.17 430.62 421.61 420.61 C 432.91 404.29 448.84 390.26 467.20 382.47 Z" fill="#e30505" />
<path d="M 363.86 390.09 C 364.73 390.82 365.60 391.57 366.46 392.32 C 358.10 402.26 351.00 413.31 344.62 424.61 C 338.29 436.27 334.04 448.56 330.22 461.23 C 326.77 472.53 325.09 484.71 323.62 496.45 C 322.67 511.71 323.39 527.14 325.98 542.22 C 328.41 554.58 331.85 566.95 336.21 578.77 C 335.42 577.91 334.61 577.08 333.77 576.27 C 331.59 577.96 328.16 580.42 327.80 583.32 C 328.02 588.02 332.06 592.72 333.47 597.13 C 333.96 599.26 333.30 601.74 333.09 603.88 C 334.67 602.72 336.28 601.58 337.88 600.43 C 339.03 606.37 341.25 611.41 340.77 617.57 C 341.74 617.66 342.72 617.75 343.69 617.85 C 344.26 620.75 344.96 623.60 345.83 626.43 C 345.48 627.09 345.12 627.75 344.77 628.42 C 347.95 632.76 351.11 636.96 353.03 642.06 C 349.60 637.77 346.09 633.57 343.06 628.98 C 333.29 614.42 324.56 598.68 318.99 582.01 C 314.14 568.61 311.64 555.09 308.85 541.17 C 308.29 538.23 307.61 535.89 305.06 534.07 C 302.10 531.30 298.55 528.86 297.77 524.61 C 295.70 511.16 297.21 498.72 297.62 485.49 C 300.87 483.69 304.20 482.16 307.29 480.08 L 307.89 479.70 C 310.59 475.69 311.14 469.92 312.25 465.26 C 317.96 440.93 328.68 418.26 342.83 397.72 C 340.64 402.99 339.13 408.28 338.79 414.00 C 338.31 412.77 337.82 411.53 337.33 410.30 C 334.24 415.66 331.70 421.11 330.36 427.19 C 330.90 426.95 331.45 426.71 331.99 426.47 C 332.50 424.66 332.89 422.63 333.85 420.99 C 334.87 420.13 336.11 419.49 337.26 418.82 C 337.68 417.58 338.09 416.33 338.49 415.08 C 338.77 416.28 339.04 417.48 339.31 418.68 C 340.21 417.43 341.12 416.19 342.02 414.95 C 342.87 415.82 343.72 416.68 344.57 417.55 C 344.86 414.80 345.28 412.09 345.83 409.37 C 346.78 410.09 347.73 410.81 348.68 411.53 C 349.29 408.53 350.01 405.56 350.82 402.60 C 351.39 403.91 351.95 405.22 352.52 406.52 C 353.49 402.94 353.91 399.65 353.87 395.94 C 354.74 397.28 355.62 398.62 356.50 399.96 C 357.07 397.86 357.64 395.75 358.21 393.64 C 359.13 393.95 360.05 394.25 360.97 394.56 C 361.92 393.06 362.85 391.56 363.86 390.09 Z" fill="#cd0a0e" />
<path d="M 459.83 389.52 C 458.37 392.03 456.83 394.49 455.21 396.90 C 454.18 395.86 453.16 394.82 452.10 393.81 C 454.46 391.98 457.11 390.71 459.83 389.52 Z" fill="#f07166" />
<path d="M 568.99 393.48 C 570.08 393.36 571.18 393.25 572.29 393.18 C 573.41 393.93 574.50 394.73 575.60 395.51 C 577.03 398.75 579.66 400.56 582.37 402.66 C 590.34 408.83 596.41 416.58 602.31 424.67 C 605.51 429.24 608.74 434.31 610.26 439.72 C 611.29 443.12 609.42 445.64 607.96 448.53 C 602.64 445.45 597.61 441.77 592.11 439.03 C 592.81 438.55 593.47 438.03 594.09 437.47 C 594.10 435.40 593.36 433.27 592.75 431.31 C 589.76 422.07 584.74 413.68 579.39 405.63 C 576.40 401.13 572.62 397.44 568.99 393.48 Z" fill="#800000" />
<path d="M 452.10 393.81 C 453.16 394.82 454.18 395.86 455.21 396.90 C 454.18 398.41 453.16 399.92 452.17 401.46 C 451.41 399.51 450.68 397.55 449.87 395.62 C 450.60 395.00 451.34 394.40 452.10 393.81 Z" fill="#f0c5ad" />
<path d="M 449.87 395.62 C 450.68 397.55 451.41 399.51 452.17 401.46 C 446.11 411.07 441.23 422.39 440.31 433.79 C 435.34 435.67 430.27 437.31 425.37 439.35 C 423.49 440.15 421.66 441.04 419.85 442.00 L 418.06 441.76 C 422.83 423.48 435.66 407.63 449.87 395.62 Z" fill="#f8f9f8" />
<path d="M 575.60 395.51 C 583.43 400.76 590.57 407.15 596.57 414.43 C 602.64 421.83 608.07 429.34 611.81 438.21 C 614.16 443.44 615.68 448.95 617.84 454.24 C 614.55 452.33 611.19 450.54 607.96 448.53 C 609.42 445.64 611.29 443.12 610.26 439.72 C 608.74 434.31 605.51 429.24 602.31 424.67 C 596.41 416.58 590.34 408.83 582.37 402.66 C 579.66 400.56 577.03 398.75 575.60 395.51 Z" fill="#a00000" />
<path d="M 290.67 397.72 C 290.30 399.07 289.95 400.43 289.59 401.78 C 288.33 404.93 286.98 408.05 285.68 411.20 C 285.15 405.71 287.99 402.10 290.67 397.72 Z" fill="#d36250" />
<path d="M 289.59 401.78 C 289.63 403.62 289.73 405.46 289.85 407.29 C 289.94 408.90 290.06 410.67 290.82 412.12 C 291.84 413.30 293.37 413.88 294.80 414.38 C 297.18 415.24 299.64 415.55 302.16 415.57 C 299.02 416.51 295.44 417.43 292.16 416.96 C 288.89 416.32 287.29 413.83 285.68 411.20 C 286.98 408.05 288.33 404.93 289.59 401.78 Z" fill="#bb0100" />
<path d="M 681.25 403.43 C 686.14 410.86 689.71 419.29 693.60 427.35 C 699.55 442.23 703.70 458.02 707.74 473.51 C 708.45 476.23 709.89 478.52 711.60 480.71 C 711.66 481.43 711.71 482.15 711.77 482.88 C 713.31 484.09 714.84 485.30 716.38 486.50 C 716.04 492.29 716.23 498.18 715.48 503.93 C 715.07 507.21 713.29 509.55 711.47 512.16 C 708.96 515.66 708.59 519.96 707.59 524.04 C 706.65 528.26 704.80 532.29 704.99 536.60 C 705.13 540.20 705.30 543.73 704.54 547.29 C 703.31 553.74 701.30 559.62 702.17 566.31 C 703.03 563.73 703.79 561.11 704.50 558.48 C 705.15 558.72 705.80 558.96 706.46 559.20 C 705.08 565.42 703.69 571.62 701.74 577.69 C 695.26 597.88 684.83 616.55 673.15 634.16 C 670.75 637.74 667.97 641.14 665.82 644.87 C 664.87 646.68 663.85 648.51 664.44 650.61 C 665.67 654.99 667.97 659.07 669.68 663.29 C 671.25 667.22 673.43 670.78 675.62 674.39 C 677.45 677.38 677.34 680.44 678.47 683.66 C 679.43 686.39 680.76 689.00 681.93 691.66 C 680.95 692.64 679.97 693.63 678.98 694.62 C 669.42 683.34 659.61 672.28 649.51 661.49 C 646.20 658.05 643.34 654.71 638.94 652.62 C 651.61 641.45 661.71 626.99 670.95 612.96 C 674.87 606.45 678.40 599.49 681.37 592.50 C 683.99 586.81 686.38 581.08 688.13 575.06 C 691.02 566.26 693.44 557.35 695.12 548.24 C 696.71 541.29 697.61 534.25 698.31 527.16 C 699.44 517.60 698.77 508.16 697.99 498.61 C 697.87 495.46 697.96 492.36 697.97 489.21 C 698.54 480.62 698.07 472.19 694.96 464.08 C 693.15 459.74 692.27 455.16 690.73 450.73 C 688.78 445.32 689.35 439.93 685.98 434.96 C 685.27 435.92 684.56 436.89 683.85 437.86 C 684.36 435.23 685.29 432.35 685.05 429.65 C 684.48 426.97 682.66 424.45 681.33 422.07 C 682.03 420.00 683.14 417.74 683.18 415.54 C 682.84 412.36 680.38 409.38 679.83 406.26 C 680.24 405.29 680.72 404.35 681.25 403.43 Z" fill="#ba0001" />
<path d="M 279.26 429.43 C 283.96 429.00 288.94 427.91 293.25 430.23 C 288.57 430.38 283.98 430.98 279.33 431.47 C 276.92 437.57 275.09 443.84 273.20 450.10 C 272.13 453.13 270.92 456.11 269.71 459.08 L 268.69 457.70 C 270.81 449.64 272.75 441.44 275.65 433.62 C 276.47 432.02 277.07 429.43 279.26 429.43 Z" fill="#e5b5ad" />
<path d="M 734.34 429.30 C 738.04 429.72 742.38 429.92 744.13 433.82 C 746.72 439.68 747.69 446.34 749.23 452.54 L 748.90 453.93 C 747.86 451.56 746.90 449.16 745.91 446.77 C 746.34 453.58 748.26 460.03 749.32 466.72 C 749.16 468.23 748.99 469.73 748.79 471.23 C 748.08 468.71 747.43 466.16 746.66 463.66 C 744.10 464.73 741.61 465.98 739.13 467.22 C 738.52 469.96 737.50 472.68 737.17 475.47 C 737.25 478.24 738.95 481.06 738.87 483.89 C 738.68 486.71 737.70 489.56 737.06 492.32 C 734.94 476.49 732.09 460.94 727.32 445.66 C 725.71 440.77 723.80 436.01 722.59 430.99 C 726.42 429.63 730.25 428.83 734.34 429.30 Z" fill="#bd0000" />
<path d="M 293.25 430.23 C 293.86 430.47 294.46 430.71 295.06 430.96 C 288.51 445.84 284.96 462.43 282.01 478.37 C 280.72 469.39 283.78 461.80 285.59 453.01 C 284.86 453.47 284.13 453.94 283.40 454.40 C 283.22 452.64 283.04 450.87 282.83 449.11 C 280.69 455.17 276.89 459.72 275.75 465.99 C 274.46 472.82 272.78 479.47 269.91 485.82 C 269.24 483.73 268.54 481.62 267.96 479.50 C 268.30 474.28 268.92 469.08 269.97 463.95 C 271.13 459.35 272.07 454.71 273.20 450.10 C 275.09 443.84 276.92 437.57 279.33 431.47 C 283.98 430.98 288.57 430.38 293.25 430.23 Z" fill="#df151a" />
<path d="M 425.37 439.35 C 425.63 440.74 425.89 442.13 426.15 443.52 C 422.48 445.37 418.99 447.59 415.38 449.61 C 412.15 450.98 409.27 452.76 406.42 454.81 C 409.66 448.80 415.22 446.75 419.85 442.00 C 421.66 441.04 423.49 440.15 425.37 439.35 Z" fill="#d00000" />
<path d="M 460.86 445.17 C 462.44 445.37 464.39 445.25 464.51 447.33 C 466.84 465.31 470.16 483.20 471.96 501.23 C 465.11 502.78 458.81 504.65 452.81 508.40 C 447.35 489.53 443.85 469.55 440.68 450.21 C 447.73 448.46 453.43 445.37 460.86 445.17 Z" fill="#fefefe" />
<path d="M 566.13 445.78 C 563.83 447.43 562.86 448.67 562.33 451.49 C 560.43 461.37 558.85 471.32 557.06 481.22 C 555.74 487.44 554.42 493.62 553.79 499.96 C 557.79 501.75 561.75 503.10 566.01 504.12 C 567.39 500.87 568.63 497.59 569.29 494.11 C 572.12 479.23 574.21 464.19 577.10 449.33 C 578.28 449.75 579.46 450.17 580.64 450.59 C 575.89 469.53 573.00 488.76 568.80 507.81 C 563.18 504.94 557.25 502.96 551.25 501.06 C 552.93 487.33 556.19 473.80 558.12 460.09 C 558.95 455.57 559.40 450.94 560.42 446.47 C 561.88 444.60 564.17 445.47 566.13 445.78 Z" fill="#fdfdfd" />
<path d="M 566.13 445.78 C 569.84 446.72 573.51 447.99 577.10 449.33 C 574.21 464.19 572.12 479.23 569.29 494.11 C 568.63 497.59 567.39 500.87 566.01 504.12 C 561.75 503.10 557.79 501.75 553.79 499.96 C 554.42 493.62 555.74 487.44 557.06 481.22 C 558.85 471.32 560.43 461.37 562.33 451.49 C 562.86 448.67 563.83 447.43 566.13 445.78 Z" fill="#e4e6e7" />
<path d="M 745.91 446.77 C 746.90 449.16 747.86 451.56 748.90 453.93 L 749.23 452.54 C 757.05 479.78 756.75 510.25 754.44 538.28 C 753.04 551.63 750.66 565.14 747.11 578.09 C 745.59 583.09 744.70 588.07 740.93 591.94 C 745.30 575.04 749.45 558.46 751.07 541.02 C 753.18 516.60 753.75 490.91 749.32 466.72 C 748.26 460.03 746.34 453.58 745.91 446.77 Z" fill="#480000" />
<path d="M 282.83 449.11 C 283.04 450.87 283.22 452.64 283.40 454.40 C 284.13 453.94 284.86 453.47 285.59 453.01 C 283.78 461.80 280.72 469.39 282.01 478.37 C 281.81 483.26 281.34 488.12 280.94 493.00 C 280.09 505.18 280.41 517.27 280.93 529.46 C 280.35 533.38 280.02 537.26 280.19 541.23 C 277.56 539.98 274.99 539.67 272.09 539.64 C 271.15 537.11 270.27 534.57 269.43 532.00 C 269.04 534.80 268.57 537.59 268.19 540.39 C 265.79 527.89 265.50 514.70 265.71 502.00 C 265.82 494.44 266.70 486.96 267.96 479.50 C 268.54 481.62 269.24 483.73 269.91 485.82 C 272.78 479.47 274.46 472.82 275.75 465.99 C 276.89 459.72 280.69 455.17 282.83 449.11 Z" fill="#cd0e11" />
<path d="M 273.20 450.10 C 272.07 454.71 271.13 459.35 269.97 463.95 C 267.91 470.79 266.81 477.79 265.94 484.87 C 264.86 492.59 265.45 500.33 264.60 508.09 C 263.99 501.34 263.90 494.54 263.80 487.77 C 264.58 477.64 266.15 467.54 268.69 457.70 L 269.71 459.08 C 270.92 456.11 272.13 453.13 273.20 450.10 Z" fill="#eb8a7f" />
<path d="M 593.27 456.13 C 596.05 456.63 597.85 458.35 599.89 460.13 C 604.43 463.80 607.17 470.13 606.82 475.95 C 606.53 486.01 604.52 496.09 601.74 505.75 C 600.09 510.31 598.95 514.67 594.93 517.74 C 595.68 512.33 598.37 507.88 599.81 502.69 C 601.95 495.22 602.79 487.05 603.62 479.32 C 603.90 475.93 604.28 471.99 603.18 468.74 C 601.92 465.23 598.57 462.53 595.74 460.28 C 594.16 462.36 593.18 464.33 592.81 466.94 C 591.33 476.20 589.64 485.42 588.21 494.69 C 586.81 501.39 585.42 507.98 585.29 514.86 C 586.78 516.00 588.27 517.16 589.73 518.34 C 588.79 518.32 587.84 518.30 586.90 518.26 C 584.42 517.47 582.07 516.04 579.78 514.83 C 580.35 512.38 580.87 509.90 581.53 507.48 C 586.67 490.71 589.18 473.11 593.27 456.13 Z" fill="#f9f9f9" />
<path d="M 427.45 457.00 C 428.05 462.65 428.68 468.21 430.01 473.75 C 432.52 487.65 435.87 501.37 440.23 514.81 C 436.15 516.31 433.61 519.41 429.29 518.70 C 427.35 518.58 426.20 517.36 425.15 515.87 C 421.41 510.38 419.60 504.26 418.02 497.88 C 415.97 488.77 415.05 479.43 415.42 470.10 C 415.44 468.03 416.58 466.42 417.86 464.89 C 420.68 461.76 423.98 459.34 427.45 457.00 Z" fill="#fefefe" />
<path d="M 595.74 460.28 C 598.57 462.53 601.92 465.23 603.18 468.74 C 604.28 471.99 603.90 475.93 603.62 479.32 C 602.79 487.05 601.95 495.22 599.81 502.69 C 598.37 507.88 595.68 512.33 594.93 517.74 C 594.20 518.42 593.47 519.11 592.75 519.79 C 590.79 519.31 588.83 518.84 586.90 518.26 C 587.84 518.30 588.79 518.32 589.73 518.34 C 588.27 517.16 586.78 516.00 585.29 514.86 C 585.42 507.98 586.81 501.39 588.21 494.69 C 589.64 485.42 591.33 476.20 592.81 466.94 C 593.18 464.33 594.16 462.36 595.74 460.28 Z" fill="#e1e2e2" />
<path d="M 746.66 463.66 C 747.43 466.16 748.08 468.71 748.79 471.23 C 748.99 469.73 749.16 468.23 749.32 466.72 C 753.75 490.91 753.18 516.60 751.07 541.02 C 749.45 558.46 745.30 575.04 740.93 591.94 C 736.61 595.01 730.43 594.06 727.47 589.55 C 725.20 586.43 725.90 583.33 726.88 579.90 C 730.71 567.68 733.43 555.10 735.47 542.47 C 738.04 525.78 737.70 509.13 737.06 492.32 C 737.70 489.56 738.68 486.71 738.87 483.89 C 738.95 481.06 737.25 478.24 737.17 475.47 C 737.50 472.68 738.52 469.96 739.13 467.22 C 741.61 465.98 744.10 464.73 746.66 463.66 Z" fill="#a70000" />
<path d="M 269.97 463.95 C 268.92 469.08 268.30 474.28 267.96 479.50 C 266.70 486.96 265.82 494.44 265.71 502.00 C 265.50 514.70 265.79 527.89 268.19 540.39 C 268.56 547.19 269.87 553.81 271.51 560.40 C 273.35 567.86 274.24 575.31 276.67 582.46 C 277.55 585.07 278.46 587.67 279.20 590.33 C 277.60 588.86 276.50 587.32 275.71 585.30 C 272.85 578.15 271.14 570.17 269.26 562.69 C 263.33 538.27 261.62 512.79 263.80 487.77 C 263.90 494.54 263.99 501.34 264.60 508.09 C 265.45 500.33 264.86 492.59 265.94 484.87 C 266.81 477.79 267.91 470.79 269.97 463.95 Z" fill="#e9786b" />
<path d="M 307.29 480.08 C 304.20 482.16 300.87 483.69 297.62 485.49 L 296.04 486.38 C 297.01 481.96 303.52 480.62 307.29 480.08 Z" fill="#c39192" />
<path d="M 711.60 480.71 C 715.77 481.78 719.70 483.41 723.52 485.36 C 724.16 500.68 725.17 516.33 723.68 531.61 C 719.92 533.39 715.18 534.41 711.93 536.96 C 708.93 543.83 708.38 551.94 706.46 559.20 C 705.80 558.96 705.15 558.72 704.50 558.48 C 703.79 561.11 703.03 563.73 702.17 566.31 C 701.30 559.62 703.31 553.74 704.54 547.29 C 705.30 543.73 705.13 540.20 704.99 536.60 C 704.80 532.29 706.65 528.26 707.59 524.04 C 708.59 519.96 708.96 515.66 711.47 512.16 C 713.29 509.55 715.07 507.21 715.48 503.93 C 716.23 498.18 716.04 492.29 716.38 486.50 C 714.84 485.30 713.31 484.09 711.77 482.88 C 711.71 482.15 711.66 481.43 711.60 480.71 Z" fill="#a90000" />
<path d="M 694.99 482.98 C 696.05 485.03 697.08 487.08 697.97 489.21 C 697.96 492.36 697.87 495.46 697.99 498.61 C 697.17 500.10 696.37 501.60 695.65 503.14 C 695.45 497.82 694.84 492.54 694.47 487.22 C 694.62 485.81 694.80 484.39 694.99 482.98 Z" fill="#ff2620" />
<path d="M 296.04 486.38 L 297.62 485.49 C 297.21 498.72 295.70 511.16 297.77 524.61 C 298.55 528.86 302.10 531.30 305.06 534.07 C 301.85 532.68 298.64 531.29 295.53 529.67 C 294.50 515.36 294.31 500.64 296.04 486.38 Z" fill="#d12221" />
<path d="M 389.81 486.11 C 389.19 489.86 388.90 493.51 389.32 497.31 C 389.85 506.44 391.36 515.12 395.75 523.25 C 396.57 524.91 397.84 526.20 397.65 528.11 C 397.08 537.71 395.52 547.21 395.11 556.82 C 394.70 558.56 394.23 560.29 393.79 562.02 C 392.94 552.87 387.01 547.33 384.06 539.02 C 382.29 534.50 382.12 529.98 381.85 525.19 C 380.74 526.23 379.63 527.26 378.51 528.28 C 376.34 524.68 375.93 521.02 375.78 516.89 C 375.37 518.19 374.96 519.48 374.54 520.78 C 374.11 520.10 373.68 519.42 373.25 518.74 C 374.03 510.57 376.44 502.71 380.68 495.67 C 383.10 491.86 386.39 488.98 389.81 486.11 Z" fill="#fbfbfc" />
<path d="M 635.63 488.80 C 638.64 490.13 640.68 491.81 642.27 494.72 C 646.51 502.47 649.57 511.13 650.02 520.00 C 650.69 530.98 649.31 542.33 645.77 552.76 C 642.46 562.56 634.99 571.18 625.61 575.58 L 625.63 573.33 C 629.46 570.51 633.25 568.05 636.32 564.33 C 640.56 559.36 642.68 553.51 644.27 547.27 C 646.54 538.03 647.92 528.49 647.31 518.96 C 646.73 509.35 643.09 500.03 636.95 492.61 C 636.48 491.35 636.02 490.08 635.63 488.80 Z" fill="#fdfdfd" />
<path d="M 636.95 492.61 C 643.09 500.03 646.73 509.35 647.31 518.96 C 647.92 528.49 646.54 538.03 644.27 547.27 C 642.68 553.51 640.56 559.36 636.32 564.33 C 633.25 568.05 629.46 570.51 625.63 573.33 C 625.77 565.06 625.85 556.80 625.48 548.53 C 629.54 543.36 632.98 537.92 634.40 531.40 C 635.78 525.05 637.03 518.53 637.25 512.02 C 637.20 506.27 636.53 500.53 636.29 494.79 C 636.51 494.06 636.73 493.34 636.95 492.61 Z" fill="#9e9fa0" />
<path d="M 636.29 494.79 C 636.53 500.53 637.20 506.27 637.25 512.02 C 637.03 518.53 635.78 525.05 634.40 531.40 C 632.98 537.92 629.54 543.36 625.48 548.53 C 625.11 542.05 623.85 535.56 623.79 529.07 C 624.62 526.48 626.44 524.13 627.78 521.77 C 632.48 514.01 633.64 503.36 636.29 494.79 Z" fill="#efefee" />
<path d="M 509.00 497.64 C 515.62 497.58 523.03 497.61 529.40 499.60 C 531.62 500.22 533.01 502.66 534.44 504.35 C 526.09 500.35 517.93 501.10 508.96 501.26 C 503.91 501.39 497.61 502.19 493.66 505.64 C 491.17 508.26 489.61 511.67 487.33 514.49 C 486.27 513.76 485.21 513.03 484.15 512.30 C 484.36 507.48 486.27 502.93 490.71 500.62 C 496.14 497.98 503.07 497.72 509.00 497.64 Z" fill="#f6f6f7" />
<path d="M 697.99 498.61 C 698.77 508.16 699.44 517.60 698.31 527.16 C 697.93 524.22 697.07 521.42 696.13 518.61 C 695.83 513.46 695.78 508.30 695.65 503.14 C 696.37 501.60 697.17 500.10 697.99 498.61 Z" fill="#fa5d3c" />
<path d="M 539.90 511.20 C 541.32 511.41 542.72 511.71 544.14 511.98 C 543.01 512.52 541.90 513.10 540.79 513.68 C 543.86 514.92 547.54 515.79 550.18 517.84 C 552.06 520.24 552.73 523.75 553.54 526.64 C 554.60 530.34 554.27 533.95 557.50 536.60 C 554.31 536.39 552.34 536.69 549.50 538.20 C 551.02 540.38 552.75 541.93 554.91 543.44 C 552.11 548.92 550.42 554.51 545.67 558.67 C 542.60 561.50 539.02 562.70 535.18 564.05 C 534.79 564.82 534.40 565.58 533.97 566.32 C 527.08 563.04 519.93 561.78 512.48 560.51 C 512.26 555.01 512.60 549.46 512.10 543.99 C 512.11 542.21 509.98 541.14 508.90 539.92 C 508.37 546.80 508.56 553.62 508.38 560.54 C 500.00 562.26 492.16 563.31 484.50 567.49 C 471.05 575.05 460.98 588.03 457.13 602.96 C 453.44 599.57 449.21 596.85 445.54 593.46 C 441.48 589.64 439.19 585.02 436.84 580.07 C 434.68 571.62 434.61 562.79 436.25 554.24 C 437.60 547.15 439.22 540.44 443.41 534.41 C 445.80 531.01 447.42 527.78 447.98 523.60 C 455.31 518.73 462.53 514.38 471.30 512.59 C 474.83 512.00 478.48 511.79 482.05 511.52 C 482.44 515.02 482.40 518.42 484.68 521.31 C 490.77 528.97 499.13 534.51 508.29 537.81 C 511.05 538.99 514.64 537.35 517.30 536.37 C 524.65 533.12 531.82 528.13 536.58 521.57 C 538.91 518.44 539.39 514.94 539.90 511.20 Z" fill="#fefefe" />
<path d="M 544.14 511.98 C 548.86 512.78 553.54 513.60 558.11 515.08 C 557.03 515.54 555.97 516.05 554.91 516.55 C 558.64 518.37 562.22 519.76 565.18 522.79 C 569.61 527.39 573.17 532.92 574.90 539.11 C 577.62 548.82 579.02 559.15 578.23 569.23 C 577.41 575.52 575.37 582.28 571.22 587.22 C 568.31 590.76 564.99 593.99 561.83 597.31 C 561.12 595.36 560.33 593.46 559.35 591.64 C 553.27 580.96 545.16 571.77 533.97 566.32 C 534.40 565.58 534.79 564.82 535.18 564.05 C 539.02 562.70 542.60 561.50 545.67 558.67 C 550.42 554.51 552.11 548.92 554.91 543.44 C 556.99 542.24 558.86 540.92 560.64 539.31 C 559.60 538.40 558.55 537.51 557.50 536.60 C 554.27 533.95 554.60 530.34 553.54 526.64 C 552.73 523.75 552.06 520.24 550.18 517.84 C 547.54 515.79 543.86 514.92 540.79 513.68 C 541.90 513.10 543.01 512.52 544.14 511.98 Z" fill="#f4f4f4" />
<path d="M 558.11 515.08 C 563.88 516.83 569.12 520.66 574.32 523.68 C 577.64 525.70 581.17 527.44 584.35 529.67 C 586.48 530.85 586.50 534.05 587.00 536.18 C 589.02 550.30 590.57 565.19 588.96 579.41 C 587.31 572.70 587.84 566.01 587.17 559.21 C 584.24 560.51 581.92 561.88 580.11 564.60 C 580.03 561.65 579.79 558.72 579.43 555.80 C 578.96 560.27 578.75 564.76 578.23 569.23 C 579.02 559.15 577.62 548.82 574.90 539.11 C 573.17 532.92 569.61 527.39 565.18 522.79 C 562.22 519.76 558.64 518.37 554.91 516.55 C 555.97 516.05 557.03 515.54 558.11 515.08 Z" fill="#c5c6c6" />
<path d="M 375.78 516.89 C 375.93 521.02 376.34 524.68 378.51 528.28 C 379.63 527.26 380.74 526.23 381.85 525.19 C 382.12 529.98 382.29 534.50 384.06 539.02 C 387.01 547.33 392.94 552.87 393.79 562.02 C 394.23 560.29 394.70 558.56 395.11 556.82 C 394.71 563.24 395.00 569.70 394.31 576.08 C 387.45 570.96 380.99 564.31 377.68 556.30 C 372.39 544.65 371.96 531.27 373.25 518.74 C 373.68 519.42 374.11 520.10 374.54 520.78 C 374.96 519.48 375.37 518.19 375.78 516.89 Z" fill="#dbdcdc" />
<path d="M 696.13 518.61 C 697.07 521.42 697.93 524.22 698.31 527.16 C 697.61 534.25 696.71 541.29 695.12 548.24 C 694.47 547.08 693.77 545.94 693.07 544.82 C 694.86 536.14 695.34 527.41 696.13 518.61 Z" fill="#f2ad8c" />
<path d="M 447.98 523.60 C 447.42 527.78 445.80 531.01 443.41 534.41 C 439.22 540.44 437.60 547.15 436.25 554.24 C 434.61 562.79 434.68 571.62 436.84 580.07 C 435.78 578.06 434.59 576.12 433.32 574.24 C 432.79 575.22 432.27 576.21 431.78 577.21 C 431.25 562.93 431.64 549.12 435.25 535.21 C 435.97 533.09 436.72 530.00 438.73 528.75 C 441.66 526.81 444.94 525.37 447.98 523.60 Z" fill="#d6d6d6" />
<path d="M 414.03 526.34 C 414.85 526.84 415.65 527.37 416.44 527.92 C 416.51 535.19 416.39 542.50 415.72 549.74 C 414.95 557.87 415.08 566.09 414.85 574.27 C 413.84 567.05 413.77 559.89 413.98 552.62 C 411.30 553.49 408.90 553.96 406.13 553.21 L 405.66 553.17 C 402.77 556.58 403.28 560.93 402.64 565.17 C 402.18 562.71 401.70 560.22 401.36 557.74 C 401.90 548.47 402.57 539.26 402.71 529.97 C 407.50 529.77 410.07 528.84 414.03 526.34 Z" fill="#e70c0c" />
<path d="M 608.89 526.04 C 610.36 526.98 611.76 528.00 613.22 528.95 C 613.52 536.30 613.90 543.63 613.75 551.00 C 613.62 556.20 614.08 561.56 613.34 566.72 C 613.07 569.02 610.72 570.76 608.63 571.34 C 607.35 571.39 606.03 570.73 604.81 570.37 C 604.83 559.24 604.45 548.11 604.35 536.98 C 604.39 534.56 604.25 531.98 604.81 529.61 C 605.77 528.13 607.46 527.02 608.89 526.04 Z" fill="#e30b0a" />
<path d="M 416.44 527.92 C 417.19 535.42 416.51 543.26 416.25 550.81 C 415.33 567.32 415.40 584.50 418.23 600.83 C 419.84 601.15 421.44 601.46 423.06 601.71 L 423.41 599.82 C 424.00 600.79 424.61 601.75 425.23 602.70 C 420.33 604.96 413.61 603.23 408.94 601.06 C 404.87 599.20 403.74 595.60 402.76 591.57 C 404.44 587.28 405.49 583.44 410.08 581.42 C 412.17 580.32 413.54 581.44 415.48 582.18 C 415.23 579.54 415.02 576.91 414.85 574.27 C 415.08 566.09 414.95 557.87 415.72 549.74 C 416.39 542.50 416.51 535.19 416.44 527.92 Z" fill="#c60000" />
<path d="M 613.22 528.95 C 614.69 529.48 616.17 529.96 617.66 530.43 C 617.77 534.22 618.00 538.00 618.21 541.79 C 618.44 550.51 618.61 559.19 617.74 567.89 C 617.51 572.02 616.53 575.99 615.21 579.89 C 612.45 579.07 609.69 578.24 606.94 577.40 C 606.15 578.22 605.35 579.05 604.56 579.88 C 604.80 576.71 604.83 573.54 604.81 570.37 C 606.03 570.73 607.35 571.39 608.63 571.34 C 610.72 570.76 613.07 569.02 613.34 566.72 C 614.08 561.56 613.62 556.20 613.75 551.00 C 613.90 543.63 613.52 536.30 613.22 528.95 Z" fill="#b40000" />
<path d="M 280.93 529.46 C 282.32 538.80 283.08 547.59 285.36 556.63 C 287.33 564.27 289.08 571.91 291.72 579.35 C 292.33 581.66 293.48 583.57 291.78 585.72 C 288.76 590.05 283.94 589.93 279.20 590.33 C 278.46 587.67 277.55 585.07 276.67 582.46 C 274.24 575.31 273.35 567.86 271.51 560.40 C 269.87 553.81 268.56 547.19 268.19 540.39 C 268.57 537.59 269.04 534.80 269.43 532.00 C 270.27 534.57 271.15 537.11 272.09 539.64 C 274.99 539.67 277.56 539.98 280.19 541.23 C 280.02 537.26 280.35 533.38 280.93 529.46 Z" fill="#da090d" />
<path d="M 422.99 530.95 C 424.59 531.33 426.19 531.71 427.80 532.08 C 427.54 539.86 426.78 547.59 426.18 555.34 C 425.45 563.52 425.51 571.80 425.61 580.00 C 425.65 587.92 427.80 594.94 425.23 602.70 C 424.61 601.75 424.00 600.79 423.41 599.82 C 421.40 582.26 420.65 564.61 421.91 546.96 C 422.34 541.63 422.61 536.29 422.99 530.95 Z" fill="#ed140c" />
<path d="M 593.67 531.17 C 595.32 531.16 596.97 531.15 598.63 531.14 C 598.32 546.22 600.26 561.11 599.24 576.21 C 598.60 575.06 597.92 573.94 597.25 572.81 C 596.96 576.66 596.78 580.51 596.66 584.37 C 596.15 584.32 595.63 584.26 595.12 584.21 C 595.94 570.40 595.09 556.76 593.96 543.00 C 593.62 539.07 593.58 535.12 593.67 531.17 Z" fill="#fb1b15" />
<path d="M 472.48 537.92 C 470.96 540.06 469.90 542.01 467.00 542.29 C 464.80 542.72 463.68 541.55 462.44 539.93 C 464.09 536.60 469.52 536.46 472.48 537.92 Z" fill="#030404" />
<path d="M 557.50 536.60 C 558.55 537.51 559.60 538.40 560.64 539.31 C 558.86 540.92 556.99 542.24 554.91 543.44 C 552.75 541.93 551.02 540.38 549.50 538.20 C 552.34 536.69 554.31 536.39 557.50 536.60 Z" fill="#131313" />
<path d="M 618.21 541.79 C 618.91 550.21 618.14 557.99 620.06 565.88 C 621.11 570.27 621.98 574.55 621.29 579.08 C 620.93 578.02 620.54 576.96 620.13 575.91 C 619.06 573.27 617.91 570.79 617.74 567.89 C 618.61 559.19 618.44 550.51 618.21 541.79 Z" fill="#490000" />
<path d="M 337.99 545.93 C 340.89 561.19 347.00 574.49 353.40 588.50 C 357.91 598.15 364.19 606.08 370.24 614.77 C 378.76 626.68 389.39 637.02 400.62 646.37 C 417.04 659.14 435.71 670.02 455.54 676.47 C 467.11 680.70 479.53 682.93 491.75 684.27 C 501.89 684.93 511.89 685.82 522.04 684.76 C 538.49 684.00 554.34 680.21 569.83 674.82 C 576.69 673.41 582.58 669.90 589.23 667.89 C 595.13 666.01 599.84 662.44 605.14 659.27 C 611.10 655.99 615.51 651.58 620.89 647.52 C 627.52 645.35 631.01 640.49 636.01 635.99 C 638.51 633.76 640.00 631.03 641.32 628.00 C 649.67 619.02 656.06 608.83 662.44 598.43 C 663.95 595.90 665.24 593.26 666.53 590.61 C 671.32 581.01 674.24 570.39 677.42 560.17 C 678.25 558.46 679.12 556.78 679.99 555.10 C 680.71 555.40 681.43 555.69 682.15 555.99 C 679.19 566.53 675.43 576.98 671.01 587.00 C 665.21 600.61 656.83 613.18 647.94 624.95 C 643.46 630.81 638.33 635.88 633.11 641.10 C 627.53 646.81 620.77 651.55 614.47 656.48 C 605.27 663.59 595.13 668.67 584.69 673.68 C 579.09 676.28 573.07 678.11 567.27 680.26 C 561.59 682.36 555.83 683.86 549.86 684.86 C 537.25 686.98 524.84 689.09 512.00 688.73 C 500.91 688.98 490.01 687.59 479.07 686.01 C 467.21 684.15 455.91 680.62 444.78 676.22 C 432.09 670.68 419.93 663.37 408.61 655.42 C 398.98 649.05 390.43 640.95 382.07 632.92 C 375.45 626.59 370.38 619.41 364.79 612.21 C 359.96 605.87 355.60 599.12 351.99 592.01 C 344.56 577.44 338.37 561.93 334.82 545.94 C 335.87 545.94 336.93 545.94 337.99 545.93 Z" fill="#de0402" />
<path d="M 693.07 544.82 C 693.77 545.94 694.47 547.08 695.12 548.24 C 693.44 557.35 691.02 566.26 688.13 575.06 C 686.38 581.08 683.99 586.81 681.37 592.50 C 680.64 591.64 679.89 590.79 679.12 589.96 C 685.30 575.40 690.31 560.43 693.07 544.82 Z" fill="#e4dfdd" />
<path d="M 405.66 553.17 L 406.13 553.21 C 408.90 553.96 411.30 553.49 413.98 552.62 C 413.77 559.89 413.84 567.05 414.85 574.27 C 415.02 576.91 415.23 579.54 415.48 582.18 C 413.54 581.44 412.17 580.32 410.08 581.42 C 405.49 583.44 404.44 587.28 402.76 591.57 C 399.90 580.34 400.50 569.16 401.36 557.74 C 401.70 560.22 402.18 562.71 402.64 565.17 C 403.28 560.93 402.77 556.58 405.66 553.17 Z" fill="#dd0103" />
<path d="M 579.43 555.80 C 579.79 558.72 580.03 561.65 580.11 564.60 C 581.92 561.88 584.24 560.51 587.17 559.21 C 587.84 566.01 587.31 572.70 588.96 579.41 C 588.46 585.09 587.28 590.58 584.48 595.60 C 580.24 598.52 577.66 602.48 574.02 606.00 C 571.31 608.70 568.30 611.02 565.15 613.16 C 565.42 613.91 565.69 614.65 565.97 615.40 C 565.49 615.71 565.01 616.02 564.53 616.33 C 563.94 610.02 563.73 603.38 561.83 597.31 C 564.99 593.99 568.31 590.76 571.22 587.22 C 575.37 582.28 577.41 575.52 578.23 569.23 C 578.75 564.76 578.96 560.27 579.43 555.80 Z" fill="#b7b8b8" />
<path d="M 677.23 557.71 C 677.30 558.53 677.36 559.35 677.42 560.17 C 674.24 570.39 671.32 581.01 666.53 590.61 C 662.36 593.09 660.51 598.55 657.17 602.10 C 665.61 588.22 672.24 573.16 677.23 557.71 Z" fill="#b9b49c" />
<path d="M 516.04 565.95 C 525.47 566.76 533.89 570.96 541.16 576.85 C 540.54 577.47 539.93 578.09 539.33 578.72 C 542.69 582.51 545.93 586.03 548.29 590.59 C 550.30 594.55 552.01 598.66 554.11 602.58 C 552.00 604.31 550.08 606.23 547.91 607.89 C 537.24 614.82 523.58 617.51 511.01 617.69 C 501.09 617.74 490.63 615.95 481.22 612.81 C 474.68 610.63 469.18 606.83 463.00 603.95 C 462.21 607.11 461.29 610.67 461.62 613.93 C 467.13 619.50 476.88 621.12 483.82 624.72 C 475.57 622.96 467.32 619.96 460.28 615.25 C 461.18 609.44 461.29 603.93 463.60 598.61 C 468.12 587.97 475.75 578.70 485.62 572.60 C 494.41 566.90 505.74 565.03 516.04 565.95 Z" fill="#fdfdfd" />
<path d="M 617.74 567.89 C 617.91 570.79 619.06 573.27 620.13 575.91 C 619.18 576.84 617.87 577.96 617.56 579.30 C 616.15 584.74 616.12 591.26 613.38 596.41 C 611.98 599.11 608.57 600.73 606.11 602.35 C 607.76 602.26 609.41 602.18 611.05 602.04 C 606.33 603.58 601.52 603.93 596.60 604.18 C 598.74 602.12 602.60 600.29 602.72 597.01 C 603.47 591.32 603.84 585.58 604.56 579.88 C 605.35 579.05 606.15 578.22 606.94 577.40 C 609.69 578.24 612.45 579.07 615.21 579.89 C 616.53 575.99 617.51 572.02 617.74 567.89 Z" fill="#700000" />
<path d="M 597.25 572.81 C 597.92 573.94 598.60 575.06 599.24 576.21 C 598.90 583.74 598.33 591.35 596.81 598.74 C 596.14 600.66 596.44 602.89 593.95 603.24 C 592.67 600.71 593.47 598.49 593.82 595.85 C 594.50 591.99 594.83 588.11 595.12 584.21 C 595.63 584.26 596.15 584.32 596.66 584.37 C 596.78 580.51 596.96 576.66 597.25 572.81 Z" fill="#e90200" />
<path d="M 433.32 574.24 C 434.59 576.12 435.78 578.06 436.84 580.07 C 439.19 585.02 441.48 589.64 445.54 593.46 C 449.21 596.85 453.44 599.57 457.13 602.96 C 456.40 606.95 455.83 610.96 455.03 614.94 C 449.42 611.67 443.94 607.23 439.71 602.29 C 433.74 595.05 432.21 586.33 431.78 577.21 C 432.27 576.21 432.79 575.22 433.32 574.24 Z" fill="#bfc0bf" />
<path d="M 333.77 576.27 C 334.61 577.08 335.42 577.91 336.21 578.77 C 340.99 590.74 346.77 602.26 354.14 612.85 C 360.19 622.30 366.80 631.32 374.41 639.58 C 377.81 643.09 381.16 646.62 384.41 650.27 C 378.11 657.15 371.89 664.15 365.29 670.75 C 364.11 671.10 362.92 671.39 361.73 671.69 C 361.23 669.21 360.48 666.61 360.52 664.07 C 361.22 662.21 363.21 660.73 364.56 659.30 C 363.52 659.08 362.47 658.86 361.43 658.64 C 361.84 656.34 362.51 653.84 362.28 651.50 C 361.32 649.53 358.82 648.27 356.93 647.31 L 356.89 649.06 C 355.55 646.75 354.25 644.43 353.03 642.06 C 351.11 636.96 347.95 632.76 344.77 628.42 C 345.12 627.75 345.48 627.09 345.83 626.43 C 344.96 623.60 344.26 620.75 343.69 617.85 C 342.72 617.75 341.74 617.66 340.77 617.57 C 341.25 611.41 339.03 606.37 337.88 600.43 C 336.28 601.58 334.67 602.72 333.09 603.88 C 333.30 601.74 333.96 599.26 333.47 597.13 C 332.06 592.72 328.02 588.02 327.80 583.32 C 328.16 580.42 331.59 577.96 333.77 576.27 Z" fill="#ce0102" />
<path d="M 620.13 575.91 C 620.54 576.96 620.93 578.02 621.29 579.08 C 620.57 584.27 619.31 589.62 617.55 594.55 C 616.30 597.84 614.65 600.93 611.05 602.04 C 609.41 602.18 607.76 602.26 606.11 602.35 C 608.57 600.73 611.98 599.11 613.38 596.41 C 616.12 591.26 616.15 584.74 617.56 579.30 C 617.87 577.96 619.18 576.84 620.13 575.91 Z" fill="#ea0504" />
<path d="M 541.16 576.85 C 548.45 582.96 554.81 591.34 557.61 600.50 C 556.43 601.17 555.25 601.84 554.11 602.58 C 552.01 598.66 550.30 594.55 548.29 590.59 C 545.93 586.03 542.69 582.51 539.33 578.72 C 539.93 578.09 540.54 577.47 541.16 576.85 Z" fill="#ecebec" />
<path d="M 666.53 590.61 C 665.24 593.26 663.95 595.90 662.44 598.43 C 656.06 608.83 649.67 619.02 641.32 628.00 C 634.23 634.20 627.86 641.18 620.89 647.52 C 615.51 651.58 611.10 655.99 605.14 659.27 L 602.53 657.78 C 609.22 653.89 615.49 649.44 621.20 644.21 C 627.96 638.63 634.13 632.50 640.01 626.01 C 646.71 618.60 651.91 610.52 657.17 602.10 C 660.51 598.55 662.36 593.09 666.53 590.61 Z" fill="#bbc5c8" />
<path d="M 679.12 589.96 C 679.89 590.79 680.64 591.64 681.37 592.50 C 678.40 599.49 674.87 606.45 670.95 612.96 C 661.71 626.99 651.61 641.45 638.94 652.62 L 637.36 653.93 C 632.05 658.42 626.83 663.08 621.24 667.23 C 610.11 675.03 599.25 682.37 586.65 687.66 C 571.91 693.85 556.66 698.68 540.73 700.57 C 538.93 700.82 537.14 701.06 535.34 701.28 C 533.77 701.01 532.22 700.68 530.65 700.39 C 533.68 700.14 536.47 699.59 539.37 698.68 C 548.81 696.57 558.22 694.63 567.34 691.37 C 593.60 683.30 617.92 668.69 637.93 649.93 C 647.22 641.31 654.67 631.28 662.00 621.01 C 668.60 611.15 674.64 600.98 679.12 589.96 Z" fill="#f3f0ee" />
<path d="M 584.48 595.60 C 580.16 603.57 573.37 610.27 565.97 615.40 C 565.69 614.65 565.42 613.91 565.15 613.16 C 568.30 611.02 571.31 608.70 574.02 606.00 C 577.66 602.48 580.24 598.52 584.48 595.60 Z" fill="#dfdfdd" />
<path d="M 557.61 600.50 C 558.83 605.65 559.55 610.96 559.65 616.25 L 558.08 617.48 C 557.70 613.84 557.37 610.20 557.02 606.57 C 554.28 607.75 551.53 608.90 548.77 610.04 C 548.48 609.32 548.20 608.60 547.91 607.89 C 550.08 606.23 552.00 604.31 554.11 602.58 C 555.25 601.84 556.43 601.17 557.61 600.50 Z" fill="#c7c6c6" />
<path d="M 306.64 609.35 C 312.71 619.05 317.86 629.28 324.14 638.88 C 326.81 643.44 330.24 647.53 332.81 652.14 C 336.21 658.02 333.15 666.70 326.89 669.25 C 324.60 670.01 321.61 668.18 319.54 667.24 C 321.76 666.71 324.00 666.22 326.20 665.62 C 328.39 663.83 330.42 662.19 330.37 659.09 C 329.47 652.60 324.06 647.69 320.80 642.20 C 314.04 631.12 307.67 619.64 301.63 608.15 C 298.46 607.89 294.53 607.22 291.53 608.45 C 290.53 609.44 289.94 610.93 289.37 612.19 C 286.78 616.62 290.27 622.62 294.64 624.38 C 295.27 625.45 295.94 626.49 296.61 627.54 C 296.60 630.74 297.29 632.80 298.98 635.51 C 300.80 638.90 303.45 641.85 305.10 645.31 C 305.76 646.66 305.41 648.15 305.32 649.59 C 298.61 639.98 292.60 629.94 287.71 619.29 C 286.73 617.07 286.17 614.71 285.82 612.32 C 288.31 609.90 290.62 607.36 292.79 604.65 L 290.84 604.58 C 296.28 603.63 303.68 603.75 306.64 609.35 Z" fill="#ee0f0f" />
<path d="M 463.00 603.95 C 469.18 606.83 474.68 610.63 481.22 612.81 C 490.63 615.95 501.09 617.74 511.01 617.69 C 523.58 617.51 537.24 614.82 547.91 607.89 C 548.20 608.60 548.48 609.32 548.77 610.04 C 551.53 608.90 554.28 607.75 557.02 606.57 C 557.37 610.20 557.70 613.84 558.08 617.48 C 554.42 620.13 550.29 621.74 545.98 623.01 C 538.99 624.99 531.71 626.65 524.43 627.00 C 516.10 625.29 507.99 625.93 499.65 627.10 C 494.33 626.75 488.99 626.05 483.82 624.72 C 476.88 621.12 467.13 619.50 461.62 613.93 C 461.29 610.67 462.21 607.11 463.00 603.95 Z" fill="#b5b5b5" />
<path d="M 290.84 604.58 L 292.79 604.65 C 290.62 607.36 288.31 609.90 285.82 612.32 C 286.71 609.21 287.72 606.10 290.84 604.58 Z" fill="#dc4b3c" />
<path d="M 735.18 614.66 C 732.70 618.51 731.27 621.82 730.31 626.31 C 729.98 626.89 729.65 627.47 729.32 628.04 C 726.75 630.39 725.97 632.01 725.14 635.39 C 724.54 636.42 723.92 637.45 723.31 638.46 C 720.03 640.24 719.30 643.02 718.15 646.32 C 715.43 650.45 712.47 654.42 709.42 658.29 C 707.84 659.14 706.22 659.89 704.59 660.63 L 704.93 658.97 C 714.01 645.75 722.81 632.44 730.01 618.07 C 730.97 615.89 732.22 613.12 731.38 610.73 C 730.46 609.29 728.61 608.36 727.19 607.48 C 725.02 607.32 722.18 606.90 720.35 608.35 C 717.59 610.30 717.23 613.38 716.30 616.39 C 714.78 619.71 712.97 622.87 711.07 625.98 C 710.02 626.25 709.60 626.92 709.79 627.99 C 708.59 630.01 707.39 632.03 706.16 634.03 C 705.10 634.28 704.66 634.94 704.83 636.01 C 702.82 639.28 700.84 642.57 698.77 645.80 C 697.49 646.94 696.13 648.03 694.79 649.11 C 694.59 648.03 694.40 646.96 694.18 645.89 C 700.13 637.39 705.34 628.47 710.43 619.45 C 713.11 614.65 715.34 609.33 719.91 605.96 C 726.10 601.99 736.26 606.82 735.18 614.66 Z" fill="#dd0709" />
<path d="M 727.19 607.48 C 725.17 608.08 722.34 608.30 720.84 609.87 C 719.01 611.75 717.65 614.16 716.30 616.39 C 717.23 613.38 717.59 610.30 720.35 608.35 C 722.18 606.90 725.02 607.32 727.19 607.48 Z" fill="#812c2d" />
<path d="M 301.63 608.15 C 307.67 619.64 314.04 631.12 320.80 642.20 C 324.06 647.69 329.47 652.60 330.37 659.09 C 330.42 662.19 328.39 663.83 326.20 665.62 C 323.99 665.39 321.71 665.59 319.91 664.07 C 317.64 662.07 316.20 658.95 314.58 656.42 C 309.70 648.87 304.91 641.25 300.19 633.60 C 299.11 631.52 297.90 629.50 296.61 627.54 C 295.94 626.49 295.27 625.45 294.64 624.38 C 292.46 620.48 290.82 616.40 289.37 612.19 C 289.94 610.93 290.53 609.44 291.53 608.45 C 294.53 607.22 298.46 607.89 301.63 608.15 Z" fill="#fafaf9" />
<path d="M 727.19 607.48 C 728.61 608.36 730.46 609.29 731.38 610.73 C 732.22 613.12 730.97 615.89 730.01 618.07 C 722.81 632.44 714.01 645.75 704.93 658.97 C 702.80 661.80 700.00 665.94 696.05 665.89 C 692.24 666.12 690.32 661.76 691.55 658.59 C 693.31 654.06 696.31 649.97 698.77 645.80 C 700.84 642.57 702.82 639.28 704.83 636.01 C 705.87 635.75 706.31 635.09 706.16 634.03 C 707.39 632.03 708.59 630.01 709.79 627.99 C 710.82 627.71 711.25 627.04 711.07 625.98 C 712.97 622.87 714.78 619.71 716.30 616.39 C 717.65 614.16 719.01 611.75 720.84 609.87 C 722.34 608.30 725.17 608.08 727.19 607.48 Z" fill="#f1f3f4" />
<path d="M 289.37 612.19 C 290.82 616.40 292.46 620.48 294.64 624.38 C 290.27 622.62 286.78 616.62 289.37 612.19 Z" fill="#990f0d" />
<path d="M 735.18 614.66 C 734.66 619.05 732.60 622.65 730.31 626.31 C 731.27 621.82 732.70 618.51 735.18 614.66 Z" fill="#c74335" />
<path d="M 524.43 627.00 C 516.16 627.58 507.91 627.91 499.65 627.10 C 507.99 625.93 516.10 625.29 524.43 627.00 Z" fill="#cccdcd" />
<path d="M 711.07 625.98 C 711.25 627.04 710.82 627.71 709.79 627.99 C 709.60 626.92 710.02 626.25 711.07 625.98 Z" fill="#938e91" />
<path d="M 296.61 627.54 C 297.90 629.50 299.11 631.52 300.19 633.60 L 298.98 635.51 C 297.29 632.80 296.60 630.74 296.61 627.54 Z" fill="#8a1010" />
<path d="M 641.32 628.00 C 640.00 631.03 638.51 633.76 636.01 635.99 C 631.01 640.49 627.52 645.35 620.89 647.52 C 627.86 641.18 634.23 634.20 641.32 628.00 Z" fill="#be6354" />
<path d="M 729.32 628.04 C 728.08 630.62 726.72 633.01 725.14 635.39 C 725.97 632.01 726.75 630.39 729.32 628.04 Z" fill="#d5473a" />
<path d="M 300.19 633.60 C 304.91 641.25 309.70 648.87 314.58 656.42 C 316.20 658.95 317.64 662.07 319.91 664.07 C 321.71 665.59 323.99 665.39 326.20 665.62 C 324.00 666.22 321.76 666.71 319.54 667.24 C 313.26 662.44 309.31 656.26 305.32 649.59 C 305.41 648.15 305.76 646.66 305.10 645.31 C 303.45 641.85 300.80 638.90 298.98 635.51 L 300.19 633.60 Z" fill="#d00206" />
<path d="M 706.16 634.03 C 706.31 635.09 705.87 635.75 704.83 636.01 C 704.66 634.94 705.10 634.28 706.16 634.03 Z" fill="#887c76" />
<path d="M 723.31 638.46 C 721.74 641.20 720.01 643.79 718.15 646.32 C 719.30 643.02 720.03 640.24 723.31 638.46 Z" fill="#cb473c" />
<path d="M 694.18 645.89 C 694.40 646.96 694.59 648.03 694.79 649.11 C 696.13 648.03 697.49 646.94 698.77 645.80 C 696.31 649.97 693.31 654.06 691.55 658.59 C 690.32 661.76 692.24 666.12 696.05 665.89 C 700.00 665.94 702.80 661.80 704.93 658.97 L 704.59 660.63 C 706.22 659.89 707.84 659.14 709.42 658.29 C 706.64 661.90 703.72 666.35 699.77 668.76 C 697.70 670.04 695.32 670.04 693.25 668.74 C 689.12 666.07 686.97 660.36 688.69 655.68 C 689.95 652.19 692.13 648.95 694.18 645.89 Z" fill="#f31d17" />
<path d="M 356.93 647.31 C 358.82 648.27 361.32 649.53 362.28 651.50 C 362.51 653.84 361.84 656.34 361.43 658.64 C 362.47 658.86 363.52 659.08 364.56 659.30 C 363.21 660.73 361.22 662.21 360.52 664.07 C 360.48 666.61 361.23 669.21 361.73 671.69 C 362.92 671.39 364.11 671.10 365.29 670.75 C 357.97 679.20 349.13 686.69 343.01 695.98 C 341.06 693.62 339.00 691.36 337.00 689.05 C 342.43 683.17 347.07 676.82 350.81 669.74 C 353.40 664.73 356.64 659.85 358.52 654.52 C 359.22 652.91 358.29 651.90 357.65 650.48 L 356.89 649.06 L 356.93 647.31 Z" fill="#e30102" />
<path d="M 357.65 650.48 C 358.29 651.90 359.22 652.91 358.52 654.52 C 356.64 659.85 353.40 664.73 350.81 669.74 C 347.07 676.82 342.43 683.17 337.00 689.05 L 336.00 687.81 C 338.54 683.81 342.04 680.61 344.60 676.60 C 349.85 668.58 353.88 659.26 357.65 650.48 Z" fill="#d39ca5" />
<path d="M 637.36 653.93 C 639.09 657.05 641.03 659.93 643.55 662.46 C 650.38 669.42 656.41 676.88 662.67 684.34 C 666.64 689.11 671.03 693.44 675.23 698.05 C 673.12 699.97 670.95 701.81 668.72 703.60 C 669.52 701.64 670.44 699.74 671.42 697.86 C 670.22 698.42 669.01 698.98 667.81 699.54 C 667.88 696.99 668.22 694.75 666.54 692.57 C 662.21 686.32 657.15 680.53 652.24 674.74 C 648.56 670.06 643.26 668.41 638.82 664.47 C 633.62 667.54 628.83 671.33 623.97 674.90 C 620.45 677.47 618.01 681.03 614.72 683.81 C 611.10 686.89 605.99 687.01 601.50 687.73 C 602.10 690.62 602.69 693.51 603.31 696.39 C 585.46 706.42 565.51 712.82 545.38 716.26 C 544.12 714.86 542.85 713.46 541.59 712.06 C 541.47 713.03 541.36 714.00 541.24 714.97 C 539.11 715.24 536.98 715.51 534.84 715.77 C 536.08 714.02 537.32 712.26 538.56 710.51 C 537.43 710.27 536.30 710.03 535.17 709.79 C 535.50 708.56 535.84 707.33 536.18 706.10 C 535.05 705.09 533.93 704.08 532.80 703.08 C 536.38 704.72 540.03 706.18 543.74 707.52 C 542.64 706.33 541.54 705.15 540.44 703.97 C 540.54 702.84 540.63 701.70 540.73 700.57 C 556.66 698.68 571.91 693.85 586.65 687.66 C 599.25 682.37 610.11 675.03 621.24 667.23 C 626.83 663.08 632.05 658.42 637.36 653.93 Z" fill="#ac0000" />
<path d="M 388.98 654.66 C 403.75 665.43 418.55 675.84 435.00 683.95 L 433.23 684.06 C 441.40 688.93 451.01 691.85 459.98 694.92 C 469.57 698.22 479.41 699.97 489.35 701.83 C 484.84 702.27 480.34 702.87 475.83 703.35 C 476.65 704.06 477.48 704.78 478.30 705.50 C 477.67 706.19 477.03 706.89 476.40 707.58 C 478.67 708.22 480.93 708.86 483.19 709.52 C 481.08 712.07 479.27 714.44 475.93 715.40 C 461.07 712.27 446.28 707.92 432.47 701.55 C 424.40 697.90 416.23 693.98 408.72 689.29 C 402.00 685.20 395.99 680.20 389.00 676.53 C 385.49 679.22 382.33 682.08 379.30 685.31 C 372.37 692.61 365.34 699.98 359.13 707.92 C 355.62 704.31 351.78 701.12 347.86 697.97 C 361.96 684.34 373.73 667.01 388.98 654.66 Z" fill="#cd0000" />
<path d="M 602.53 657.78 L 605.14 659.27 C 599.84 662.44 595.13 666.01 589.23 667.89 C 582.58 669.90 576.69 673.41 569.83 674.82 C 573.38 673.45 576.99 672.15 580.42 670.49 C 584.20 668.65 587.32 666.04 590.99 664.01 C 594.80 661.86 598.64 659.76 602.53 657.78 Z" fill="#8fe4e9" />
<path d="M 638.82 664.47 C 643.26 668.41 648.56 670.06 652.24 674.74 C 657.15 680.53 662.21 686.32 666.54 692.57 C 668.22 694.75 667.88 696.99 667.81 699.54 C 669.01 698.98 670.22 698.42 671.42 697.86 C 670.44 699.74 669.52 701.64 668.72 703.60 C 666.53 705.41 664.32 707.18 662.09 708.94 C 655.54 700.80 649.44 692.28 642.66 684.36 C 640.21 681.44 637.32 679.02 634.20 676.84 C 629.88 679.64 625.57 682.47 621.20 685.20 C 615.19 688.92 609.57 693.08 603.31 696.39 C 602.69 693.51 602.10 690.62 601.50 687.73 C 605.99 687.01 611.10 686.89 614.72 683.81 C 618.01 681.03 620.45 677.47 623.97 674.90 C 628.83 671.33 633.62 667.54 638.82 664.47 Z" fill="#9d0000" />
<path d="M 433.23 684.06 L 435.00 683.95 C 463.32 697.18 494.99 702.40 526.12 700.19 C 519.67 701.23 513.17 701.84 506.71 702.80 C 500.92 702.66 495.14 702.11 489.35 701.83 C 479.41 699.97 469.57 698.22 459.98 694.92 C 451.01 691.85 441.40 688.93 433.23 684.06 Z" fill="#fd542e" />
<path d="M 643.97 692.89 L 645.11 693.72 C 642.61 695.55 640.34 697.65 638.19 699.87 C 631.65 703.73 625.54 708.21 618.94 711.96 C 611.11 716.46 603.03 720.85 594.57 724.04 L 592.74 723.29 C 603.71 718.37 614.49 713.18 624.56 706.55 C 631.35 702.42 637.56 697.56 643.97 692.89 Z" fill="#d03622" />
<path d="M 379.99 693.93 C 381.43 694.77 382.82 695.68 384.20 696.61 C 379.68 701.58 373.73 707.56 366.97 709.00 L 365.93 708.14 C 369.87 702.77 374.57 697.82 379.99 693.93 Z" fill="#7f0000" />
<path d="M 645.11 693.72 C 649.71 697.92 653.17 703.41 657.20 708.17 C 652.78 712.54 647.97 716.34 642.82 719.82 C 621.34 735.02 596.86 746.21 571.23 752.20 C 564.37 753.75 557.77 755.42 550.71 755.77 C 552.04 755.58 553.36 755.39 554.69 755.21 C 553.17 753.74 550.55 752.09 550.44 749.80 C 550.01 745.99 550.73 741.95 551.14 738.15 C 552.84 737.46 554.53 736.74 556.26 736.11 C 566.05 734.64 575.31 731.50 584.87 729.09 C 588.92 728.43 592.84 727.67 596.52 725.75 C 602.03 722.96 608.01 721.49 613.42 718.53 C 620.43 714.75 627.11 710.32 633.50 705.58 C 635.62 704.09 636.90 702.05 638.19 699.87 C 640.34 697.65 642.61 695.55 645.11 693.72 Z" fill="#860000" />
<path d="M 384.20 696.61 C 405.89 711.26 428.98 723.91 454.47 730.50 C 459.57 731.90 464.84 732.64 469.91 734.13 C 471.58 734.82 473.59 735.05 473.81 737.20 C 474.91 742.98 473.98 749.31 473.60 755.15 C 466.32 755.66 460.36 753.18 453.44 751.54 C 428.97 745.46 405.52 735.43 384.44 721.58 C 378.35 717.74 372.48 713.64 366.97 709.00 C 373.73 707.56 379.68 701.58 384.20 696.61 Z" fill="#c00000" />
<path d="M 539.37 698.68 C 536.47 699.59 533.68 700.14 530.65 700.39 C 529.41 700.27 528.18 700.16 526.94 700.08 C 531.08 699.04 535.09 698.45 539.37 698.68 Z" fill="#b34029" />
<path d="M 526.12 700.19 L 526.94 700.08 C 528.18 700.16 529.41 700.27 530.65 700.39 C 532.22 700.68 533.77 701.01 535.34 701.28 C 525.85 702.85 516.32 703.49 506.71 702.80 C 513.17 701.84 519.67 701.23 526.12 700.19 Z" fill="#ef735a" />
<path d="M 638.19 699.87 C 636.90 702.05 635.62 704.09 633.50 705.58 C 627.11 710.32 620.43 714.75 613.42 718.53 C 608.01 721.49 602.03 722.96 596.52 725.75 C 592.84 727.67 588.92 728.43 584.87 729.09 C 588.20 727.55 591.33 725.71 594.57 724.04 C 603.03 720.85 611.11 716.46 618.94 711.96 C 625.54 708.21 631.65 703.73 638.19 699.87 Z" fill="#a60000" />
<path d="M 535.34 701.28 C 537.14 701.06 538.93 700.82 540.73 700.57 C 540.63 701.70 540.54 702.84 540.44 703.97 C 541.54 705.15 542.64 706.33 543.74 707.52 C 540.03 706.18 536.38 704.72 532.80 703.08 C 533.93 704.08 535.05 705.09 536.18 706.10 C 535.84 707.33 535.50 708.56 535.17 709.79 C 536.30 710.03 537.43 710.27 538.56 710.51 C 537.32 712.26 536.08 714.02 534.84 715.77 C 536.98 715.51 539.11 715.24 541.24 714.97 C 541.36 714.00 541.47 713.03 541.59 712.06 C 542.85 713.46 544.12 714.86 545.38 716.26 C 534.04 718.33 522.53 719.52 511.00 719.35 C 499.20 719.08 487.50 717.68 475.93 715.40 C 479.27 714.44 481.08 712.07 483.19 709.52 C 480.93 708.86 478.67 708.22 476.40 707.58 C 477.03 706.89 477.67 706.19 478.30 705.50 C 477.48 704.78 476.65 704.06 475.83 703.35 C 480.34 702.87 484.84 702.27 489.35 701.83 C 495.14 702.11 500.92 702.66 506.71 702.80 C 516.32 703.49 525.85 702.85 535.34 701.28 Z" fill="#ba0000" />
<path d="M 423.09 722.12 C 425.84 723.30 428.01 725.69 430.76 726.96 C 433.68 728.28 436.89 728.98 439.91 730.09 C 444.02 731.52 447.85 733.55 451.92 735.07 C 457.89 737.59 464.98 735.76 471.63 736.33 C 472.23 741.62 472.29 746.62 471.75 751.92 C 462.44 753.46 455.32 749.73 446.37 747.85 C 447.17 747.22 447.97 746.59 448.76 745.97 C 446.11 744.93 443.25 744.12 440.79 742.67 C 438.47 740.90 436.74 738.47 434.40 736.69 C 431.78 734.72 429.66 732.44 427.55 729.94 C 426.05 727.77 422.60 728.44 420.26 727.70 C 418.68 726.42 417.75 724.22 416.71 722.48 C 418.76 722.24 421.05 721.74 423.09 722.12 Z" fill="#af0000" />
<path d="M 592.74 723.29 L 594.57 724.04 C 591.33 725.71 588.20 727.55 584.87 729.09 C 575.31 731.50 566.05 734.64 556.26 736.11 C 555.06 735.81 553.87 735.50 552.67 735.19 C 560.70 733.01 568.77 731.26 576.72 728.73 C 582.11 727.07 587.35 724.97 592.74 723.29 Z" fill="#d21511" />
<path d="M 552.67 735.19 C 553.87 735.50 555.06 735.81 556.26 736.11 C 554.53 736.74 552.84 737.46 551.14 738.15 C 550.73 741.95 550.01 745.99 550.44 749.80 C 550.55 752.09 553.17 753.74 554.69 755.21 C 553.36 755.39 552.04 755.58 550.71 755.77 C 549.40 753.58 547.65 751.75 547.86 749.03 C 547.97 744.69 548.61 740.34 549.12 736.03 C 550.30 735.74 551.48 735.46 552.67 735.19 Z" fill="#c10202" />
<path d="M 487.36 739.58 C 489.19 739.31 491.13 739.53 492.97 739.63 C 505.61 740.68 518.37 740.55 531.02 739.71 C 533.92 739.81 536.52 738.88 538.65 741.36 C 540.54 743.23 543.74 746.07 543.80 748.87 C 542.50 752.44 540.20 755.87 537.81 758.82 C 536.11 761.11 532.61 760.76 530.05 761.09 C 518.39 761.56 506.61 761.63 494.95 761.12 C 492.35 760.76 488.97 761.09 487.25 758.76 C 484.55 755.66 482.77 751.57 480.83 747.97 C 482.74 745.16 484.57 741.59 487.36 739.58 Z" fill="#da0b0c" />
<path d="M 489.96 743.69 C 501.54 744.82 513.36 744.54 525.00 744.51 C 529.34 744.61 533.61 743.67 537.92 743.73 C 539.37 745.49 539.87 746.57 539.05 748.80 C 538.04 751.52 536.16 755.83 533.17 756.78 C 519.85 756.69 506.40 757.15 493.09 756.55 C 487.39 756.71 485.96 749.85 485.11 745.52 C 486.72 744.48 487.89 743.33 489.96 743.69 Z" fill="#eff2f3" />
<path d="M 485.11 745.52 C 485.96 749.85 487.39 756.71 493.09 756.55 C 506.40 757.15 519.85 756.69 533.17 756.78 C 527.54 758.66 520.91 758.16 515.00 758.26 C 507.32 758.16 499.61 758.43 491.94 758.17 C 487.64 758.43 485.38 754.08 484.10 750.65 C 483.26 748.62 484.16 747.26 485.11 745.52 Z" fill="#7c2121" />
</svg>